<svg width="108" height="108" viewBox="0 0 108 108" fill="none" xmlns="http://www.w3.org/2000/svg">
<circle cx="54" cy="54" r="53" fill="white" stroke="#7C77DC" stroke-width="2"/>
<g clip-path="url(#clip0_117_965)">
<path d="M32.6298 41.16C46.7398 41.16 60.8498 41.16 75.3898 41.16C75.3998 46.51 75.4098 51.85 75.4298 57.36C75.4398 59.05 75.4398 60.74 75.4498 62.47C75.4498 64.53 75.4498 64.53 75.4498 65.5C75.4498 66.17 75.4498 66.85 75.4598 67.52C75.4598 68.38 75.4698 69.24 75.4598 70.1C75.4598 70.42 75.4598 70.73 75.4598 71.05C75.4598 71.48 75.4598 71.9 75.4598 72.33C75.4598 72.57 75.4598 72.81 75.4598 73.05C75.3298 74.25 74.8398 75.26 73.9898 76.13C72.8798 76.91 71.8798 77.16 70.5398 77.14C70.3498 77.14 70.1498 77.14 69.9498 77.14C69.7498 77.14 69.5498 77.13 69.3398 77.13C68.9398 77.12 68.5398 77.12 68.1398 77.12C67.9598 77.12 67.7898 77.12 67.5998 77.11C67.1898 77.08 67.1898 77.08 66.9898 77.33C66.9698 77.69 66.9598 78.06 66.9598 78.42C66.9598 78.77 66.9598 78.77 66.9598 79.13C66.9598 79.51 66.9598 79.51 66.9598 79.9C66.9598 80.3 66.9498 80.7 66.9498 81.1C66.9398 82.09 66.9398 83.07 66.9398 84.06C66.9398 84.61 66.9398 85.16 66.9298 85.71C66.9198 86.23 66.9198 86.75 66.9298 87.27C66.9098 88.99 66.6398 90.42 65.4298 91.7C64.2498 92.8 63.1598 92.99 61.5698 92.96C60.8498 92.9 60.3898 92.72 59.7998 92.31C59.6298 92.2 59.4598 92.1 59.2898 91.99C58.2998 91.03 57.6398 89.76 57.5798 88.37C57.5798 88.16 57.5798 87.95 57.5798 87.74C57.5798 87.39 57.5798 87.39 57.5798 87.02C57.5798 86.77 57.5798 86.51 57.5798 86.25C57.5798 85.99 57.5798 85.73 57.5798 85.46C57.5798 84.77 57.5798 84.08 57.5798 83.39C57.5798 82.68 57.5798 81.98 57.5798 81.27C57.5798 79.89 57.5898 78.5 57.5898 77.12C55.2198 77.12 52.8398 77.12 50.3998 77.12C50.4098 77.96 50.4198 78.81 50.4298 79.68C50.4398 80.36 50.4398 81.04 50.4398 81.71C50.4398 82.42 50.4498 83.14 50.4598 83.85C50.4698 84.67 50.4698 85.49 50.4798 86.31C50.4798 86.56 50.4898 86.82 50.4898 87.08C50.4898 88.84 50.1998 90.15 49.1498 91.57C48.1298 92.57 47.2398 92.95 45.7998 93.01C44.3298 92.95 43.3498 92.54 42.3398 91.46C41.0498 89.96 41.1198 88.2 41.1398 86.33C41.1398 86.06 41.1398 85.8 41.1398 85.53C41.1398 84.83 41.1498 84.14 41.1498 83.44C41.1598 82.73 41.1598 82.01 41.1598 81.3C41.1698 79.91 41.1798 78.51 41.1898 77.12C40.9798 77.12 40.9798 77.12 40.7598 77.13C40.1098 77.14 39.4498 77.15 38.7998 77.16C38.5798 77.17 38.3498 77.17 38.1198 77.18C36.5398 77.19 35.4098 77.04 34.0598 76.18C33.3198 75.44 32.6298 74.44 32.5898 73.37C32.5898 73.13 32.5898 72.89 32.5898 72.64C32.5898 72.51 32.5898 72.37 32.5898 72.23C32.5898 71.78 32.5898 71.33 32.5898 70.87C32.5898 70.54 32.5898 70.21 32.5898 69.89C32.5898 69.01 32.5898 68.13 32.5898 67.25C32.5898 66.42 32.5898 65.6 32.5898 64.77C32.5898 62.35 32.5898 59.94 32.5998 57.52C32.6198 52.12 32.6198 46.72 32.6298 41.16ZM49.2098 45.36C49.2098 49.98 49.2098 54.59 49.2098 59.35C47.0998 59.35 44.9898 59.35 42.8198 59.35C43.0298 60.4 43.3098 60.75 44.0298 61.45C44.1398 61.56 44.2398 61.66 44.3498 61.77C44.6998 62.12 45.0498 62.46 45.3998 62.8C45.6398 63.04 45.8798 63.28 46.1198 63.52C46.7598 64.15 47.3898 64.78 48.0298 65.41C48.6798 66.05 49.3298 66.7 49.9798 67.34C51.2498 68.6 52.5298 69.87 53.8098 71.13C54.5898 70.81 55.0798 70.31 55.6698 69.73C55.7698 69.63 55.8798 69.53 55.9798 69.42C56.3198 69.08 56.6598 68.74 56.9998 68.41C57.2398 68.18 57.4698 67.94 57.7098 67.71C58.1998 67.22 58.6998 66.72 59.1898 66.23C59.8198 65.6 60.4598 64.97 61.0898 64.34C61.5798 63.86 62.0698 63.37 62.5498 62.88C62.7798 62.65 63.0198 62.41 63.2498 62.18C63.5798 61.86 63.8998 61.53 64.2298 61.2C64.5098 60.92 64.5098 60.92 64.7898 60.64C65.2698 60.15 65.2698 60.15 65.1898 59.35C63.0798 59.35 60.9698 59.35 58.7998 59.35C58.7998 58.34 58.7998 57.34 58.8098 56.3C58.8098 55.66 58.8098 55.03 58.8098 54.39C58.8098 53.38 58.8098 52.37 58.8198 51.36C58.8198 50.55 58.8198 49.73 58.8198 48.92C58.8198 48.61 58.8198 48.3 58.8198 47.99C58.8198 47.56 58.8198 47.12 58.8198 46.69C58.8198 46.44 58.8198 46.19 58.8198 45.94C58.8598 45.4 58.8598 45.4 58.5998 45.19C58.3198 45.17 58.0398 45.16 57.7598 45.16C57.5798 45.16 57.3998 45.16 57.2198 45.16C57.0298 45.16 56.8298 45.16 56.6298 45.16C56.4298 45.16 56.2298 45.16 56.0298 45.16C55.6098 45.16 55.1898 45.16 54.7698 45.16C54.1198 45.16 53.4798 45.16 52.8298 45.16C52.4198 45.16 52.0098 45.16 51.6098 45.16C51.3198 45.16 51.3198 45.16 51.0198 45.16C50.8398 45.16 50.6598 45.16 50.4798 45.16C50.3198 45.16 50.1598 45.16 49.9998 45.16C49.5998 45.13 49.5998 45.13 49.2098 45.36Z" fill="#63BC46"/>
<path d="M40.4201 14.98C40.7901 15 40.7901 15 41.2201 15.18C41.5801 15.66 41.5801 15.66 41.9401 16.3C42.0001 16.41 42.0701 16.53 42.1401 16.64C42.3501 17 42.5501 17.36 42.7501 17.73C42.8901 17.97 43.0201 18.21 43.1601 18.45C44.2401 20.35 44.2401 20.35 44.6201 21.37C44.9401 21.25 44.9401 21.25 45.2601 21.13C51.3601 18.87 57.3601 19.06 63.4101 21.37C63.4601 21.23 63.5101 21.09 63.5701 20.95C63.9901 19.95 64.5401 19.03 65.0801 18.09C65.2201 17.85 65.3601 17.6 65.4901 17.36C65.6901 17.01 65.8901 16.65 66.0901 16.3C66.2101 16.09 66.3301 15.88 66.4501 15.66C66.8101 15.18 66.8101 15.18 67.2501 15.01C67.3601 15 67.4801 14.99 67.6001 14.98C67.7401 15.31 67.7401 15.31 67.8001 15.78C67.5801 16.29 67.5801 16.29 67.2401 16.86C67.1201 17.07 66.9901 17.27 66.8701 17.49C66.7401 17.71 66.6101 17.92 66.4701 18.14C66.2101 18.57 65.9501 19 65.7001 19.42C65.5201 19.72 65.5201 19.72 65.3301 20.03C64.9401 20.67 64.5701 21.33 64.2001 21.98C64.3701 22.03 64.5501 22.08 64.7201 22.13C68.6401 23.57 71.8001 27.57 73.5901 31.17C74.7401 33.68 75.1901 36 75.1901 38.76C61.2101 38.76 47.2301 38.76 32.8301 38.76C32.8301 36.18 32.8301 36.18 33.1401 34.93C33.1801 34.79 33.2101 34.64 33.2501 34.5C34.6601 29.08 38.1901 25.15 42.8901 22.28C43.4301 21.99 43.4301 21.99 43.8301 21.99C43.7401 21.83 43.6401 21.66 43.5401 21.5C43.1901 20.89 42.8301 20.28 42.4801 19.67C42.3301 19.41 42.1801 19.14 42.0201 18.88C41.8001 18.5 41.5801 18.12 41.3601 17.74C41.2301 17.51 41.1001 17.28 40.9601 17.05C40.6401 16.44 40.4201 15.86 40.2201 15.2C40.2901 15.12 40.3501 15.05 40.4201 14.98ZM42.5201 28.27C42.1001 28.96 41.9301 29.56 42.0201 30.37C42.3701 31.11 42.8401 31.5 43.6101 31.78C44.3701 31.76 44.7901 31.57 45.4201 31.17C45.9101 30.43 45.9801 29.83 45.8201 28.97C45.4701 28.33 45.4701 28.33 44.8201 27.97C43.9601 27.8 43.2801 27.82 42.5201 28.27ZM62.5901 28.37C62.1601 29.03 62.0501 29.41 62.1101 30.18C62.2801 30.87 62.6401 31.16 63.2101 31.57C63.9301 31.81 64.2501 31.84 64.9501 31.53C65.5901 31.04 65.5901 31.04 66.0101 30.37C66.0501 29.57 65.9201 28.96 65.5101 28.27C64.5101 27.68 63.5401 27.75 62.5901 28.37Z" fill="#63BC46"/>
<path d="M28.0802 41.0999C29.5602 42.3399 30.2002 43.4299 30.4302 45.3599C30.4602 45.9899 30.4602 46.6299 30.4602 47.2599C30.4602 47.5399 30.4602 47.5399 30.4602 47.8199C30.4602 48.4299 30.4602 49.0399 30.4702 49.6499C30.4702 49.9599 30.4702 49.9599 30.4702 50.2899C30.4702 51.3999 30.4702 52.5099 30.4802 53.6199C30.4802 54.7599 30.4902 55.8999 30.4902 57.0399C30.4902 57.9199 30.4902 58.7999 30.5002 59.6899C30.5002 60.1099 30.5002 60.5299 30.5002 60.9499C30.5302 66.6499 30.5302 66.6499 28.9902 68.2599C27.9702 69.2899 27.1802 69.6699 25.7302 69.8199C24.3702 69.6699 23.1502 69.1999 22.2302 68.1499C21.5502 67.1099 21.0102 66.1399 21.0002 64.8799C21.0002 64.6999 21.0002 64.5199 20.9902 64.3399C20.9902 64.1499 20.9902 63.9499 20.9902 63.7499C20.9902 63.4399 20.9902 63.4399 20.9902 63.1299C20.9902 62.4499 20.9802 61.7699 20.9802 61.0899C20.9802 60.8599 20.9802 60.6199 20.9802 60.3799C20.9702 59.1499 20.9702 57.9099 20.9702 56.6799C20.9702 55.6599 20.9602 54.6399 20.9502 53.6199C20.9402 52.3899 20.9402 51.1599 20.9302 49.9299C20.9302 49.4599 20.9302 48.9899 20.9202 48.5199C20.9102 47.8599 20.9102 47.2099 20.9202 46.5499C20.9202 46.3599 20.9102 46.1699 20.9102 45.9699C20.9302 44.3099 21.4602 43.0299 22.5502 41.7899C22.7102 41.6499 22.8702 41.5199 23.0402 41.3799C23.1602 41.2699 23.2802 41.1599 23.4002 41.0399C24.9502 40.0899 26.5302 40.2899 28.0802 41.0999Z" fill="#63BC46"/>
<path d="M85.2593 41.57C86.2393 42.45 86.8593 43.54 87.0593 44.86C87.0893 45.41 87.0893 45.96 87.0893 46.52C87.0893 46.73 87.0893 46.94 87.0893 47.15C87.0893 47.83 87.0893 48.52 87.0893 49.2C87.0893 49.68 87.0893 50.15 87.0893 50.63C87.0893 51.63 87.0893 52.63 87.0893 53.63C87.0893 54.91 87.0893 56.19 87.0893 57.46C87.0893 58.45 87.0893 59.43 87.0893 60.42C87.0893 60.89 87.0893 61.36 87.0893 61.83C87.0893 62.49 87.0893 63.15 87.0793 63.81C87.0793 64 87.0793 64.2 87.0793 64.4C87.0593 66.2 86.4293 67.46 85.1693 68.75C83.9993 69.57 82.9993 69.87 81.5693 69.75C80.2393 69.36 79.1993 68.66 78.3693 67.55C77.5993 66.08 77.5393 64.51 77.5393 62.89C77.5393 62.71 77.5393 62.52 77.5393 62.33C77.5393 61.72 77.5393 61.12 77.5393 60.51C77.5393 60.09 77.5393 59.66 77.5393 59.24C77.5393 58.35 77.5393 57.46 77.5393 56.58C77.5393 55.45 77.5393 54.31 77.5293 53.18C77.5293 52.31 77.5293 51.43 77.5293 50.56C77.5293 50.14 77.5293 49.72 77.5293 49.31C77.5293 48.72 77.5293 48.14 77.5293 47.55C77.5293 47.38 77.5293 47.21 77.5293 47.03C77.5393 45.02 77.8193 43.16 79.2793 41.67C81.1593 40.03 83.3493 39.96 85.2593 41.57Z" fill="#63BC46"/>
</g>
<defs>
<clipPath id="clip0_117_965">
<rect width="68" height="79" fill="white" transform="translate(20 14)"/>
</clipPath>
</defs>
</svg>
