<svg width="108" height="108" viewBox="0 0 108 108" fill="none" xmlns="http://www.w3.org/2000/svg">
<circle cx="54" cy="54" r="53" fill="white" stroke="#785EA2" stroke-width="2"/>
<g clip-path="url(#clip0_117_818)">
<path d="M33.771 29.4028C33.9905 29.4022 33.9905 29.4022 34.2145 29.4016C34.3743 29.4016 34.5342 29.4017 34.6989 29.4018C34.9547 29.4014 34.9547 29.4014 35.2156 29.4009C35.6886 29.4001 36.1615 29.3998 36.6344 29.3998C37.1446 29.3996 37.6549 29.3988 38.1651 29.3981C39.2807 29.3967 40.3962 29.396 41.5117 29.3956C42.2085 29.3953 42.9053 29.3948 43.6022 29.3943C45.532 29.3931 47.462 29.392 49.3919 29.3916C49.5154 29.3916 49.6389 29.3916 49.7661 29.3916C49.8899 29.3915 50.0136 29.3915 50.1412 29.3915C50.392 29.3914 50.6428 29.3914 50.8936 29.3914C51.018 29.3913 51.1425 29.3913 51.2706 29.3913C53.286 29.3909 55.3014 29.389 57.3167 29.3866C59.3867 29.3841 61.4568 29.3828 63.5269 29.3827C64.6887 29.3826 65.8506 29.382 67.0125 29.3801C68.002 29.3784 68.9914 29.3779 69.9809 29.3788C70.4854 29.3792 70.9899 29.3791 71.4945 29.3776C72.0423 29.376 72.5901 29.3769 73.138 29.378C73.2962 29.3771 73.4545 29.3763 73.6175 29.3754C75.1211 29.3824 76.3129 29.6021 77.4378 30.3614C78.6246 31.2669 78.6511 32.3126 78.6419 33.508C78.6426 33.6787 78.6436 33.8494 78.6448 34.0201C78.6475 34.4875 78.6465 34.9549 78.6451 35.4224C78.6441 35.9271 78.6464 36.4319 78.6482 36.9366C78.6512 37.9248 78.6512 38.913 78.6501 39.9011C78.6492 40.7044 78.6493 41.5077 78.6502 42.3109C78.6504 42.4253 78.6505 42.5397 78.6506 42.6575C78.6509 42.8898 78.6512 43.1221 78.6514 43.3545C78.6538 45.5327 78.6525 47.711 78.6502 49.8893C78.6481 51.8817 78.6502 53.8741 78.6543 55.8664C78.6584 57.9129 78.6599 59.9593 78.6586 62.0057C78.6585 62.2372 78.6583 62.4687 78.6581 62.7003C78.6581 62.8142 78.658 62.928 78.658 63.0455C78.6577 63.8476 78.6591 64.6496 78.6611 65.4517C78.6636 66.4295 78.6636 67.4072 78.6604 68.385C78.6588 68.8837 78.6583 69.3824 78.661 69.8811C78.6633 70.338 78.6624 70.7948 78.659 71.2517C78.6583 71.4167 78.6588 71.5816 78.6606 71.7466C78.6719 72.8547 78.5178 73.7001 77.4936 74.5494C77.3731 74.624 77.2526 74.6985 77.1284 74.7753C77.0069 74.8524 76.8852 74.9293 76.76 75.0087C76.213 75.3242 75.8631 75.3025 75.1752 75.2937C74.4759 75.2937 74.183 75.4956 73.6638 75.8055C73.5799 75.8538 73.4959 75.9021 73.4094 75.9519C72.9523 76.2092 72.9523 76.2092 72.6298 76.5535C72.6414 76.6509 72.6531 76.7484 72.6651 76.8487C72.6085 77.3847 72.063 77.613 71.5481 77.9626C71.4209 78.0432 71.2937 78.1239 71.1626 78.2069C71.036 78.2887 70.9096 78.3704 70.7792 78.4547C70.2818 78.6942 69.9702 78.7601 69.3772 78.7581C68.9646 78.5969 68.9646 78.5969 68.5288 78.3382C68.3438 78.2333 68.1587 78.1284 67.9736 78.0237C67.7667 77.9034 67.5599 77.783 67.3533 77.6624C67.1267 77.5308 66.9 77.3993 66.6733 77.2679C66.5014 77.1681 66.5014 77.1681 66.3259 77.0664C64.8578 76.2179 63.3739 75.3845 61.8824 74.5588C61.2938 74.8441 60.7323 75.144 60.1766 75.4643C60.0135 75.558 59.8503 75.6519 59.6872 75.7456C59.605 75.7929 59.5228 75.8403 59.4382 75.889C58.9931 76.145 58.5461 76.3988 58.0993 76.6532C57.6292 76.9214 57.1617 77.1919 56.6954 77.4638C56.5812 77.5303 56.4669 77.5968 56.3492 77.6653C56.1235 77.7967 55.8981 77.9284 55.6731 78.0605C55.5695 78.1207 55.4659 78.1809 55.3592 78.243C55.2672 78.2968 55.1752 78.3506 55.0805 78.4061C54.6472 78.6351 54.3754 78.7624 53.8357 78.7446C53.3238 78.6377 53.0273 78.4843 52.6111 78.2398C52.5386 78.1978 52.4661 78.1558 52.3914 78.1126C52.238 78.0237 52.0851 77.9343 51.9326 77.8444C51.6306 77.6671 51.3249 77.4935 51.0191 77.3199C50.7879 77.1885 50.5573 77.0567 50.3269 76.9246C49.866 76.6605 49.4047 76.397 48.9431 76.1335C48.7923 76.0474 48.6415 75.9613 48.4907 75.8752C48.4152 75.8321 48.3397 75.7889 48.2619 75.7445C47.2237 75.1516 47.2237 75.1516 46.1856 74.5588C45.6312 74.7941 45.1337 75.0616 44.6301 75.3527C44.4666 75.4469 44.3031 75.5411 44.1396 75.6353C44.0151 75.7072 44.0151 75.7072 43.8882 75.7805C43.5003 76.0043 43.1106 76.2264 42.721 76.4485C42.2556 76.7139 41.7907 76.9797 41.3273 77.2469C41.0188 77.4248 40.7091 77.6016 40.3982 77.7772C40.1196 77.9348 39.8428 78.0944 39.5685 78.2561C39.448 78.3243 39.3275 78.3926 39.2034 78.4629C39.1002 78.5228 38.997 78.5827 38.8907 78.6445C38.3884 78.8116 38.0863 78.7582 37.5594 78.6531C37.2324 78.4962 36.9594 78.3471 36.6668 78.161C36.4938 78.0556 36.3207 77.9504 36.1475 77.8453C36.0104 77.761 36.0104 77.7609 35.8705 77.675C35.3543 77.3614 34.8256 77.0599 34.2981 76.7569C34.1902 76.6945 34.0822 76.6322 33.971 76.5679C33.4052 76.2411 32.8374 75.9167 32.2664 75.5949C31.9072 75.3918 31.5512 75.1856 31.1959 74.9787C31.0719 74.9069 30.948 74.835 30.8203 74.761C30.6518 74.6577 30.6518 74.6577 30.48 74.5522C30.385 74.4948 30.2901 74.4372 30.1922 74.378C29.4225 73.6939 29.2747 72.9639 29.2867 72.0981C29.2859 71.9916 29.2851 71.8852 29.2843 71.7755C29.2824 71.4208 29.2845 71.0661 29.2866 70.7114C29.2861 70.4563 29.2853 70.2013 29.2843 69.9461C29.2825 69.3266 29.2834 68.7071 29.2855 68.0876C29.2879 67.3659 29.2874 66.6443 29.2869 65.9227C29.2861 64.6356 29.2881 63.3485 29.2916 62.0614C29.2949 60.8122 29.2959 59.5632 29.2945 58.3141C29.2929 56.953 29.2926 55.5919 29.2946 54.2309C29.2948 54.0859 29.295 53.9408 29.2953 53.7958C29.2954 53.7245 29.2955 53.6531 29.2956 53.5796C29.2963 53.0764 29.296 52.5733 29.2954 52.0701C29.2946 51.3937 29.2961 50.7173 29.2992 50.0409C29.3 49.7922 29.3001 49.5434 29.2994 49.2947C29.2985 48.9563 29.3003 48.6179 29.3027 48.2795C29.3019 48.1801 29.301 48.0808 29.3001 47.9784C29.3013 47.888 29.3025 47.7977 29.3038 47.7046C29.3039 47.6264 29.304 47.5483 29.3042 47.4678C29.3733 47.2032 29.4985 47.1129 29.7818 46.9485C29.9218 46.9139 30.0618 46.8793 30.206 46.8436C30.2527 46.1161 30.2993 45.3885 30.3474 44.639C30.1141 44.6043 29.8808 44.5697 29.6404 44.534C29.1727 44.0132 29.3054 43.4201 29.3045 42.8084C29.301 42.6781 29.2976 42.5478 29.294 42.4136C29.2935 42.2885 29.2929 42.1634 29.2924 42.0345C29.2912 41.92 29.29 41.8054 29.2888 41.6874C29.3735 41.3143 29.5191 41.1888 29.9232 40.9646C30.0632 40.9646 30.2032 40.9646 30.3474 40.9646C30.3442 40.6035 30.3333 40.2429 30.3209 39.8819C30.3197 39.7282 30.3197 39.7282 30.3184 39.5713C30.3068 39.2912 30.2897 39.0334 30.206 38.76C29.8785 38.5279 29.8785 38.5279 29.499 38.445C29.2498 38.2601 29.3356 37.9966 29.3325 37.7456C29.3307 37.6184 29.3289 37.4911 29.327 37.36C29.3259 37.2197 29.3248 37.0795 29.3238 36.9392C29.3233 36.8687 29.3227 36.7981 29.3221 36.7255C29.3191 36.3513 29.3171 35.9772 29.3158 35.6031C29.3142 35.2185 29.3094 34.8339 29.3038 34.4493C29.3 34.1522 29.2989 33.8552 29.2984 33.5581C29.2974 33.348 29.2936 33.138 29.2898 32.9279C29.2933 31.8266 29.6066 31.0481 30.6214 30.2347C31.5292 29.6488 32.5846 29.404 33.771 29.4028Z" fill="#EBEAFC"/>
<path d="M58.9507 44.3323C61.0562 45.4597 62.3308 46.9002 62.9534 48.7706C63.3455 50.6124 62.7502 52.4463 61.3106 53.9725C59.714 55.4944 57.6476 56.3696 55.0934 56.7119C52.5916 56.9027 50.1801 56.3595 48.1995 55.2159C46.3357 54.0234 45.0428 52.3528 44.8576 50.5069C44.7468 48.5657 45.5634 46.8306 47.3157 45.3739C50.3845 42.9771 55.1934 42.5635 58.9507 44.3323Z" fill="#F9C86F"/>
<path d="M33.7703 29.4028C33.9898 29.4022 33.9898 29.4022 34.2137 29.4016C34.3736 29.4016 34.5334 29.4017 34.6981 29.4018C34.9539 29.4014 34.9539 29.4014 35.2149 29.4009C35.6878 29.4001 36.1607 29.3998 36.6337 29.3998C37.1439 29.3996 37.6542 29.3988 38.1643 29.3981C39.2799 29.3967 40.3955 29.396 41.511 29.3956C42.2078 29.3953 42.9046 29.3948 43.6014 29.3943C45.5313 29.3931 47.4612 29.392 49.3911 29.3916C49.5146 29.3916 49.6381 29.3916 49.7653 29.3916C49.8891 29.3915 50.0129 29.3915 50.1405 29.3915C50.3913 29.3914 50.6421 29.3914 50.8929 29.3914C51.0172 29.3913 51.1417 29.3913 51.2698 29.3913C53.2852 29.3909 55.3006 29.389 57.3159 29.3866C59.386 29.3841 61.456 29.3828 63.5261 29.3827C64.688 29.3826 65.8498 29.382 67.0117 29.3801C68.0012 29.3784 68.9907 29.3779 69.9801 29.3788C70.4847 29.3792 70.9892 29.3791 71.4937 29.3776C72.0416 29.376 72.5893 29.3769 73.1372 29.378C73.2955 29.3771 73.4537 29.3763 73.6167 29.3754C75.1203 29.3824 76.3121 29.6021 77.437 30.3614C78.6238 31.2669 78.6503 32.3126 78.6411 33.508C78.6418 33.6787 78.6428 33.8494 78.644 34.02C78.6467 34.4875 78.6458 34.9549 78.6443 35.4224C78.6434 35.9271 78.6456 36.4319 78.6474 36.9366C78.6505 37.9248 78.6505 38.913 78.6493 39.9011C78.6484 40.7044 78.6486 41.5077 78.6495 42.3109C78.6497 42.4253 78.6498 42.5397 78.6499 42.6575C78.6501 42.8898 78.6504 43.1221 78.6507 43.3545C78.653 45.5327 78.6518 47.711 78.6494 49.8893C78.6473 51.8817 78.6494 53.8741 78.6535 55.8664C78.6576 57.9129 78.6592 59.9593 78.6578 62.0057C78.6577 62.2372 78.6576 62.4687 78.6574 62.7003C78.6574 62.8142 78.6572 62.928 78.6572 63.0455C78.6569 63.8475 78.6583 64.6496 78.6603 65.4517C78.6628 66.4295 78.6628 67.4072 78.6596 68.385C78.658 68.8837 78.6575 69.3824 78.6602 69.8811C78.6625 70.338 78.6617 70.7948 78.6582 71.2517C78.6575 71.4167 78.658 71.5816 78.6598 71.7466C78.6711 72.8547 78.5171 73.7 77.4928 74.5494C77.3723 74.624 77.2518 74.6985 77.1277 74.7753C77.0061 74.8524 76.8845 74.9293 76.7592 75.0087C76.22 75.3198 75.8579 75.3382 75.1744 75.2937C74.798 75.0684 74.7544 74.8861 74.6353 74.5392C74.7971 73.9755 75.2359 73.768 75.8273 73.4159C76.2846 73.1148 76.4307 72.9172 76.4829 72.4622C76.4831 72.3393 76.4833 72.2163 76.4835 72.0897C76.4842 71.9864 76.4842 71.9864 76.485 71.881C76.4863 71.6491 76.4856 71.4173 76.4849 71.1855C76.4855 71.018 76.4861 70.8505 76.4869 70.683C76.4886 70.2219 76.4885 69.7609 76.4882 69.2998C76.4882 68.8029 76.4897 68.3059 76.4911 67.809C76.4934 66.8351 76.4942 65.8613 76.4943 64.8874C76.4945 64.096 76.4951 63.3045 76.4959 62.5132C76.4985 60.2706 76.4998 58.028 76.4995 55.7854C76.4995 55.6645 76.4995 55.5435 76.4995 55.4189C76.4995 55.2372 76.4995 55.2372 76.4995 55.0519C76.4993 53.0887 76.5021 51.1256 76.5061 49.1624C76.5101 47.1478 76.5121 45.1332 76.5118 43.1185C76.5117 41.9871 76.5126 40.8555 76.5156 39.724C76.5181 38.7607 76.5188 37.7974 76.5168 36.8341C76.5159 36.3424 76.5159 35.8508 76.5184 35.3592C76.5206 34.9092 76.5201 34.4593 76.5177 34.0094C76.5172 33.8465 76.5178 33.6835 76.5193 33.5206C76.5214 33.2994 76.5198 33.0782 76.5175 32.8569C76.5175 32.734 76.5176 32.611 76.5177 32.4844C76.4137 31.9858 76.0953 31.6558 75.5898 31.3259C75.1159 31.1103 74.7284 31.083 74.1858 31.0822C73.9659 31.0815 73.9659 31.0815 73.7415 31.0808C73.4991 31.0808 73.4991 31.0808 73.2518 31.0808C72.9949 31.0803 72.9949 31.0803 72.7328 31.0797C72.2566 31.0787 71.7803 31.0782 71.304 31.0779C70.7907 31.0775 70.2774 31.0765 69.764 31.0756C68.524 31.0735 67.2841 31.0725 66.0441 31.0715C65.4603 31.0711 64.8766 31.0705 64.2929 31.07C62.3527 31.0682 60.4126 31.0667 58.4725 31.0659C57.969 31.0657 57.4656 31.0655 56.9621 31.0653C56.8369 31.0652 56.7117 31.0652 56.5829 31.0651C54.5547 31.0643 52.5266 31.0616 50.4985 31.0582C48.417 31.0547 46.3355 31.0528 44.2539 31.0525C43.0849 31.0523 41.9159 31.0514 40.7469 31.0487C39.7516 31.0464 38.7563 31.0455 37.7609 31.0466C37.253 31.047 36.7451 31.0468 36.2372 31.0448C35.6867 31.0426 35.1363 31.0437 34.5857 31.0451C34.4251 31.0439 34.2644 31.0428 34.0989 31.0416C33.2258 31.0469 32.7066 31.0808 32.0436 31.5162C31.2872 32.0977 31.4022 32.7646 31.4117 33.5248C31.4107 33.6581 31.4097 33.7913 31.4087 33.9286C31.4055 34.3537 31.4058 34.7787 31.4073 35.2037C31.4091 35.7639 31.407 36.324 31.4028 36.8842C31.4044 37.0133 31.406 37.1423 31.4077 37.2753C31.4067 37.3951 31.4058 37.515 31.4048 37.6384C31.4052 37.7438 31.4057 37.8491 31.4061 37.9576C31.3177 38.31 31.14 38.4318 30.7709 38.655C30.4969 38.7534 30.4969 38.7534 30.2052 38.76C29.888 38.6395 29.61 38.528 29.3568 38.34C29.3405 38.1422 29.3342 37.9439 29.3317 37.7456C29.3299 37.6184 29.3281 37.4911 29.3262 37.36C29.3251 37.2197 29.324 37.0795 29.3231 36.9392C29.3225 36.8687 29.3219 36.7981 29.3213 36.7255C29.3184 36.3513 29.3164 35.9772 29.315 35.6031C29.3135 35.2185 29.3086 34.8339 29.303 34.4493C29.2993 34.1522 29.2981 33.8552 29.2976 33.5581C29.2966 33.348 29.2929 33.138 29.2891 32.9279C29.2926 31.8266 29.6058 31.0481 30.6206 30.2347C31.5284 29.6488 32.5838 29.404 33.7703 29.4028Z" fill="#010101"/>
<path d="M30.5595 46.9222C30.9083 47.0517 31.0935 47.1462 31.3373 47.3684C31.3904 47.569 31.3904 47.569 31.3905 47.8006C31.3916 47.8889 31.3927 47.9773 31.3938 48.0684C31.3928 48.1655 31.3918 48.2626 31.3908 48.3626C31.3915 48.4657 31.3921 48.5688 31.3928 48.6751C31.3944 49.0224 31.3931 49.3695 31.3917 49.7168C31.3923 49.965 31.3931 50.2133 31.394 50.4616C31.3959 51.067 31.3959 51.6724 31.3951 52.2778C31.3944 52.9828 31.3964 53.6878 31.3987 54.3928C31.4028 55.6509 31.4052 56.9091 31.4064 58.1672C31.4065 58.2426 31.4066 58.3179 31.4066 58.3955C31.4071 58.93 31.4076 59.4645 31.408 59.9991C31.4085 60.6092 31.409 61.2192 31.4096 61.8293C31.4097 61.9044 31.4097 61.9795 31.4098 62.0569C31.4111 63.31 31.414 64.5629 31.418 65.8159C31.4207 66.6576 31.4212 67.4993 31.4201 68.341C31.4199 68.8645 31.4215 69.388 31.4235 69.9116C31.424 70.1546 31.4239 70.3976 31.4229 70.6406C31.4217 70.9721 31.4231 71.3035 31.4252 71.635C31.4242 71.7314 31.4232 71.8277 31.4222 71.9271C31.4303 72.5972 31.5747 73.0557 32.2361 73.5459C32.3682 73.6247 32.5004 73.7034 32.6365 73.7845C32.7099 73.8286 32.7833 73.8727 32.8589 73.918C33.5598 74.3347 34.2796 74.7335 35.001 75.1302C35.4827 75.3952 35.9591 75.6634 36.427 75.9416C36.5166 75.9948 36.6061 76.048 36.6983 76.1028C36.8674 76.2038 37.0359 76.3054 37.2036 76.4076C37.7448 76.76 37.7448 76.76 38.4079 76.8684C38.7372 76.7087 39.0201 76.5506 39.3183 76.3632C39.496 76.2553 39.674 76.1476 39.8519 76.04C39.9415 75.9851 40.0312 75.9303 40.1235 75.8737C40.5144 75.6368 40.9144 75.4092 41.3157 75.1821C41.4675 75.0958 41.6192 75.0093 41.7709 74.9229C41.8458 74.8803 41.9207 74.8377 41.9979 74.7937C42.3066 74.6179 42.6146 74.4413 42.9226 74.2647C43.1513 74.1339 43.3808 74.0039 43.6104 73.8739C43.9205 73.6979 44.225 73.5177 44.5273 73.3343C44.6765 73.2459 44.8256 73.1577 44.9748 73.0693C45.1714 72.9502 45.1714 72.9502 45.3719 72.8286C45.7614 72.6691 45.7614 72.6691 46.1607 72.6551C46.8069 72.8263 47.2678 73.1158 47.7942 73.4368C48.0212 73.5717 48.2485 73.7065 48.4759 73.8411C48.5896 73.909 48.7034 73.9768 48.8207 74.0467C49.3132 74.3369 49.8167 74.6155 50.3219 74.8934C50.8789 75.2005 51.432 75.5098 51.9741 75.8313C52.0635 75.8842 52.1528 75.9372 52.2449 75.9918C52.4128 76.0918 52.5802 76.1923 52.7468 76.2935C53.3644 76.6813 53.3644 76.6813 54.1047 76.8684C54.5111 76.7173 54.8439 76.5062 55.1918 76.2909C55.2966 76.2288 55.4014 76.1666 55.5094 76.1026C55.7315 75.9708 55.9529 75.8382 56.1736 75.705C56.8106 75.3222 57.4606 74.9518 58.1085 74.5792C58.2654 74.4889 58.2654 74.4889 58.4255 74.3968C58.5813 74.3072 58.5813 74.3072 58.7402 74.2158C59.0563 74.0326 59.3696 73.847 59.6828 73.6611C59.8827 73.5447 60.0827 73.4284 60.2827 73.3121C60.3725 73.2577 60.4622 73.2033 60.5548 73.1472C60.9987 72.8923 61.2604 72.7806 61.8266 72.715C62.3965 72.7851 62.6558 72.9112 63.1021 73.1809C63.1739 73.2233 63.2457 73.2658 63.3198 73.3095C63.4719 73.3993 63.6233 73.4899 63.774 73.5811C64.0733 73.7608 64.3788 73.9342 64.6849 74.1076C64.9164 74.2386 65.147 74.3705 65.3774 74.5026C65.6854 74.6791 65.9936 74.8555 66.3021 75.0316C66.3779 75.075 66.4538 75.1183 66.5319 75.163C66.6838 75.2496 66.836 75.3359 66.9884 75.4221C67.3923 75.6509 67.7891 75.8841 68.1797 76.1253C68.2618 76.175 68.3439 76.2247 68.4285 76.2758C68.5862 76.3713 68.7423 76.4683 68.8964 76.5669C69.1327 76.7155 69.1327 76.7155 69.5186 76.8684C70.0116 76.7906 70.3249 76.6152 70.703 76.3763C71.1142 76.1503 71.1991 76.1335 71.7459 76.1335C72.4197 76.2874 72.4197 76.2874 72.6298 76.5534C72.7004 76.8553 72.7004 76.8553 72.6298 77.1833C72.1748 77.5523 71.6748 77.8822 71.1626 78.2069C71.036 78.2887 70.9096 78.3704 70.7792 78.4546C70.2818 78.6942 69.9702 78.76 69.3772 78.758C68.9646 78.5969 68.9646 78.5969 68.5288 78.3381C68.3438 78.2332 68.1587 78.1284 67.9736 78.0236C67.7667 77.9034 67.5599 77.7829 67.3533 77.6623C67.1267 77.5308 66.9 77.3992 66.6733 77.2678C66.5014 77.1681 66.5014 77.1681 66.3259 77.0663C64.8578 76.2179 63.3739 75.3844 61.8824 74.5588C61.2938 74.844 60.7323 75.144 60.1766 75.4642C60.0135 75.558 59.8503 75.6518 59.6872 75.7456C59.605 75.7929 59.5228 75.8402 59.4382 75.889C58.9931 76.1449 58.5461 76.3988 58.0993 76.6531C57.6292 76.9214 57.1617 77.1919 56.6954 77.4638C56.5812 77.5303 56.4669 77.5968 56.3492 77.6653C56.1235 77.7967 55.8981 77.9284 55.6731 78.0604C55.5695 78.1206 55.4659 78.1809 55.3592 78.243C55.2672 78.2967 55.1752 78.3506 55.0805 78.406C54.6472 78.6351 54.3754 78.7623 53.8357 78.7445C53.3239 78.6377 53.0273 78.4843 52.6111 78.2397C52.5386 78.1977 52.4661 78.1558 52.3914 78.1126C52.238 78.0236 52.0851 77.9342 51.9326 77.8444C51.6306 77.6671 51.3249 77.4935 51.0191 77.3198C50.7879 77.1885 50.5573 77.0566 50.3269 76.9245C49.866 76.6605 49.4047 76.3969 48.9431 76.1335C48.7923 76.0474 48.6415 75.9613 48.4907 75.8751C48.4152 75.832 48.3397 75.7888 48.2619 75.7444C47.5698 75.3492 46.8777 74.954 46.1856 74.5588C45.6312 74.7941 45.1337 75.0615 44.6301 75.3527C44.4666 75.4469 44.3031 75.5411 44.1396 75.6353C44.0151 75.7071 44.0151 75.7071 43.8882 75.7805C43.5003 76.0042 43.1106 76.2263 42.721 76.4485C42.2556 76.7139 41.7907 76.9796 41.3273 77.2469C41.0188 77.4248 40.7091 77.6015 40.3982 77.7771C40.1196 77.9348 39.8428 78.0943 39.5685 78.2561C39.448 78.3243 39.3275 78.3925 39.2034 78.4628C39.1002 78.5227 38.997 78.5827 38.8907 78.6445C38.3884 78.8116 38.0863 78.7582 37.5594 78.653C37.2324 78.4962 36.9594 78.347 36.6668 78.1609C36.4938 78.0556 36.3207 77.9503 36.1475 77.8452C36.0104 77.7609 36.0104 77.7609 35.8705 77.6749C35.3543 77.3614 34.8256 77.0598 34.2981 76.7568C34.1902 76.6945 34.0822 76.6321 33.971 76.5679C33.4052 76.2411 32.8374 75.9166 32.2664 75.5948C31.9072 75.3917 31.5512 75.1856 31.1959 74.9787C31.0719 74.9068 30.948 74.835 30.8203 74.7609C30.6518 74.6576 30.6518 74.6576 30.48 74.5522C30.385 74.4947 30.2901 74.4372 30.1922 74.3779C29.4225 73.6938 29.2747 72.9639 29.2867 72.0981C29.2859 71.9916 29.2851 71.8851 29.2843 71.7755C29.2824 71.4207 29.2845 71.0661 29.2866 70.7114C29.2861 70.4563 29.2853 70.2012 29.2843 69.9461C29.2825 69.3266 29.2834 68.7071 29.2855 68.0875C29.2879 67.3659 29.2874 66.6443 29.2869 65.9227C29.2861 64.6356 29.2881 63.3484 29.2916 62.0613C29.2949 60.8122 29.2959 59.5631 29.2945 58.314C29.2929 56.953 29.2926 55.5919 29.2946 54.2308C29.2948 54.0858 29.295 53.9408 29.2953 53.7958C29.2954 53.7244 29.2955 53.653 29.2956 53.5795C29.2963 53.0764 29.296 52.5732 29.2954 52.0701C29.2946 51.3937 29.2961 50.7172 29.2992 50.0408C29.3 49.7921 29.3001 49.5434 29.2994 49.2947C29.2985 48.9562 29.3003 48.6179 29.3027 48.2794C29.3019 48.1801 29.301 48.0808 29.3001 47.9784C29.3013 47.888 29.3025 47.7977 29.3038 47.7045C29.3039 47.6264 29.304 47.5482 29.3042 47.4677C29.3733 47.2031 29.4985 47.1128 29.7818 46.9485C30.206 46.8435 30.206 46.8435 30.5595 46.9222Z" fill="#010101"/>
<path d="M58.9507 44.3323C61.0562 45.4597 62.3308 46.9002 62.9534 48.7706C63.3455 50.6124 62.7502 52.4463 61.3106 53.9725C59.714 55.4944 57.6476 56.3696 55.0934 56.7119C52.5916 56.9027 50.1801 56.3595 48.1995 55.2159C46.3357 54.0234 45.0428 52.3528 44.8576 50.5069C44.7468 48.5657 45.5634 46.8306 47.3157 45.3739C50.3845 42.9771 55.1934 42.5635 58.9507 44.3323ZM51.4166 45.0589C51.3028 45.0922 51.1888 45.1255 51.0714 45.1598C49.4591 45.688 48.1134 46.6735 47.4273 47.8795C47.2848 48.1624 47.1523 48.4446 47.0329 48.7332C47.0054 48.7997 46.9778 48.8661 46.9495 48.9346C46.5653 50.3825 47.0803 51.8305 48.1642 53.0375C49.2647 54.1689 50.8442 54.9218 52.6905 55.1999C54.9913 55.4296 56.925 54.9561 58.7734 53.9282C60.1563 53.0084 60.9561 51.5526 61.0559 50.2047C61.0824 49.444 60.9912 48.8101 60.6085 48.1034C60.5636 48.0184 60.5188 47.9334 60.4726 47.8458C59.7142 46.5762 58.3699 45.6615 56.6534 45.1418C56.2769 45.0381 55.8995 44.9409 55.5176 44.8489C55.3776 44.8143 55.2376 44.7797 55.0934 44.744C53.8127 44.6878 52.6165 44.6844 51.4166 45.0589Z" fill="#040404"/>
<path d="M52.6461 33.56C52.803 33.5594 52.803 33.5594 52.963 33.5588C53.1837 33.5585 53.4043 33.5593 53.6248 33.561C53.962 33.5633 54.2987 33.5611 54.6359 33.5584C54.8506 33.5586 55.0653 33.5592 55.28 33.56C55.3804 33.5592 55.4809 33.5583 55.5845 33.5574C56.0626 33.5641 56.3274 33.5943 56.7179 33.8059C56.9327 34.0357 56.9327 34.0357 56.9327 34.4097C56.7748 34.8126 56.7014 34.8833 56.2256 35.0855C55.8629 35.1213 55.8628 35.1213 55.459 35.1163C55.2416 35.1148 55.2416 35.1148 55.0198 35.1132C54.8694 35.1106 54.719 35.1079 54.5641 35.1052C54.3352 35.1031 54.3352 35.1031 54.1017 35.1009C53.7255 35.0972 53.3493 35.0916 52.9732 35.0855C52.9732 35.5705 52.9732 36.0555 52.9732 36.5553C53.1998 36.5492 53.4263 36.5431 53.6598 36.5368C53.9583 36.5319 54.2567 36.5272 54.5552 36.5225C54.7044 36.5181 54.8537 36.5137 55.0074 36.5091C56.113 36.4962 56.113 36.4962 56.6836 36.7956C56.9327 37.0802 56.9327 37.0802 56.9327 37.4673C56.7913 37.8151 56.7913 37.8151 56.367 38.0251C56.0074 38.0489 56.0074 38.0489 55.5832 38.0455C55.3556 38.0445 55.3556 38.0445 55.1233 38.0434C54.965 38.0417 54.8067 38.0399 54.6436 38.0381C54.4837 38.0372 54.3237 38.0362 54.1589 38.0353C53.7637 38.0328 53.3684 38.0291 52.9732 38.0251C52.9732 38.5447 52.9732 39.0644 52.9732 39.5997C53.313 39.5925 53.313 39.5925 53.6598 39.585C53.9583 39.581 54.2567 39.5772 54.5552 39.5735C54.779 39.5682 54.779 39.5682 55.0074 39.5628C56.1142 39.5525 56.1142 39.5525 56.678 39.7917C56.9327 40.0197 56.9327 40.0197 57.0211 40.3346C56.9327 40.6496 56.9327 40.6496 56.6405 40.8755C56.1362 41.1113 55.7338 41.1321 55.1557 41.1289C55.0545 41.1296 54.9532 41.1302 54.8489 41.1309C54.6358 41.1317 54.4227 41.1313 54.2096 41.13C53.8839 41.1286 53.5587 41.1322 53.233 41.1362C53.0254 41.1362 52.8179 41.136 52.6103 41.1355C52.5133 41.1369 52.4164 41.1383 52.3165 41.1397C51.8246 41.1326 51.6055 41.1036 51.2507 40.8436C50.9497 40.4938 50.9219 40.3059 50.9202 39.8942C50.9184 39.7652 50.9166 39.6363 50.9148 39.5035C50.9159 39.3652 50.9171 39.2268 50.9183 39.0842C50.9179 38.9401 50.9174 38.7959 50.9166 38.6518C50.9158 38.3502 50.917 38.0487 50.9196 37.7471C50.9229 37.361 50.921 36.9751 50.9176 36.5889C50.9156 36.2915 50.9162 35.994 50.9177 35.6965C50.9183 35.4851 50.9166 35.2736 50.9148 35.0622C50.9166 34.9336 50.9183 34.805 50.9202 34.6725C50.9206 34.5594 50.9211 34.4463 50.9216 34.3298C51.0976 33.609 51.7868 33.5527 52.6461 33.56Z" fill="#030303"/>
<path d="M60.7058 33.56C60.8627 33.5594 60.8627 33.5594 61.0227 33.5588C61.2433 33.5585 61.4639 33.5593 61.6845 33.561C62.0217 33.5633 62.3584 33.5611 62.6955 33.5584C62.9102 33.5586 63.1249 33.5592 63.3396 33.56C63.4401 33.5592 63.5406 33.5583 63.6441 33.5574C64.1222 33.5641 64.3871 33.5943 64.7775 33.8059C64.9924 34.0357 64.9924 34.0357 64.9924 34.4097C64.8345 34.8126 64.7611 34.8833 64.2853 35.0855C63.9225 35.1213 63.9225 35.1213 63.5186 35.1163C63.3012 35.1148 63.3012 35.1148 63.0795 35.1132C62.929 35.1106 62.7787 35.1079 62.6237 35.1052C62.3948 35.1031 62.3948 35.1031 62.1614 35.1009C61.7851 35.0972 61.409 35.0916 61.0329 35.0855C61.0329 35.5705 61.0329 36.0555 61.0329 36.5553C61.2594 36.5492 61.486 36.5431 61.7195 36.5368C62.0179 36.5319 62.3164 36.5272 62.6149 36.5225C62.7641 36.5181 62.9133 36.5137 63.067 36.5091C64.1772 36.4962 64.1772 36.4962 64.7383 36.803C64.9924 37.0802 64.9924 37.0802 65.0719 37.3492C64.9659 37.6903 64.7914 37.8063 64.4267 38.0251C64.0509 38.0727 64.0509 38.0727 63.6291 38.066C63.4021 38.064 63.4021 38.064 63.1706 38.0619C63.0135 38.0584 62.8563 38.0549 62.6944 38.0513C62.4554 38.0484 62.4554 38.0484 62.2116 38.0455C61.8187 38.0406 61.4257 38.0331 61.0329 38.0251C61.0329 38.5447 61.0329 39.0644 61.0329 39.5997C61.3727 39.5925 61.3727 39.5925 61.7195 39.585C62.0179 39.581 62.3164 39.5772 62.6149 39.5735C62.8387 39.5682 62.8387 39.5682 63.067 39.5628C64.1705 39.5525 64.1705 39.5525 64.7427 39.788C64.9924 40.0197 64.9924 40.0197 65.0012 40.3937C64.8329 40.7979 64.772 40.8717 64.2853 41.0695C63.9216 41.1026 63.5928 41.1186 63.2291 41.1187C63.1277 41.1195 63.0262 41.1203 62.9217 41.1212C62.7078 41.1223 62.4938 41.1226 62.2799 41.1221C61.953 41.122 61.6265 41.1263 61.2996 41.131C61.0914 41.1315 60.8831 41.1318 60.6749 41.1318C60.5775 41.1336 60.4801 41.1353 60.3798 41.137C59.8863 41.1318 59.6665 41.1045 59.3102 40.8436C59.0095 40.4939 58.9815 40.3059 58.9798 39.8942C58.9781 39.7652 58.9763 39.6363 58.9745 39.5035C58.9756 39.3652 58.9767 39.2268 58.9779 39.0842C58.9775 38.9401 58.977 38.7959 58.9763 38.6518C58.9754 38.3502 58.9767 38.0487 58.9793 37.7471C58.9825 37.361 58.9807 36.9751 58.9773 36.5889C58.9753 36.2915 58.9759 35.994 58.9774 35.6965C58.9779 35.4851 58.9762 35.2736 58.9745 35.0622C58.9762 34.9336 58.978 34.805 58.9798 34.6725C58.9803 34.5594 58.9808 34.4463 58.9812 34.3298C59.1573 33.609 59.8465 33.5527 60.7058 33.56Z" fill="#030303"/>
<path d="M38.1311 62.9827C38.2784 62.9818 38.4257 62.9809 38.5775 62.98C38.739 62.9801 38.9006 62.9802 39.067 62.9803C39.2372 62.9796 39.4074 62.9789 39.5827 62.9782C40.0496 62.9765 40.5166 62.9758 40.9834 62.9757C41.3732 62.9754 41.7629 62.9747 42.1527 62.974C43.072 62.9722 43.9915 62.9717 44.9109 62.9719C45.8596 62.972 46.8081 62.9698 47.7567 62.9665C48.5711 62.9637 49.3854 62.9626 50.1998 62.9627C50.6862 62.9628 51.1727 62.9622 51.6591 62.9599C52.2014 62.9575 52.7438 62.9585 53.2862 62.9598C53.4474 62.9586 53.6087 62.9574 53.7749 62.9562C53.9225 62.9571 54.0703 62.958 54.2225 62.9589C54.4148 62.9587 54.4148 62.9587 54.6111 62.9585C55.0673 63.0282 55.239 63.159 55.519 63.4307C55.519 63.8047 55.519 63.8047 55.3775 64.1656C54.9615 64.4648 54.6646 64.5201 54.0937 64.5219C53.9488 64.5232 53.8038 64.5243 53.6545 64.5256C53.4173 64.5251 53.4173 64.5251 53.1752 64.5246C53.008 64.5255 52.8407 64.5264 52.6685 64.5273C52.2104 64.5293 51.7522 64.5299 51.2941 64.5298C50.9114 64.5298 50.5287 64.5306 50.146 64.5315C49.243 64.5335 48.3401 64.5338 47.4371 64.5331C46.5061 64.5324 45.5751 64.5348 44.6441 64.5387C43.8443 64.5419 43.0445 64.5432 42.2446 64.5427C41.767 64.5425 41.2896 64.5431 40.8121 64.5456C40.2796 64.548 39.7472 64.547 39.2146 64.5451C39.0567 64.5465 38.8988 64.5479 38.7361 64.5493C37.6732 64.5407 37.6732 64.5407 37.1027 64.2382C36.8525 63.9556 36.8525 63.9556 36.8525 63.5685C37.0737 63.0248 37.4305 62.9846 38.1311 62.9827Z" fill="#050505"/>
<path d="M38.1411 58.9675C38.2873 58.9661 38.4333 58.9648 38.5839 58.9635C38.7434 58.9641 38.9029 58.9648 39.0672 58.9655C39.2358 58.9646 39.4044 58.9637 39.5781 58.9628C40.04 58.9608 40.5019 58.9607 40.9639 58.9617C41.3497 58.9622 41.7356 58.9614 42.1215 58.9607C43.0319 58.9589 43.9423 58.9593 44.8527 58.961C45.7915 58.9628 46.7302 58.9611 47.6689 58.9577C48.4753 58.9549 49.2818 58.9541 50.0882 58.9551C50.5697 58.9555 51.0511 58.9553 51.5325 58.9531C52.0695 58.9514 52.6063 58.9528 53.1432 58.9552C53.3025 58.954 53.4617 58.9528 53.6257 58.9515C54.6993 58.9613 54.6993 58.9613 55.2685 59.2676C55.5183 59.5464 55.5183 59.5464 55.5271 59.8745C55.3536 60.2231 55.2345 60.3038 54.8113 60.4912C54.4716 60.5312 54.4716 60.5312 54.0867 60.532C53.8673 60.5335 53.8673 60.5335 53.6433 60.5351C53.4836 60.5346 53.3239 60.5341 53.1593 60.5337C52.9905 60.5344 52.8216 60.5351 52.6477 60.5359C52.1852 60.5375 51.7227 60.5376 51.2602 60.537C50.874 60.5367 50.4877 60.5373 50.1015 60.538C49.1905 60.5394 48.2794 60.5393 47.3682 60.5381C46.4284 60.5368 45.4886 60.5383 44.5487 60.5412C43.7416 60.5435 42.9344 60.5442 42.1272 60.5436C41.6452 60.5432 41.1632 60.5435 40.6813 60.5453C40.144 60.5468 39.6068 60.5457 39.0695 60.5439C38.9097 60.5449 38.75 60.5459 38.5855 60.547C38.4391 60.546 38.2928 60.5449 38.1421 60.5439C37.9516 60.5438 37.9516 60.5438 37.7572 60.5438C37.3054 60.4739 37.1352 60.3364 36.8519 60.0714C36.7811 59.7564 36.7811 59.7564 36.8519 59.4414C37.2515 59.0678 37.5031 58.9689 38.1411 58.9675Z" fill="black"/>
<path d="M38.2734 66.8558C38.4174 66.8551 38.5613 66.8543 38.7096 66.8536C38.8667 66.8544 39.0237 66.8552 39.1856 66.856C39.3516 66.8556 39.5177 66.8552 39.6888 66.8548C40.1437 66.8541 40.5986 66.8548 41.0535 66.8562C41.5298 66.8574 42.0061 66.857 42.4824 66.8568C43.2822 66.8567 44.082 66.8578 44.8818 66.8598C45.8062 66.862 46.7306 66.8623 47.655 66.8617C48.5446 66.8611 49.4342 66.8617 50.3238 66.8629C50.7022 66.8634 51.0807 66.8635 51.4591 66.8633C51.9876 66.8632 52.5161 66.8645 53.0445 66.8662C53.2016 66.866 53.3587 66.8657 53.5205 66.8654C53.7364 66.8665 53.7364 66.8665 53.9567 66.8677C54.1441 66.868 54.1441 66.868 54.3353 66.8683C54.7038 66.8977 54.9257 66.9559 55.2362 67.1051C55.5424 67.446 55.597 67.5492 55.519 67.9449C55.2346 68.2091 55.0632 68.3478 54.6114 68.4177C54.4834 68.4178 54.3554 68.418 54.2234 68.4181C54.0022 68.4199 54.0022 68.4199 53.7764 68.4217C53.6154 68.4209 53.4543 68.42 53.2884 68.4191C53.1182 68.4199 52.948 68.4206 52.7727 68.4214C52.3063 68.4229 51.8401 68.4225 51.3738 68.4212C50.8856 68.4202 50.3974 68.4212 49.9092 68.4218C49.0895 68.4226 48.2697 68.4215 47.4499 68.4196C46.5024 68.4173 45.5548 68.418 44.6073 68.4203C43.7935 68.4222 42.9797 68.4225 42.1659 68.4214C41.68 68.4207 41.1941 68.4207 40.7082 68.422C40.1664 68.4235 39.6248 68.4215 39.0831 68.4191C38.922 68.42 38.761 68.4209 38.5951 68.4217C38.3738 68.4199 38.3738 68.4199 38.1481 68.4181C38.0201 68.418 37.892 68.4178 37.7601 68.4177C37.3046 68.3473 37.1324 68.2162 36.8525 67.9449C36.8525 67.5709 36.8525 67.5709 36.994 67.21C37.4093 66.9115 37.7035 66.8557 38.2734 66.8558Z" fill="#070707"/>
<path d="M54.3866 45.8987C54.7224 46.0562 54.7224 46.0562 54.9522 46.3187C54.9984 46.6082 54.9785 46.8651 54.9522 47.1585C55.0776 47.1499 55.203 47.1412 55.3322 47.1323C55.9136 47.1649 56.121 47.2576 56.5077 47.5784C56.6013 47.9486 56.5853 48.1225 56.3017 48.4363C55.7637 48.7235 55.2787 48.6739 54.634 48.6545C54.5152 48.6526 54.3963 48.6507 54.2739 48.6487C53.9814 48.6439 53.689 48.6363 53.3967 48.6282C53.3967 48.8361 53.3967 49.044 53.3967 49.2582C53.5212 49.2545 53.6457 49.2508 53.774 49.2471C53.9382 49.2442 54.1024 49.2414 54.2717 49.2385C54.4341 49.2348 54.5965 49.2311 54.7638 49.2274C55.4503 49.2722 55.7765 49.4552 56.2653 49.8032C56.5766 50.1817 56.5863 50.5013 56.5697 50.9313C56.5706 51.0038 56.5716 51.0763 56.5727 51.1509C56.5645 51.6449 56.4347 51.9894 56.0835 52.4076C55.6656 52.6403 55.4772 52.7226 54.9522 52.7226C54.958 52.8525 54.9639 52.9824 54.9699 53.1163C54.9699 53.4578 54.9461 53.697 54.6694 53.9823C54.2677 54.1315 53.9829 54.1203 53.5381 54.0873C53.2022 53.9364 53.2022 53.9364 52.9724 53.6674C52.9267 53.3492 52.9394 53.0411 52.9724 52.7226C52.7945 52.7312 52.6166 52.7399 52.4333 52.7488C51.8822 52.7474 51.8822 52.7474 51.5583 52.552C51.3778 52.2337 51.358 52.015 51.4169 51.6728C51.6411 51.4501 51.7628 51.3673 52.1359 51.322C52.2463 51.3237 52.3566 51.3253 52.4703 51.327C52.5901 51.3281 52.71 51.329 52.8335 51.3301C52.9581 51.3328 53.0827 51.3354 53.2111 51.3381C53.3373 51.3395 53.4635 51.341 53.5936 51.3424C53.9051 51.3461 54.2165 51.3513 54.528 51.3578C54.528 51.1499 54.528 50.9421 54.528 50.7279C54.4051 50.7328 54.2822 50.7376 54.1556 50.7427C52.8221 50.7737 52.8221 50.7737 52.177 50.5507C51.5675 50.1102 51.36 49.7546 51.3451 49.1333C51.3455 49.0554 51.3458 48.9775 51.3462 48.8973C51.3422 48.8198 51.3382 48.7423 51.334 48.6625C51.332 48.2402 51.388 47.9697 51.7456 47.633C52.1695 47.3367 52.3993 47.2833 52.9724 47.2635C52.9659 47.2002 52.9593 47.1368 52.9526 47.0716C52.9111 46.3905 52.9111 46.3905 53.2022 46.0497C53.6407 45.8526 53.8821 45.8363 54.3866 45.8987Z" fill="#030201"/>
<path d="M44.5849 33.56C44.7417 33.5594 44.7417 33.5594 44.9017 33.5588C45.1223 33.5585 45.343 33.5593 45.5635 33.561C45.9007 33.5633 46.2374 33.5611 46.5746 33.5584C46.7893 33.5586 47.0039 33.5592 47.2186 33.56C47.3191 33.5592 47.4196 33.5583 47.5231 33.5574C48.0013 33.5641 48.2661 33.5943 48.6565 33.8059C48.8714 34.0357 48.8714 34.0357 48.8714 34.4097C48.7135 34.8126 48.6401 34.8833 48.1643 35.0855C47.8015 35.1213 47.8015 35.1213 47.3977 35.1163C47.1802 35.1148 47.1802 35.1148 46.9585 35.1132C46.8081 35.1106 46.6577 35.1079 46.5028 35.1052C46.2739 35.1031 46.2739 35.1031 46.0404 35.1009C45.6642 35.0972 45.288 35.0916 44.9118 35.0855C44.9118 35.5705 44.9118 36.0555 44.9118 36.5553C45.1385 36.5492 45.3651 36.5431 45.5985 36.5368C45.897 36.5319 46.1954 36.5272 46.4939 36.5225C46.6431 36.5181 46.7923 36.5137 46.946 36.5091C48.0518 36.4962 48.0518 36.4962 48.6223 36.7956C48.8714 37.0802 48.8714 37.0802 48.8714 37.4673C48.73 37.8151 48.73 37.8151 48.3057 38.0251C47.946 38.0489 47.946 38.0489 47.5219 38.0455C47.2943 38.0445 47.2943 38.0445 47.062 38.0434C46.9037 38.0417 46.7454 38.0399 46.5823 38.0381C46.4223 38.0372 46.2624 38.0362 46.0976 38.0353C45.7023 38.0328 45.3071 38.0294 44.9118 38.0251C44.9148 38.1023 44.9178 38.1796 44.9209 38.2593C44.9326 38.6099 44.9399 38.9604 44.9472 39.311C44.9543 39.4936 44.9543 39.4936 44.9616 39.6797C44.9634 39.7968 44.9652 39.9138 44.9671 40.0344C44.9701 40.1422 44.973 40.2499 44.976 40.361C44.8949 40.7259 44.736 40.8462 44.3462 41.0695C43.922 41.1286 43.922 41.1286 43.4977 41.0695C42.981 40.6872 42.861 40.4298 42.8589 39.8942C42.8571 39.7652 42.8553 39.6363 42.8535 39.5035C42.8546 39.3652 42.8558 39.2268 42.857 39.0842C42.8566 38.9401 42.856 38.7959 42.8553 38.6518C42.8545 38.3502 42.8557 38.0487 42.8583 37.7471C42.8615 37.361 42.8597 36.9751 42.8563 36.5889C42.8543 36.2915 42.8549 35.994 42.8564 35.6965C42.857 35.4851 42.8552 35.2736 42.8535 35.0622C42.8552 34.9336 42.857 34.805 42.8589 34.6725C42.8593 34.5594 42.8598 34.4463 42.8602 34.3298C43.0363 33.609 43.7255 33.5527 44.5849 33.56Z" fill="#040404"/>
<path d="M62.3279 66.8509C62.5039 66.8492 62.68 66.8476 62.8614 66.8458C63.053 66.8457 63.2446 66.8457 63.4363 66.8458C63.6336 66.845 63.8308 66.8442 64.028 66.8434C64.4411 66.8419 64.8541 66.8418 65.2672 66.8424C65.7957 66.8431 66.3241 66.8399 66.8525 66.8356C67.2598 66.8329 67.667 66.8326 68.0743 66.8329C68.2691 66.8328 68.4639 66.8318 68.6587 66.8299C70.3715 66.8152 70.3715 66.8152 70.8445 67.1372C71.0731 67.4199 71.0731 67.4199 71.0731 67.8071C70.9317 68.1548 70.9317 68.1548 70.5075 68.3648C70.1113 68.3928 70.1113 68.3928 69.6245 68.3953C69.4423 68.3966 69.2602 68.3979 69.0725 68.3993C68.8734 68.3997 68.6743 68.3998 68.4752 68.4C68.2711 68.4007 68.067 68.4014 67.8629 68.4021C67.4351 68.4034 67.0072 68.4038 66.5794 68.4037C66.0314 68.4037 65.4835 68.4065 64.9356 68.4102C64.5139 68.4124 64.0924 68.4129 63.6709 68.4128C63.4688 68.413 63.2668 68.414 63.0648 68.4156C62.7822 68.4176 62.4996 68.4168 62.2169 68.4158C62.0562 68.4161 61.8954 68.4164 61.7298 68.4167C61.2221 68.3531 61.0512 68.2509 60.75 67.9448C60.75 67.5584 60.7523 67.3139 61.1287 67.0327C61.5507 66.8558 61.8441 66.8537 62.3279 66.8509Z" fill="#070708"/>
<path d="M62.215 62.9564C62.3972 62.9551 62.5793 62.9538 62.767 62.9524C62.9653 62.9531 63.1636 62.954 63.362 62.955C63.5659 62.9547 63.7699 62.9543 63.9738 62.9538C64.4008 62.9531 64.8277 62.9541 65.2548 62.956C65.8016 62.9584 66.3483 62.957 66.8953 62.9545C67.3162 62.953 67.7372 62.9535 68.1582 62.9546C68.3598 62.9549 68.5614 62.9545 68.763 62.9535C69.0449 62.9525 69.3269 62.9544 69.6088 62.9564C69.7691 62.9568 69.9294 62.9571 70.0946 62.9575C70.6006 63.0228 70.7726 63.1255 71.0734 63.4307C71.0734 63.8171 71.0711 64.0616 70.6948 64.3428C70.2728 64.5197 69.9794 64.5218 69.4956 64.5246C69.3195 64.5263 69.1435 64.5279 68.9621 64.5297C68.7704 64.5298 68.5788 64.5298 68.3872 64.5297C68.1899 64.5305 67.9927 64.5313 67.7954 64.5321C67.3824 64.5336 66.9693 64.5337 66.5562 64.5331C66.0277 64.5325 65.4994 64.5357 64.9709 64.5399C64.5636 64.5426 64.1564 64.5429 63.7491 64.5426C63.5543 64.5428 63.3595 64.5438 63.1648 64.5456C61.4512 64.5603 61.4512 64.5603 60.984 64.231C60.7503 63.9556 60.7503 63.9556 60.6707 63.6866C60.8651 63.0613 61.4274 62.9581 62.215 62.9564Z" fill="#050505"/>
<path d="M62.1993 58.9671C62.3782 58.9658 62.5571 58.9645 62.7414 58.9631C62.9362 58.9639 63.1309 58.9647 63.3257 58.9657C63.5261 58.9654 63.7266 58.965 63.9269 58.9645C64.3467 58.9639 64.7664 58.9647 65.1861 58.9667C65.7232 58.9691 66.2601 58.9678 66.7971 58.9652C67.2109 58.9637 67.6247 58.9642 68.0385 58.9653C68.2365 58.9655 68.4345 58.9652 68.6324 58.9642C68.9095 58.9632 69.1867 58.9651 69.4638 58.9671C69.6214 58.9675 69.7788 58.9678 69.9411 58.9681C70.4643 59.0338 70.7019 59.1641 71.073 59.4414C71.1614 59.7563 71.1614 59.7563 71.073 60.0713C70.5509 60.4614 70.1957 60.5442 69.4638 60.5472C69.2845 60.5489 69.1052 60.5505 68.9204 60.5523C68.726 60.5518 68.5315 60.5513 68.337 60.5507C68.1364 60.5512 67.9359 60.5519 67.7354 60.5526C67.3159 60.5538 66.8964 60.5533 66.4769 60.5517C65.9397 60.5499 65.4027 60.5524 64.8654 60.5561C64.4516 60.5584 64.0378 60.5583 63.624 60.5574C63.4259 60.5573 63.2279 60.558 63.0298 60.5596C62.753 60.5614 62.4762 60.5595 62.1993 60.5575C61.9633 60.5573 61.9633 60.5573 61.7224 60.5571C61.3156 60.4912 61.3156 60.4912 60.9819 60.2415C60.7204 59.9313 60.6511 59.7989 60.7499 59.4414C61.1891 59.02 61.4946 58.9686 62.1993 58.9671Z" fill="#010101"/>
<path d="M30.4261 40.9645C30.97 41.082 31.0636 41.1353 31.3364 41.4894C31.4246 41.9244 31.402 42.3623 31.3983 42.8017C31.4011 42.9215 31.4039 43.0412 31.4068 43.1646C31.4067 43.2798 31.4067 43.395 31.4066 43.5136C31.4068 43.6187 31.4071 43.7238 31.4074 43.8321C31.3174 44.1896 31.1506 44.311 30.7708 44.5339C30.3465 44.6389 30.3465 44.6389 29.9223 44.6389C29.5208 44.4154 29.3734 44.2879 29.2834 43.9177C29.2828 43.8039 29.2822 43.69 29.2815 43.5727C29.2808 43.4481 29.28 43.3234 29.2793 43.195C29.2815 43.0652 29.2837 42.9354 29.2859 42.8017C29.2837 42.6719 29.2816 42.5421 29.2793 42.4084C29.28 42.2838 29.2808 42.1592 29.2815 42.0308C29.2821 41.9169 29.2828 41.803 29.2834 41.6856C29.4112 41.16 29.7148 40.9645 30.4261 40.9645Z" fill="#010101"/>
</g>
<defs>
<clipPath id="clip0_117_818">
<rect width="50" height="50" fill="white" transform="translate(29 29)"/>
</clipPath>
</defs>
</svg>
