<svg width="108" height="108" viewBox="0 0 108 108" fill="none" xmlns="http://www.w3.org/2000/svg">
<circle cx="54" cy="54" r="53" fill="white" stroke="#785EA2" stroke-width="2"/>
<g clip-path="url(#clip0_117_901)">
<path d="M74.6243 52.6375C76.8656 54.2986 78.2977 56.5281 78.7904 59.2607C79.0461 61.4562 78.749 63.4939 77.7319 65.4602C77.6794 65.5633 77.627 65.6664 77.573 65.7727C76.3669 67.9638 74.2431 69.6151 71.8309 70.3504C69.038 71.157 66.2912 70.87 63.7102 69.566C63.1184 69.2385 62.6056 68.8562 62.0938 68.4193C62.0127 68.3548 61.9315 68.2904 61.8479 68.2239C60.0018 66.7017 58.8496 64.3469 58.5852 62.0079C58.4373 59.0459 59.0622 56.3601 61.107 54.12C64.6056 50.4055 70.3792 49.7252 74.6243 52.6375Z" fill="#EE6A50"/>
<path d="M45.6536 60.7257C47.8186 62.4018 49.2264 64.7103 49.6164 67.3952C49.9301 69.9851 49.3223 72.6822 47.6648 74.7567C47.53 74.9137 47.3943 75.0699 47.2576 75.2253C47.1971 75.299 47.1366 75.3728 47.0743 75.4487C45.5178 77.2892 43.16 78.3431 40.7789 78.6502C38.1388 78.8639 35.4077 78.29 33.3334 76.5885C33.2293 76.4996 33.2293 76.4996 33.1231 76.4089C33.0444 76.3456 32.9657 76.2823 32.8846 76.2171C31.1056 74.7323 29.8655 72.5445 29.5429 70.2607C29.3046 67.2455 29.9188 64.5725 31.9202 62.2053C35.359 58.3132 41.4287 57.7219 45.6536 60.7257Z" fill="#6E7FED"/>
<path d="M54.7428 31.5277C54.8199 31.5933 54.8969 31.6589 54.9762 31.7265C55.0512 31.786 55.1262 31.8455 55.2033 31.9068C57.018 33.3927 58.1581 35.7024 58.4566 37.9872C58.6925 40.8985 57.9682 43.5011 56.0699 45.788C54.3736 47.7227 51.9817 49.0142 49.3698 49.2068C46.359 49.3225 43.7125 48.5644 41.4358 46.5497C39.6669 44.923 38.4893 42.609 38.3149 40.2216C38.3053 39.9315 38.3027 39.6426 38.3043 39.3523C38.3049 39.249 38.3055 39.1456 38.306 39.0391C38.3494 36.2905 39.4838 33.9883 41.4123 32.0467C42.0627 31.4365 42.766 30.9742 43.5484 30.5428C43.6306 30.4963 43.7127 30.4498 43.7974 30.4018C47.202 28.5919 51.7956 29.0767 54.7428 31.5277Z" fill="#30AA87"/>
<path d="M74.6243 52.6375C76.8656 54.2986 78.2977 56.5281 78.7904 59.2607C79.0461 61.4562 78.749 63.4939 77.7319 65.4602C77.6794 65.5633 77.627 65.6664 77.573 65.7727C76.3669 67.9638 74.2431 69.6151 71.8309 70.3504C69.038 71.157 66.2912 70.87 63.7102 69.566C63.1184 69.2385 62.6056 68.8562 62.0938 68.4193C62.0127 68.3548 61.9315 68.2904 61.8479 68.2239C60.0018 66.7017 58.8496 64.3469 58.5852 62.0079C58.4373 59.0459 59.0622 56.3601 61.107 54.12C64.6056 50.4055 70.3792 49.7252 74.6243 52.6375ZM63.5975 55.1033C63.5143 55.1773 63.431 55.2513 63.3452 55.3276C61.8599 56.7148 61.0206 58.546 60.9507 60.5577C60.924 62.5121 61.5401 64.3913 62.8957 65.8547C62.9686 65.9355 63.0415 66.0162 63.1166 66.0994C64.4402 67.4879 66.2773 68.3249 68.2075 68.4439C70.4897 68.5025 72.4242 67.8162 74.0953 66.2732C75.1926 65.2102 75.8075 64.0451 76.2283 62.5997C76.247 62.5379 76.2657 62.4762 76.2851 62.4125C76.803 60.5852 76.3372 58.6654 75.44 57.0395C75.153 56.5457 74.8144 56.1139 74.4239 55.6952C74.3562 55.6195 74.2885 55.5439 74.2186 55.4659C72.8325 53.9999 70.8673 53.2686 68.8666 53.1965C66.9319 53.1615 65.0385 53.8081 63.5975 55.1033Z" fill="#FBD031"/>
<path d="M45.6536 60.7257C47.8186 62.4018 49.2264 64.7103 49.6164 67.3952C49.9301 69.9851 49.3223 72.6822 47.6648 74.7567C47.53 74.9137 47.3943 75.0699 47.2576 75.2253C47.1971 75.299 47.1366 75.3728 47.0743 75.4487C45.5178 77.2892 43.16 78.3431 40.7789 78.6502C38.1388 78.8639 35.4077 78.29 33.3334 76.5885C33.2293 76.4996 33.2293 76.4996 33.1231 76.4089C33.0444 76.3456 32.9657 76.2823 32.8846 76.2171C31.1056 74.7323 29.8655 72.5445 29.5429 70.2607C29.3046 67.2455 29.9188 64.5725 31.9202 62.2053C35.359 58.3132 41.4287 57.7219 45.6536 60.7257ZM33.8221 63.6466C32.2724 65.4914 31.7454 67.539 31.9448 69.8943C32.2313 71.8357 33.3348 73.5839 34.8836 74.7937C36.5899 76.0008 38.5425 76.5288 40.6297 76.2602C42.7158 75.8935 44.5443 74.9244 45.8044 73.2175C46.3169 72.4871 46.6822 71.733 46.9569 70.8853C46.9888 70.7937 47.0207 70.7022 47.0535 70.6079C47.6156 68.7731 47.2369 66.8745 46.3623 65.2094C46.1003 64.7315 45.8118 64.2957 45.4531 63.8821C45.4108 63.8264 45.3684 63.7707 45.3248 63.7133C44.2925 62.4083 42.502 61.5069 40.856 61.2593C38.1714 60.9661 35.724 61.6906 33.8221 63.6466Z" fill="#8B9EF9"/>
<path d="M54.7428 31.5277C54.8199 31.5933 54.8969 31.6589 54.9762 31.7265C55.0512 31.786 55.1262 31.8455 55.2033 31.9068C57.018 33.3927 58.1581 35.7024 58.4566 37.9872C58.6925 40.8985 57.9682 43.5011 56.0699 45.788C54.3736 47.7227 51.9817 49.0142 49.3698 49.2068C46.359 49.3225 43.7125 48.5644 41.4358 46.5497C39.6669 44.923 38.4893 42.609 38.3149 40.2216C38.3053 39.9315 38.3027 39.6426 38.3043 39.3523C38.3049 39.249 38.3055 39.1456 38.306 39.0391C38.3494 36.2905 39.4838 33.9883 41.4123 32.0467C42.0627 31.4365 42.766 30.9742 43.5484 30.5428C43.6306 30.4963 43.7127 30.4498 43.7974 30.4018C47.202 28.5919 51.7956 29.0767 54.7428 31.5277ZM43.4481 33.5019C43.3853 33.5486 43.3225 33.5953 43.2578 33.6434C41.8665 34.7282 40.9632 36.5258 40.7415 38.2365C40.5742 40.536 41.1098 42.5891 42.6462 44.3519C42.7385 44.4594 42.7385 44.4594 42.8326 44.5689C43.6531 45.4471 44.8251 46.1072 45.9543 46.522C46.0394 46.5534 46.1246 46.5848 46.2123 46.6171C46.8944 46.8249 47.5641 46.8452 48.2724 46.8487C48.4105 46.8495 48.4105 46.8495 48.5513 46.8504C50.5454 46.8298 52.3836 46.0327 53.832 44.698C55.0833 43.419 56.0088 41.714 56.079 39.9133C56.0852 39.7979 56.0916 39.6824 56.0981 39.5635C56.1763 37.5512 55.4586 35.6813 54.0741 34.1924C53.9852 34.0915 53.9852 34.0915 53.8947 33.9886C53.0005 33.032 51.8146 32.4056 50.5655 32.0224C50.464 31.991 50.3623 31.9596 50.2577 31.9272C47.8805 31.2912 45.3109 31.9327 43.4481 33.5019Z" fill="#4DC4A4"/>
<path d="M38.5367 63.9807C38.85 64.0177 38.85 64.0177 39.1381 64.0794C39.1381 64.4374 39.1381 64.7955 39.1381 65.1644C39.4359 65.1644 39.7336 65.1644 40.0403 65.1644C40.038 65.0955 40.0357 65.0265 40.0333 64.9555C40.0315 64.8658 40.0297 64.776 40.0278 64.6835C40.0255 64.5942 40.0232 64.505 40.0208 64.413C40.0403 64.178 40.0403 64.178 40.2408 63.9807C40.6975 64.0355 40.6975 64.0355 40.8423 64.178C40.8495 64.3443 40.8507 64.5109 40.8485 64.6773C40.8477 64.768 40.8468 64.8587 40.8458 64.9521C40.8447 65.0221 40.8435 65.0922 40.8423 65.1644C40.9622 65.1725 41.0821 65.1806 41.2057 65.189C41.7595 65.2583 42.0997 65.4978 42.4713 65.9041C42.8774 66.475 42.9277 66.9392 42.8472 67.6303C42.6985 68.0715 42.489 68.3976 42.1455 68.7153C42.2089 68.7956 42.2089 68.7956 42.2735 68.8775C42.3284 68.9481 42.3834 69.0186 42.44 69.0913C42.4946 69.1611 42.5493 69.231 42.6056 69.3029C42.9542 69.7997 42.9237 70.4057 42.8472 70.9839C42.5994 71.5558 42.218 71.9952 41.6442 72.2662C41.3735 72.3222 41.1197 72.346 40.8423 72.3648C40.8435 72.4349 40.8446 72.505 40.8458 72.5771C40.8468 72.6678 40.8476 72.7584 40.8485 72.8518C40.8497 72.9423 40.8509 73.0326 40.8521 73.1258C40.8423 73.3512 40.8423 73.3512 40.7421 73.4498C40.4413 73.4621 40.4413 73.4621 40.1406 73.4498C40.0403 73.3512 40.0403 73.3512 40.0305 73.1258C40.0338 72.8721 40.0371 72.6185 40.0403 72.3648C39.6765 72.3648 39.3126 72.3648 38.9377 72.3648C38.9397 72.5255 38.9418 72.6863 38.9439 72.8518C38.9461 73.0183 38.9449 73.1849 38.9377 73.3512C38.8374 73.4498 38.8374 73.4498 38.5304 73.456C38.4332 73.454 38.3361 73.4519 38.236 73.4498C38.1154 73.2126 38.1256 73.0602 38.1294 72.7964C38.1303 72.7158 38.1313 72.6352 38.1322 72.5521C38.1334 72.4903 38.1345 72.4285 38.1357 72.3648C37.9655 72.3665 37.9655 72.3665 37.7919 72.3683C37.6434 72.3692 37.4948 72.3701 37.3463 72.371C37.2715 72.3718 37.1966 72.3726 37.1195 72.3735C36.5545 72.376 36.5545 72.376 36.3313 72.2662C36.327 72.069 36.3272 71.8716 36.3313 71.6744C36.3809 71.6255 36.3809 71.6255 36.4315 71.5757C36.7293 71.5757 37.027 71.5757 37.3337 71.5757C37.3337 69.7204 37.3337 67.865 37.3337 65.9534C37.0691 65.9534 36.8045 65.9534 36.5318 65.9534C36.3313 65.7561 36.3313 65.7561 36.3125 65.5034C36.3313 65.263 36.3313 65.263 36.4315 65.1644C36.5735 65.1558 36.7158 65.1538 36.858 65.1547C36.9864 65.1552 36.9864 65.1552 37.1174 65.1557C37.2074 65.1565 37.2974 65.1573 37.3902 65.1582C37.4805 65.1586 37.5709 65.1591 37.664 65.1595C37.8881 65.1607 38.1121 65.1623 38.3362 65.1644C38.3339 65.0955 38.3315 65.0265 38.3292 64.9555C38.3273 64.8658 38.3255 64.776 38.3237 64.6835C38.3213 64.5942 38.319 64.505 38.3166 64.413C38.3362 64.178 38.3362 64.178 38.5367 63.9807Z" fill="#FDFDFE"/>
<path d="M68.5091 55.3992C68.8635 55.4521 68.8635 55.4521 69.0103 55.5965C69.0175 55.7629 69.0188 55.9294 69.0166 56.0959C69.0157 56.1865 69.0148 56.2772 69.0138 56.3706C69.0127 56.4407 69.0115 56.5107 69.0103 56.5829C69.1654 56.5707 69.1654 56.5707 69.3236 56.5582C69.9744 56.556 70.6081 56.7624 71.2157 56.9774C71.4162 57.1747 71.4162 57.1747 71.4412 57.4707C71.4162 57.7665 71.4162 57.7665 71.2157 57.9638C70.7109 57.9198 70.2145 57.8112 69.7183 57.7111C69.4847 57.6643 69.2511 57.6175 69.0103 57.5693C69.0103 58.5132 69.0103 59.4572 69.0103 60.4297C69.2419 60.4623 69.4735 60.4948 69.712 60.5284C70.5389 60.7536 71.2041 61.0225 71.6543 61.7737C71.9141 62.3465 71.933 62.9406 71.7357 63.536C71.3638 64.2909 70.6991 64.6936 69.9125 64.967C69.6453 65.0157 69.3814 65.0386 69.1106 65.0656C69.0775 65.4237 69.0444 65.7818 69.0103 66.1507C68.8099 66.1548 68.6093 66.1547 68.4089 66.1507C68.3086 66.052 68.3086 66.052 68.2988 65.805C68.3 65.7055 68.3012 65.6059 68.3023 65.5034C68.3033 65.4036 68.3041 65.3037 68.3051 65.2009C68.3062 65.1237 68.3074 65.0465 68.3086 64.967C68.2514 64.9716 68.1941 64.9761 68.1351 64.9809C67.3131 65.0169 66.4756 64.8573 65.7665 64.4299C65.602 64.2766 65.602 64.2766 65.5644 63.9745C65.602 63.6847 65.602 63.6847 65.8025 63.4874C66.2847 63.5165 66.6965 63.6405 67.1456 63.8111C67.5234 63.9138 67.9191 63.9381 68.3086 63.9807C68.3086 63.1018 68.3086 62.2229 68.3086 61.3174C67.9448 61.2198 67.5809 61.1221 67.2059 61.0216C66.6432 60.7679 66.1352 60.4632 65.8025 59.9365C65.5971 59.3302 65.5742 58.5934 65.8049 57.9923C66.2156 57.3381 66.8415 56.8731 67.5881 56.6445C67.9077 56.5829 67.9077 56.5829 68.3086 56.5829C68.3063 56.514 68.3039 56.4451 68.3015 56.374C68.2998 56.2843 68.298 56.1945 68.2961 56.1021C68.2938 56.0128 68.2914 55.9236 68.289 55.8316C68.3086 55.5965 68.3086 55.5965 68.5091 55.3992Z" fill="#FBCE31"/>
<path d="M49.9515 34.6054C50.5274 34.9341 51.0733 35.3145 51.2672 35.9678C51.3926 37.2737 51.3926 37.2737 51.1298 37.6377C50.8942 37.79 50.741 37.784 50.4652 37.7433C50.2309 37.5744 50.1709 37.483 50.1202 37.1985C50.1143 37.0592 50.1143 37.0592 50.1081 36.9172C50.0901 36.5259 50.0428 36.2222 49.8638 35.8692C49.5009 35.6609 49.1756 35.622 48.7611 35.6719C48.3376 35.8964 48.3376 35.8964 48.0594 36.2637C48.0438 36.4856 48.0343 36.708 48.0277 36.9303C48.0256 36.9957 48.0235 37.0611 48.0214 37.1285C48.0148 37.3375 48.0089 37.5465 48.003 37.7556C47.9987 37.8973 47.9943 38.0389 47.9899 38.1806C47.9791 38.528 47.969 38.8754 47.9591 39.2228C48.0456 39.2212 48.1321 39.2197 48.2212 39.2181C48.5424 39.2131 48.8635 39.2094 49.1847 39.2065C49.3236 39.2051 49.4626 39.203 49.6015 39.2005C49.8013 39.1969 50.0011 39.1954 50.2009 39.1939C50.3212 39.1923 50.4414 39.1908 50.5652 39.1892C50.8662 39.2228 50.8662 39.2228 51.0559 39.3541C51.2297 39.6116 51.2051 39.8102 51.167 40.1106C51.0559 40.2752 51.0559 40.2752 50.8662 40.4065C50.5652 40.4401 50.5652 40.4401 50.2009 40.4354C50.0707 40.4344 49.9406 40.4335 49.8064 40.4325C49.6689 40.43 49.5314 40.4275 49.3939 40.4249C49.2552 40.4235 49.1165 40.4221 48.9778 40.4209C48.6382 40.4174 48.2987 40.4125 47.9591 40.4065C47.9612 40.464 47.9632 40.5216 47.9653 40.5809C47.9748 41.0426 47.956 41.419 47.7837 41.8552C47.7512 41.941 47.7186 42.0269 47.6851 42.1152C47.5374 42.4224 47.3507 42.6901 47.1572 42.971C47.2862 42.9694 47.4152 42.9679 47.5481 42.9663C48.0262 42.961 48.5043 42.9575 48.9823 42.9548C49.1893 42.9533 49.3964 42.9512 49.6034 42.9487C49.9007 42.9451 50.198 42.9434 50.4954 42.9421C50.5881 42.9406 50.6809 42.9391 50.7764 42.9375C50.8627 42.9375 50.949 42.9374 51.0379 42.9374C51.1138 42.9367 51.1897 42.9361 51.2679 42.9354C51.5264 42.9814 51.616 43.0586 51.7685 43.2669C51.7559 43.6183 51.7559 43.6183 51.6682 43.9573C51.323 44.1838 51.1927 44.18 50.786 44.1817C50.6665 44.1827 50.5471 44.1836 50.4241 44.1846C50.295 44.1845 50.1659 44.1844 50.033 44.1843C49.8993 44.1847 49.7656 44.1851 49.6319 44.1856C49.3517 44.1864 49.0717 44.1863 48.7915 44.1858C48.4325 44.1852 48.0736 44.1869 47.7146 44.1892C47.4385 44.1906 47.1625 44.1907 46.8864 44.1904C46.6896 44.1905 46.4929 44.1919 46.2962 44.1932C46.117 44.1923 46.117 44.1923 45.9343 44.1914C45.829 44.1914 45.7238 44.1915 45.6152 44.1915C45.3528 44.1546 45.3528 44.1546 45.1692 44.0221C44.9802 43.7586 45.0011 43.5802 45.052 43.2669C45.2525 43.0327 45.2525 43.0327 45.5533 42.7737C46.3469 42.0567 46.685 41.4717 46.7562 40.4065C46.633 40.4116 46.633 40.4116 46.5072 40.4169C46.3991 40.4195 46.2911 40.4222 46.1798 40.4249C46.0193 40.4301 46.0193 40.4301 45.8556 40.4354C45.5195 40.4032 45.3864 40.3464 45.1523 40.1106C45.1073 39.8067 45.0878 39.6145 45.2635 39.3535C45.547 39.158 45.7824 39.1943 46.1234 39.2043C46.3008 39.2083 46.3008 39.2083 46.4817 39.2124C46.5723 39.2159 46.6629 39.2193 46.7562 39.2228C46.7541 39.1343 46.752 39.0458 46.7499 38.9546C46.743 38.623 46.738 38.2914 46.7342 37.9598C46.7322 37.8169 46.7294 37.6739 46.726 37.531C46.7039 36.6041 46.6947 35.8862 47.3577 35.1548C47.4238 35.1017 47.49 35.0485 47.5581 34.9938C47.6243 34.9391 47.6905 34.8844 47.7586 34.8281C48.3899 34.3793 49.2204 34.3221 49.9515 34.6054Z" fill="#F9FCFB"/>
<path d="M60.4896 39.9134C60.8021 40.0459 61.0814 40.2188 61.3667 40.4004C61.4859 40.4744 61.4859 40.4744 61.6075 40.5499C62.2456 40.9525 62.8301 41.3896 63.3966 41.8861C63.519 41.9904 63.519 41.9904 63.6437 42.0969C64.9997 43.2709 66.312 44.565 67.2059 46.1275C67.2059 46.1926 67.2059 46.2577 67.2059 46.3248C67.2721 46.3248 67.3383 46.3248 67.4064 46.3248C67.4167 46.2332 67.4271 46.1417 67.4377 46.0474C67.5327 45.6141 67.5327 45.6141 67.8074 45.4371C68.1646 45.3301 68.339 45.3087 68.6845 45.4556C68.9232 45.6447 69.0028 45.7512 69.1106 46.0289C69.0998 46.7403 68.8162 47.4706 68.6156 48.1496C68.5903 48.2369 68.5649 48.3241 68.5389 48.4141C68.5137 48.4967 68.4885 48.5793 68.4625 48.6643C68.4402 48.7385 68.4178 48.8127 68.3948 48.8891C68.2934 49.1215 68.2164 49.2332 68.0079 49.3825C67.5396 49.5128 67.207 49.4589 66.7443 49.3286C66.6209 49.294 66.4976 49.2594 66.3705 49.2238C66.3071 49.2053 66.2437 49.1868 66.1783 49.1677C65.9841 49.1112 65.7894 49.0572 65.5944 49.0034C64.5313 48.7 64.5313 48.7 64.2988 48.3962C64.1891 48.0415 64.1666 47.8737 64.3239 47.5331C64.4993 47.3112 64.4993 47.3112 64.8001 47.1139C65.0487 47.1162 65.0487 47.1162 65.3201 47.1509C65.4104 47.1618 65.5008 47.1727 65.5938 47.184C65.6627 47.1934 65.7316 47.2029 65.8025 47.2125C64.2711 44.9719 62.4925 43.1049 60.1178 41.728C59.7703 41.5233 59.4914 41.3551 59.2866 40.9984C59.2365 40.7087 59.2365 40.7087 59.2866 40.4066C59.644 39.9164 59.8921 39.8462 60.4896 39.9134Z" fill="#44384A"/>
<path d="M37.7344 45.437C38.2701 45.8638 38.4305 46.4863 38.668 47.1016C38.7382 47.2749 38.7382 47.2749 38.8099 47.4518C38.8536 47.5638 38.8974 47.6758 38.9425 47.7912C38.9824 47.893 39.0224 47.9949 39.0636 48.0998C39.1481 48.4373 39.1265 48.6536 39.0376 48.988C38.8747 49.2222 38.8747 49.2222 38.6367 49.3825C38.292 49.438 38.292 49.438 37.9349 49.3825C37.5317 49.0759 37.351 48.7425 37.133 48.2975C36.0681 50.8427 35.4828 53.2172 35.4704 55.9757C35.469 56.1003 35.4675 56.225 35.466 56.3533C35.4659 56.5198 35.4659 56.5198 35.4658 56.6896C35.4248 57.009 35.3528 57.1426 35.1281 57.3721C34.8607 57.4827 34.6137 57.5022 34.3261 57.4708C33.9695 57.2319 33.8457 57.0826 33.763 56.6647C33.4729 53.8096 34.0238 50.5693 35.3286 48.0016C35.2397 48.0077 35.1508 48.0138 35.0592 48.0201C34.6892 47.9995 34.5202 47.9209 34.2259 47.7057C34.0686 47.3961 34.0903 47.1594 34.1256 46.818C34.5426 46.2692 35.1258 46.0876 35.7609 45.8501C35.9123 45.79 35.9123 45.79 36.0669 45.7285C36.6427 45.5089 37.1164 45.3487 37.7344 45.437Z" fill="#433849"/>
<path d="M60.7911 68.7152C61.1562 68.9675 61.2722 69.1177 61.3675 69.5475C61.2514 70.0902 60.8522 70.321 60.3946 70.6179C60.1868 70.741 59.9767 70.8575 59.7636 70.9715C59.6467 71.0345 59.6467 71.0345 59.5275 71.0988C57.5032 72.1674 55.4197 72.7446 53.1725 73.1539C53.2367 73.212 53.3007 73.2701 53.3668 73.3299C53.6506 73.6298 53.6738 73.8333 53.6738 74.2389C53.4754 74.613 53.3441 74.71 52.9344 74.8368C52.2719 74.8256 51.7654 74.2879 51.2617 73.8936C51.2016 73.847 51.1416 73.8003 51.0798 73.7522C50.9627 73.6612 50.8457 73.5698 50.729 73.4783C50.5798 73.3618 50.4291 73.247 50.2784 73.1323C50.0125 72.9134 49.9725 72.8262 49.9334 72.4881C49.9943 71.8646 50.5247 71.3614 50.9108 70.8791C50.9573 70.82 51.004 70.7609 51.052 70.7001C51.806 69.7552 51.806 69.7552 52.2704 69.603C52.6308 69.603 52.7895 69.6842 53.0723 69.8989C53.2281 70.2056 53.2012 70.4475 53.1725 70.7866C53.0449 70.9877 52.9119 71.1857 52.7715 71.3784C55.2438 71.1617 57.7575 70.2795 59.8094 68.8925C60.1702 68.6641 60.3697 68.6474 60.7911 68.7152Z" fill="#433849"/>
<path d="M38.1348 69.1098C38.5379 69.1007 38.9407 69.0928 39.3438 69.0881C39.4807 69.0861 39.6176 69.0835 39.7545 69.08C39.952 69.0752 40.1496 69.0732 40.3472 69.0712C40.5252 69.0682 40.5252 69.0682 40.7067 69.065C41.1103 69.1189 41.3231 69.2628 41.6433 69.5043C41.7033 69.545 41.7633 69.5857 41.825 69.6276C42.0299 69.9247 42.0658 70.2398 42.0443 70.5893C41.9216 70.9503 41.7326 71.2129 41.422 71.4456C41.073 71.6078 40.8206 71.6095 40.4353 71.6046C40.3693 71.6042 40.3032 71.6038 40.2352 71.6033C40.0258 71.6017 39.8165 71.598 39.6071 71.5942C39.4645 71.5927 39.3219 71.5914 39.1793 71.5901C38.8311 71.5872 38.483 71.5814 38.1348 71.5757C38.1348 70.7619 38.1348 69.9482 38.1348 69.1098Z" fill="#7484ED"/>
<path d="M38.1348 65.9534C38.5522 65.9443 38.9692 65.9365 39.3866 65.9317C39.5284 65.9297 39.6701 65.9271 39.8119 65.9236C40.0164 65.9188 40.2209 65.9166 40.4255 65.9149C40.6098 65.9118 40.6098 65.9118 40.7978 65.9086C41.2109 65.9623 41.4217 66.0921 41.7436 66.348C42.0272 66.7665 42.0095 67.1388 41.9441 67.6302C41.7319 67.9883 41.5313 68.1726 41.1421 68.3207C40.8205 68.3431 40.8205 68.3431 40.4451 68.34C40.3789 68.3397 40.3127 68.3394 40.2445 68.3391C40.0341 68.338 39.8238 68.3355 39.6134 68.333C39.4703 68.332 39.3273 68.3312 39.1842 68.3303C38.8344 68.3283 38.4846 68.3245 38.1348 68.3207C38.1348 67.5395 38.1348 66.7583 38.1348 65.9534Z" fill="#6F80ED"/>
<path d="M69.0098 61.5146C69.7878 61.6848 70.1748 61.7733 70.7139 62.3038C70.7477 62.7097 70.7563 62.9849 70.6074 63.3641C70.3545 63.6532 70.0787 63.8608 69.7115 63.9806C69.4799 63.9806 69.2483 63.9806 69.0098 63.9806C69.0098 63.1668 69.0098 62.3531 69.0098 61.5146Z" fill="#EE6E4F"/>
<path d="M68.3094 57.668C68.3094 58.4817 68.3094 59.2955 68.3094 60.1339C67.5173 60.0225 67.5173 60.0225 67.2193 59.7948C67.1328 59.7309 67.1328 59.7309 67.0446 59.6657C66.8631 59.5038 66.8109 59.3874 66.7819 59.1487C66.7691 58.7581 66.7696 58.5199 66.9686 58.1735C67.4129 57.7824 67.7094 57.668 68.3094 57.668Z" fill="#EE6B50"/>
</g>
<defs>
<clipPath id="clip0_117_901">
<rect width="50" height="50" fill="white" transform="translate(29 29)"/>
</clipPath>
</defs>
</svg>
