<svg width="108" height="108" viewBox="0 0 108 108" fill="none" xmlns="http://www.w3.org/2000/svg">
<circle cx="54" cy="54" r="53" fill="white" stroke="#7C77DC" stroke-width="2"/>
<path d="M85.1264 30.4057V52.562C85.1264 58.0458 82.6129 64.411 78.0509 70.4852C72.7342 77.562 64.9027 83.8086 55.4027 88.5499L54.4997 89L53.5968 88.5499C44.0968 83.8086 36.2652 77.562 30.9485 70.4852C26.3865 64.411 23.873 58.0458 23.873 52.562V30.4057L38.7733 20H70.2261L85.1264 30.4057Z" fill="#00358F"/>
<path d="M85.1267 30.4057V52.562C85.1267 58.0458 82.6132 64.411 78.0512 70.4852C72.7345 77.562 64.903 83.8086 55.403 88.5499L54.5 89V20H70.2264L85.1267 30.4057Z" fill="#012453"/>
<path d="M67.6814 28.0863H41.3175L31.959 34.6213V52.562C31.959 58.7278 38.025 70.7763 54.4994 79.8909C70.9738 70.7763 77.0399 58.7278 77.0399 52.562V34.6213L67.6814 28.0863Z" fill="#00B3FE"/>
<path d="M77.0404 34.6213V52.562C77.0404 58.7278 70.9744 70.7763 54.5 79.8909V28.0863H67.6819L77.0404 34.6213Z" fill="#0274F9"/>
<path d="M68.3178 26.0647H40.6817L29.9377 33.5674V52.562C29.9377 56.5054 31.935 61.5162 35.4162 66.3086C39.6547 72.1442 45.9148 77.4528 53.5213 81.6604L54.4997 82.2022L55.4782 81.6604C63.0846 77.4528 69.3448 72.1442 73.5833 66.3086C77.0644 61.5162 79.0617 56.5054 79.0617 52.562V33.5674L68.3178 26.0647ZM75.0186 52.562C75.0186 57.9407 69.5321 68.9232 54.4997 77.5701C39.4674 68.9232 33.9809 57.9407 33.9809 52.562V35.6752L41.9539 30.1078H67.0456L75.0186 35.6752V52.562Z" fill="#EFF5FA"/>
<path d="M79.062 33.5674V52.562C79.062 56.5054 77.0647 61.5162 73.5836 66.3086C69.345 72.1442 63.0849 77.4528 55.4784 81.6604L54.5 82.2022V77.5701C69.5323 68.9232 75.0189 57.9407 75.0189 52.562V35.6752L67.0458 30.1078H54.5V26.0647H68.3181L79.062 33.5674Z" fill="#C6E1EC"/>
<path d="M67.4051 43.4825L54.4994 56.7466L54.4725 56.7749L51.1908 60.1469L41.5938 51.1712L44.3552 48.2183L51.056 54.4865L54.4725 50.9771L54.4994 50.9488L64.5075 40.6631L67.4051 43.4825Z" fill="#EFF5FA"/>
<path d="M67.4057 43.4825L54.5 56.7466V50.9488L64.5081 40.6631L67.4057 43.4825Z" fill="#C6E1EC"/>
</svg>
