<svg width="24" height="23" viewBox="0 0 24 23" fill="none" xmlns="http://www.w3.org/2000/svg">
<g style="mix-blend-mode:luminosity">
<path d="M9.87518 12.7104C9.8054 12.7104 8.34162 12.7108 7.66651 12.7101C7.31895 12.7099 7.19496 12.585 7.19496 12.2353C7.19451 11.3368 7.19429 10.4384 7.19496 9.53992C7.19518 9.19459 7.32629 9.06281 7.6694 9.06259C8.34451 9.06214 9.80029 9.06237 9.87518 9.06237C9.87518 9.00081 9.87495 7.7037 9.87518 7.10637C9.87562 6.22325 10.0332 5.37792 10.4818 4.60392C10.9412 3.8117 11.6096 3.26903 12.4663 2.95525C13.015 2.75414 13.5845 2.67392 14.1667 2.67348C14.8952 2.67303 15.6236 2.6737 16.3523 2.67503C16.6654 2.67548 16.8043 2.81392 16.805 3.12925C16.8063 3.97437 16.8063 4.81948 16.805 5.66437C16.8045 5.98303 16.6714 6.11103 16.3512 6.11459C15.7541 6.12103 15.1565 6.11703 14.5601 6.14103C13.9576 6.14103 13.6407 6.43525 13.6407 7.05881C13.6263 7.71837 13.6347 8.37859 13.6347 9.06214C13.6912 9.06214 15.4056 9.06192 16.207 9.06214C16.571 9.06214 16.6954 9.18725 16.6954 9.55325C16.6954 10.4468 16.6952 11.3406 16.6945 12.2341C16.6943 12.5948 16.5774 12.7099 16.2112 12.7101C15.4098 12.7106 13.7021 12.7104 13.6274 12.7104V19.9426C13.6274 20.3281 13.5061 20.451 13.1256 20.451C12.1981 20.451 11.2703 20.4513 10.3427 20.451C10.0065 20.451 9.8754 20.3204 9.8754 19.9841C9.87518 17.6288 9.87518 12.793 9.87518 12.7104Z" fill="#785EA2"/>
</g>
</svg>
