<svg width="108" height="108" viewBox="0 0 108 108" fill="none" xmlns="http://www.w3.org/2000/svg">
<circle cx="54" cy="54" r="53" fill="white" stroke="#7C77DC" stroke-width="2"/>
<path d="M53.5 82.25C70.1721 82.25 83.6875 68.7346 83.6875 52.0625C83.6875 35.3904 70.1721 21.875 53.5 21.875C36.8279 21.875 23.3125 35.3904 23.3125 52.0625C23.3125 68.7346 36.8279 82.25 53.5 82.25Z" fill="#0588E2"/>
<path d="M34.8122 56.375C30.4825 56.375 26.7939 59.1293 25.3779 62.9731C29.7551 74.246 40.6816 82.25 53.4997 82.25C66.3179 82.25 77.2444 74.246 81.6216 62.9731C80.2056 59.1293 76.517 56.375 72.1872 56.375H34.8122Z" fill="#0075D3"/>
<path d="M53.5 76.5C66.9965 76.5 77.9375 65.559 77.9375 52.0625C77.9375 38.566 66.9965 27.625 53.5 27.625C40.0035 27.625 29.0625 38.566 29.0625 52.0625C29.0625 65.559 40.0035 76.5 53.5 76.5Z" fill="#EFF3F9"/>
<path d="M72.1871 56.375H34.8121C33.0334 56.3804 31.2889 56.8635 29.7607 57.7737C32.3367 68.5104 41.9737 76.5 53.4996 76.5C65.0255 76.5 74.6625 68.5104 77.2385 57.7737C75.7104 56.8635 73.9658 56.3804 72.1871 56.375Z" fill="#CFE0F3"/>
<path d="M53.5003 27.625C45.6516 27.625 38.6869 31.3395 34.2148 37.0895C38.4909 33.7491 43.7617 31.9355 49.1878 31.9375C62.6845 31.9375 73.6253 42.8783 73.6253 56.375C73.6253 62.0229 71.6905 67.2094 68.4733 71.348C74.2233 66.8774 77.9378 59.9113 77.9378 52.0625C77.9378 38.5658 66.997 27.625 53.5003 27.625Z" fill="#CFE0F3"/>
<path d="M53.5 54.9375C55.0878 54.9375 56.375 53.6503 56.375 52.0625C56.375 50.4747 55.0878 49.1875 53.5 49.1875C51.9122 49.1875 50.625 50.4747 50.625 52.0625C50.625 53.6503 51.9122 54.9375 53.5 54.9375Z" fill="#47CAF0"/>
<path d="M72.1875 60.6875H34.8125C31.6369 60.6875 29.0625 63.2619 29.0625 66.4375V77.9375C29.0625 81.1131 31.6369 83.6875 34.8125 83.6875H72.1875C75.3631 83.6875 77.9375 81.1131 77.9375 77.9375V66.4375C77.9375 63.2619 75.3631 60.6875 72.1875 60.6875Z" fill="#FFC343"/>
<path d="M72.1875 79.375H34.8125C33.2875 79.375 31.825 78.7692 30.7466 77.6909C29.6683 76.6125 29.0625 75.15 29.0625 73.625V77.9375C29.0625 79.4625 29.6683 80.925 30.7466 82.0034C31.825 83.0817 33.2875 83.6875 34.8125 83.6875H72.1875C73.7125 83.6875 75.175 83.0817 76.2534 82.0034C77.3317 80.925 77.9375 79.4625 77.9375 77.9375V73.625C77.9375 75.15 77.3317 76.6125 76.2534 77.6909C75.175 78.7692 73.7125 79.375 72.1875 79.375Z" fill="#FFA221"/>
<path d="M53.5 36.25C53.1188 36.25 52.7531 36.4015 52.4835 36.671C52.2139 36.9406 52.0625 37.3063 52.0625 37.6875V48.0145C51.4611 48.229 50.9149 48.5745 50.4635 49.026C50.012 49.4774 49.6665 50.0236 49.452 50.625H42C41.6188 50.625 41.2531 50.7765 40.9835 51.046C40.714 51.3156 40.5625 51.6813 40.5625 52.0625C40.5625 52.4438 40.714 52.8094 40.9835 53.079C41.2531 53.3486 41.6188 53.5 42 53.5H49.452C49.7475 54.3384 50.2952 55.0648 51.02 55.5795C51.7448 56.0943 52.6111 56.3722 53.5 56.375C55.8776 56.375 57.8125 54.4401 57.8125 52.0625C57.8097 51.1736 57.5318 50.3073 57.017 49.5825C56.5023 48.8577 55.7759 48.31 54.9375 48.0145V37.6875C54.9375 37.3063 54.7861 36.9406 54.5165 36.671C54.2469 36.4015 53.8812 36.25 53.5 36.25ZM53.5 53.5C52.7079 53.5 52.0625 52.8546 52.0625 52.0625C52.0625 51.2704 52.7079 50.625 53.5 50.625C54.2921 50.625 54.9375 51.2704 54.9375 52.0625C54.9375 52.8546 54.2921 53.5 53.5 53.5Z" fill="#08105E"/>
<path d="M53.5 20.4375C36.0617 20.4375 21.875 34.6242 21.875 52.0625C21.875 55.2566 22.3508 58.422 23.2895 61.4695C23.4018 61.8338 23.6542 62.1385 23.9911 62.3167C24.3281 62.4949 24.7221 62.532 25.0864 62.4197C25.4507 62.3074 25.7554 62.055 25.9336 61.718C26.1118 61.3811 26.1488 60.9871 26.0366 60.6228C25.1822 57.8492 24.7481 54.9633 24.7486 52.0611C24.75 36.2098 37.6473 23.3125 53.5 23.3125C69.3527 23.3125 82.25 36.2098 82.25 52.0625C82.25 54.9691 81.8173 57.8499 80.962 60.6242C80.9027 60.8056 80.8801 60.997 80.8955 61.1872C80.911 61.3774 80.9641 61.5627 81.0519 61.7321C81.1397 61.9016 81.2603 62.0518 81.4067 62.1742C81.5532 62.2965 81.7226 62.3885 81.9049 62.4447C82.0873 62.5009 82.279 62.5202 82.4689 62.5016C82.6589 62.4829 82.8432 62.4266 83.0111 62.336C83.179 62.2453 83.3272 62.1222 83.4471 61.9736C83.5669 61.8251 83.656 61.6542 83.7091 61.4709C84.6478 58.422 85.1236 55.2581 85.1236 52.0639C85.125 34.6242 70.9383 20.4375 53.5 20.4375Z" fill="#08105E"/>
<path d="M53.5 26.1875C39.2328 26.1875 27.625 37.7953 27.625 52.0625C27.625 53.5661 27.7587 55.0741 28.0203 56.5417C28.0536 56.7276 28.1232 56.9051 28.2251 57.064C28.327 57.223 28.4593 57.3603 28.6142 57.4681C28.7692 57.576 28.9439 57.6523 29.1284 57.6926C29.3128 57.733 29.5034 57.7366 29.6892 57.7032C29.8751 57.6699 30.0526 57.6003 30.2115 57.4984C30.3705 57.3965 30.5078 57.2643 30.6156 57.1093C30.7235 56.9544 30.7998 56.7797 30.8401 56.5952C30.8805 56.4108 30.8841 56.2202 30.8508 56.0343C30.7071 55.1952 30.6111 54.3486 30.5632 53.4986H33.375C33.7562 53.4986 34.1219 53.3471 34.3915 53.0775C34.661 52.8079 34.8125 52.4423 34.8125 52.0611C34.8125 51.6798 34.661 51.3142 34.3915 51.0446C34.1219 50.775 33.7562 50.6236 33.375 50.6236H30.5733C30.76 47.568 31.5603 44.5814 32.9265 41.8419L34.1096 42.5247C34.2729 42.6196 34.4534 42.6814 34.6407 42.7063C34.8279 42.7313 35.0183 42.7189 35.2008 42.67C35.3833 42.6211 35.5543 42.5366 35.704 42.4214C35.8538 42.3062 35.9792 42.1625 36.0732 41.9986C36.2638 41.6684 36.3155 41.276 36.2168 40.9078C36.1181 40.5395 35.8772 40.2256 35.5471 40.0349L34.3525 39.3464C36.0502 36.7977 38.2366 34.6112 40.7853 32.9136L41.4739 34.1081C41.5676 34.2729 41.6929 34.4176 41.8428 34.5337C41.9926 34.6499 42.1639 34.7352 42.3469 34.7849C42.5298 34.8346 42.7208 34.8476 42.9088 34.8231C43.0968 34.7987 43.2781 34.7373 43.4423 34.6425C43.6065 34.5477 43.7503 34.4214 43.8654 34.2708C43.9806 34.1202 44.0648 33.9483 44.1133 33.7651C44.1617 33.5818 44.1735 33.3907 44.1478 33.2029C44.1221 33.0151 44.0595 32.8342 43.9636 32.6706L43.2808 31.4876C46.0206 30.122 49.0071 29.3218 52.0625 29.1344V31.9361C52.0625 32.3173 52.214 32.6829 52.4835 32.9525C52.7531 33.2221 53.1188 33.3736 53.5 33.3736C53.8813 33.3736 54.2469 33.2221 54.5165 32.9525C54.7861 32.6829 54.9375 32.3173 54.9375 31.9361V29.1344C58.077 29.3299 61.0426 30.1521 63.7192 31.4876L63.0364 32.6706C62.8488 33.0006 62.7993 33.3914 62.8987 33.7578C62.9982 34.1241 63.2385 34.4362 63.5673 34.626C63.896 34.8158 64.2865 34.8679 64.6535 34.7709C65.0204 34.6738 65.3342 34.4356 65.5261 34.1081L66.2147 32.9136C68.7634 34.6112 70.9498 36.7977 72.6475 39.3464L71.4529 40.0349C71.1255 40.2269 70.8872 40.5406 70.7902 40.9076C70.6932 41.2746 70.7452 41.6651 70.935 41.9938C71.1249 42.3225 71.437 42.5629 71.8033 42.6623C72.1696 42.7618 72.5604 42.7123 72.8904 42.5247L74.0735 41.8419C75.439 44.5816 76.2393 47.5681 76.4267 50.6236H73.625C73.2438 50.6236 72.8781 50.775 72.6085 51.0446C72.339 51.3142 72.1875 51.6798 72.1875 52.0611C72.1875 52.4423 72.339 52.8079 72.6085 53.0775C72.8781 53.3471 73.2438 53.4986 73.625 53.4986H76.4368C76.3889 54.3486 76.2929 55.1952 76.1493 56.0343C76.1123 56.2414 76.1211 56.454 76.1752 56.6573C76.2293 56.8606 76.3273 57.0495 76.4623 57.2108C76.5973 57.3721 76.766 57.5019 76.9565 57.5909C77.1471 57.68 77.3549 57.7262 77.5652 57.7263C77.9022 57.7258 78.2284 57.6069 78.4867 57.3904C78.7449 57.1739 78.9189 56.8735 78.9783 56.5417C79.2413 55.0741 79.3736 53.5661 79.3736 52.0625C79.3736 37.7953 67.7672 26.1875 53.5 26.1875ZM39.125 65H34.8125C34.4313 65 34.0656 65.1515 33.796 65.421C33.5265 65.6906 33.375 66.0563 33.375 66.4375C33.375 66.8187 33.5265 67.1844 33.796 67.454C34.0656 67.7235 34.4313 67.875 34.8125 67.875H39.125V70.75H36.25C34.6644 70.75 33.375 72.0394 33.375 73.625V76.5C33.375 78.0856 34.6644 79.375 36.25 79.375H40.5625C40.9437 79.375 41.3094 79.2235 41.579 78.954C41.8486 78.6844 42 78.3187 42 77.9375C42 77.5563 41.8486 77.1906 41.579 76.921C41.3094 76.6515 40.9437 76.5 40.5625 76.5H36.25V73.625H39.125C40.7106 73.625 42 72.3356 42 70.75V67.875C42 66.2894 40.7106 65 39.125 65ZM52.0625 65C51.6813 65 51.3156 65.1515 51.046 65.421C50.7765 65.6906 50.625 66.0563 50.625 66.4375V70.75H47.75V66.4375C47.75 66.0563 47.5986 65.6906 47.329 65.421C47.0594 65.1515 46.6938 65 46.3125 65C45.9313 65 45.5656 65.1515 45.296 65.421C45.0265 65.6906 44.875 66.0563 44.875 66.4375V70.75C44.875 72.3356 46.1644 73.625 47.75 73.625H50.625V77.9375C50.625 78.3187 50.7765 78.6844 51.046 78.954C51.3156 79.2235 51.6813 79.375 52.0625 79.375C52.4438 79.375 52.8094 79.2235 53.079 78.954C53.3486 78.6844 53.5 78.3187 53.5 77.9375V66.4375C53.5 66.0563 53.3486 65.6906 53.079 65.421C52.8094 65.1515 52.4438 65 52.0625 65ZM70.1132 65H66.4375C66.0563 65 65.6906 65.1515 65.421 65.421C65.1515 65.6906 65 66.0563 65 66.4375C65 66.8187 65.1515 67.1844 65.421 67.454C65.6906 67.7235 66.0563 67.875 66.4375 67.875H70.1132L66.5295 77.4329C66.4119 77.7861 66.4357 78.1712 66.596 78.5071C66.7563 78.8431 67.0406 79.1039 67.3891 79.2347C67.7376 79.3656 68.1233 79.3562 68.465 79.2087C68.8068 79.0611 69.0781 78.7869 69.2219 78.4435L72.8056 68.8856C72.9683 68.4506 73.0233 67.9826 72.9658 67.5218C72.9083 67.0609 72.7401 66.6209 72.4755 66.2392C72.2109 65.8575 71.8578 65.5455 71.4465 65.33C71.0351 65.1144 70.5776 65.0003 70.1132 65ZM60.9692 63.5913C60.5954 63.5163 60.2072 63.593 59.8899 63.8043C59.5726 64.0157 59.3522 64.3444 59.2773 64.7183L56.4023 79.0933C56.3604 79.3019 56.3653 79.5173 56.4168 79.7239C56.4682 79.9304 56.5649 80.123 56.6998 80.2876C56.8348 80.4523 57.0046 80.5849 57.197 80.6759C57.3894 80.7669 57.5996 80.8141 57.8125 80.8139C58.1445 80.8134 58.466 80.698 58.7225 80.4873C58.979 80.2767 59.1548 79.9837 59.2198 79.6582L62.0948 65.2832C62.1697 64.9094 62.0931 64.5211 61.8817 64.2038C61.6704 63.8865 61.3431 63.6662 60.9692 63.5913Z" fill="#08105E"/>
<path d="M72.1875 59.25H34.8125C30.8493 59.25 27.625 62.4743 27.625 66.4375V77.9375C27.625 81.9007 30.8493 85.125 34.8125 85.125H72.1875C76.1507 85.125 79.375 81.9007 79.375 77.9375V66.4375C79.375 62.4743 76.1507 59.25 72.1875 59.25ZM76.5 77.9375C76.5 80.3151 74.5651 82.25 72.1875 82.25H34.8125C32.4349 82.25 30.5 80.3151 30.5 77.9375V66.4375C30.5 64.0599 32.4349 62.125 34.8125 62.125H72.1875C74.5651 62.125 76.5 64.0599 76.5 66.4375V77.9375Z" fill="#08105E"/>
</svg>
