<svg width="108" height="108" viewBox="0 0 108 108" fill="none" xmlns="http://www.w3.org/2000/svg">
<circle cx="54" cy="54" r="53" fill="white" stroke="#785EA2" stroke-width="2"/>
<g clip-path="url(#clip0_117_863)">
<path d="M70.2299 29.3452C70.3452 29.3462 70.4604 29.3472 70.5792 29.3482C72.4293 29.3887 74.2285 30.0993 75.6072 31.4482C75.7425 31.5781 75.7425 31.5781 75.8805 31.7106C77.316 33.1608 78.2988 35.1911 78.3807 37.3264C78.3831 37.5601 78.3833 37.7938 78.3812 38.0275C78.3802 38.1508 78.3793 38.2742 78.3784 38.4013C78.3405 40.3811 77.6765 42.3065 76.416 43.7819C76.3351 43.8784 76.2541 43.9749 76.1707 44.0744C74.8156 45.6106 72.9184 46.6623 70.923 46.75C70.7046 46.7525 70.4862 46.7526 70.2678 46.7504C70.1526 46.7494 70.0373 46.7484 69.9186 46.7474C68.0685 46.7069 66.2693 45.9963 64.8905 44.6474C64.8004 44.5608 64.7102 44.4742 64.6173 44.385C63.1817 42.9348 62.1989 40.9045 62.117 38.7692C62.1146 38.5355 62.1145 38.3018 62.1166 38.0681C62.1175 37.9447 62.1184 37.8214 62.1194 37.6943C62.1573 35.7145 62.8213 33.7891 64.0817 32.3137C64.1626 32.2172 64.2436 32.1207 64.327 32.0212C65.8827 30.2576 67.9702 29.3221 70.2299 29.3452Z" fill="#FCC964"/>
<path d="M67.9776 49.2437C68.0896 49.2423 68.2016 49.241 68.317 49.2396C68.4375 49.2404 68.558 49.2413 68.6821 49.2422C68.8062 49.2418 68.9304 49.2414 69.0583 49.241C69.3207 49.2407 69.5832 49.2415 69.8456 49.2433C70.2477 49.2456 70.6496 49.2433 71.0517 49.2405C71.3065 49.2408 71.5614 49.2414 71.8162 49.2422C71.9367 49.2414 72.0572 49.2404 72.1814 49.2396C72.3494 49.2416 72.3494 49.2416 72.5208 49.2437C72.6193 49.244 72.7177 49.2444 72.8191 49.2447C73.1747 49.3196 73.2699 49.4182 73.4844 49.7325C73.5446 50.0725 73.5372 50.4086 73.533 50.7538C73.5334 50.8585 73.5337 50.9631 73.5341 51.0709C73.5348 51.4225 73.5325 51.7739 73.5303 52.1254C73.5302 52.377 73.5302 52.6286 73.5305 52.8803C73.5306 53.5643 73.5282 54.2482 73.5254 54.9322C73.5232 55.5743 73.5227 56.2164 73.5223 56.8585C73.5214 58.1304 73.5187 59.4022 73.5149 60.6739C73.5112 61.9094 73.5083 63.1449 73.5066 64.3804C73.5065 64.4946 73.5065 64.4946 73.5063 64.6111C73.5057 64.9931 73.5053 65.3752 73.5048 65.7572C73.5006 68.9267 73.4931 72.096 73.4844 75.2654C71.3491 75.2654 69.2139 75.2654 67.014 75.2654C67.0051 72.0201 66.9976 68.7747 66.9933 65.5293C66.9928 65.1463 66.9923 64.7633 66.9917 64.3804C66.9916 64.266 66.9916 64.266 66.9914 64.1493C66.9897 62.9141 66.9865 61.6788 66.9828 60.4436C66.979 59.1765 66.9767 57.9094 66.9759 56.6424C66.9754 55.9305 66.9741 55.2187 66.9712 54.5068C66.9685 53.8373 66.9676 53.1677 66.9682 52.4981C66.9681 52.252 66.9673 52.0058 66.9657 51.7597C66.9638 51.4244 66.9642 51.0891 66.9653 50.7538C66.9641 50.6557 66.963 50.5576 66.9617 50.4566C66.9677 49.8003 66.9677 49.8003 67.2029 49.4557C67.4777 49.2567 67.6469 49.2449 67.9776 49.2437Z" fill="black"/>
<path d="M58.2722 58.7644C58.3842 58.7631 58.4962 58.7617 58.6117 58.7603C58.7321 58.7612 58.8526 58.762 58.9767 58.763C59.1009 58.7625 59.225 58.7621 59.3529 58.7617C59.6153 58.7614 59.8778 58.7622 60.1402 58.764C60.5423 58.7663 60.9442 58.764 61.3463 58.7612C61.6012 58.7615 61.856 58.7621 62.1109 58.763C62.2313 58.7621 62.3518 58.7612 62.476 58.7603C62.644 58.7624 62.644 58.7624 62.8154 58.7644C62.9139 58.7648 63.0123 58.7651 63.1138 58.7655C63.4577 58.8379 63.5621 58.9614 63.779 59.2532C63.8288 59.5565 63.8288 59.5565 63.8276 59.9131C63.8282 60.0485 63.8288 60.1838 63.8293 60.3232C63.8279 60.4728 63.8264 60.6225 63.8249 60.7722C63.8248 60.93 63.8249 61.0878 63.8251 61.2456C63.8252 61.6739 63.8228 62.1022 63.82 62.5304C63.8175 62.978 63.8173 63.4256 63.8168 63.8733C63.8155 64.7208 63.8122 65.5683 63.8081 66.4159C63.8036 67.3809 63.8014 68.3458 63.7994 69.3107C63.7951 71.2957 63.7877 73.2805 63.779 75.2654C61.6438 75.2654 59.5085 75.2654 57.3086 75.2654C57.2994 73.1851 57.292 71.1049 57.2876 69.0246C57.2855 68.0588 57.2827 67.0928 57.2781 66.127C57.2741 65.2853 57.2714 64.4435 57.2705 63.6017C57.27 63.1559 57.2688 62.7101 57.2658 62.2643C57.2631 61.8448 57.2622 61.4254 57.2628 61.0059C57.2627 60.8518 57.2619 60.6978 57.2604 60.5437C57.2584 60.3335 57.2591 60.1233 57.2599 59.9131C57.2596 59.7954 57.2592 59.6778 57.2588 59.5565C57.3616 58.9299 57.7198 58.7664 58.2722 58.7644Z" fill="black"/>
<path d="M61.9585 45.9457C62.2044 46.3404 62.1911 46.6252 62.1859 47.0816C62.1856 47.167 62.1851 47.2523 62.1847 47.3402C62.1651 48.9321 62.0514 50.5241 61.9585 52.1125C61.3913 52.0768 60.8241 52.0412 60.2397 52.0044C60.2397 51.2903 60.2397 50.5762 60.2397 49.8405C59.4424 50.8448 59.4424 50.8448 58.6601 51.8623C58.2934 52.3444 57.9117 52.8084 57.5207 53.2679C57.3352 53.4867 57.1534 53.708 56.9729 53.9315C56.0794 55.0265 55.1402 56.0685 54.1737 57.0893C53.8425 57.4431 53.5124 57.7979 53.1828 58.1534C52.9971 58.3532 52.8114 58.553 52.6256 58.7528C52.4873 58.9021 52.4873 58.9021 52.3462 59.0545C51.8261 59.6131 51.2962 60.1473 50.7363 60.6596C50.5738 60.817 50.4115 60.9747 50.2497 61.1329C49.8131 61.5546 49.3636 61.955 48.9062 62.3505C48.6507 62.5742 48.3995 62.8024 48.1494 63.033C47.4228 63.7012 46.6665 64.3184 45.8952 64.9259C45.6851 65.0924 45.4767 65.2612 45.2686 65.4305C42.9246 67.3262 40.4422 69.0453 37.8965 70.6131C37.7746 70.6882 37.7746 70.6882 37.6503 70.7648C37.1299 71.0833 36.6051 71.392 36.0767 71.695C35.9911 71.7442 35.9056 71.7933 35.8174 71.8439C34.2405 72.745 32.6363 73.5799 31.0217 74.3998C30.7416 74.1165 30.6036 73.8522 30.4467 73.4734C30.4025 73.3684 30.3583 73.2634 30.3128 73.1552C30.2129 72.8852 30.2129 72.8852 30.2129 72.6687C30.3746 72.5855 30.3746 72.5855 30.5395 72.5007C33.4968 70.9844 33.4968 70.9844 36.38 69.3149C36.4693 69.26 36.5585 69.2052 36.6505 69.1487C40.8115 66.5822 44.6966 63.6087 48.3457 60.2705C48.5232 60.1085 48.7014 59.9474 48.8797 59.7865C49.456 59.2644 50.0197 58.7421 50.5445 58.16C50.7153 57.9773 50.8899 57.8114 51.0747 57.6455C51.6697 57.0923 52.2206 56.4907 52.7767 55.8936C52.9664 55.69 53.1566 55.487 53.3469 55.2841C53.8941 54.6989 54.437 54.1154 54.9386 53.4844C55.1758 53.1871 55.4277 52.9047 55.6776 52.6197C56.1275 52.1021 56.5543 51.5713 56.9678 51.0196C57.3026 50.5802 57.6501 50.1528 57.9993 49.7265C58.3057 49.3485 58.5731 48.9644 58.8243 48.5423C58.7049 48.5826 58.5856 48.6228 58.4626 48.6644C58.3052 48.7162 58.1477 48.7678 57.9902 48.8195C57.9117 48.8462 57.8331 48.8729 57.7521 48.9004C57.6378 48.9375 57.6378 48.9375 57.5211 48.9754C57.4512 48.9986 57.3813 49.0219 57.3093 49.0458C57.1056 49.0832 57.1056 49.0832 56.7012 48.975C56.501 48.1717 56.501 48.1717 56.2968 47.3521C57.372 46.955 58.4535 46.5812 59.5426 46.2303C59.6824 46.185 59.822 46.1389 59.9614 46.0921C60.1604 46.0255 60.3601 45.9616 60.56 45.8983C60.676 45.8605 60.792 45.8228 60.9116 45.7838C61.3212 45.7179 61.576 45.7812 61.9585 45.9457Z" fill="black"/>
<path d="M29 76.9965C44.7474 76.9965 60.4949 76.9965 76.7195 76.9965C76.7195 77.5678 76.7195 78.139 76.7195 78.7276C60.972 78.7276 45.2246 78.7276 29 78.7276C29 78.1563 29 77.5851 29 76.9965Z" fill="black"/>
<path d="M70.2299 29.3452C70.3452 29.3462 70.4604 29.3472 70.5792 29.3482C72.4293 29.3887 74.2285 30.0993 75.6072 31.4482C75.7425 31.5781 75.7425 31.5781 75.8805 31.7106C77.316 33.1608 78.2988 35.1911 78.3807 37.3264C78.3831 37.5601 78.3833 37.7938 78.3812 38.0275C78.3802 38.1508 78.3793 38.2742 78.3784 38.4013C78.3405 40.3811 77.6765 42.3065 76.416 43.7819C76.3351 43.8784 76.2541 43.9749 76.1707 44.0744C74.8156 45.6106 72.9184 46.6623 70.923 46.75C70.7046 46.7525 70.4862 46.7526 70.2678 46.7504C70.1526 46.7494 70.0373 46.7484 69.9186 46.7474C68.0685 46.7069 66.2693 45.9963 64.8905 44.6474C64.8004 44.5608 64.7102 44.4742 64.6173 44.385C63.1817 42.9348 62.1989 40.9045 62.117 38.7692C62.1146 38.5355 62.1145 38.3018 62.1166 38.0681C62.1175 37.9447 62.1184 37.8214 62.1194 37.6943C62.1573 35.7145 62.8213 33.7891 64.0817 32.3137C64.1626 32.2172 64.2436 32.1207 64.327 32.0212C65.8827 30.2576 67.9702 29.3221 70.2299 29.3452ZM65.1137 33.7202C64.0123 35.3222 63.5609 37.157 63.7785 39.1297C64.1536 41.1194 65.1664 42.7624 66.7285 43.9171C67.1772 44.2151 67.6325 44.447 68.1257 44.6474C68.2475 44.6993 68.2475 44.6993 68.3718 44.7523C70.0706 45.3649 71.8056 44.9605 73.3786 44.1732C74.983 43.227 75.9641 41.7113 76.5297 39.8934C76.9851 38.19 76.7864 36.3983 76.0369 34.8291C75.0212 32.9739 73.5671 31.7792 71.6315 31.195C69.1136 30.7111 66.7884 31.6613 65.1137 33.7202Z" fill="#010000"/>
<path d="M68.6318 51.0307C69.6995 51.0307 70.7671 51.0307 71.8671 51.0307C71.8671 59.0282 71.8671 67.0256 71.8671 75.2654C70.7994 75.2654 69.7318 75.2654 68.6318 75.2654C68.6318 67.268 68.6318 59.2705 68.6318 51.0307Z" fill="#67CC6D"/>
<path d="M58.9258 60.5515C59.9934 60.5515 61.061 60.5515 62.161 60.5515C62.161 65.4071 62.161 70.2628 62.161 75.2655C61.0934 75.2655 60.0257 75.2655 58.9258 75.2655C58.9258 70.4099 58.9258 65.5543 58.9258 60.5515Z" fill="#70CC76"/>
<path d="M48.566 68.2853C48.678 68.284 48.79 68.2826 48.9054 68.2812C49.0259 68.2821 49.1464 68.2829 49.2705 68.2838C49.3946 68.2834 49.5188 68.283 49.6467 68.2826C49.9091 68.2823 50.1715 68.2831 50.434 68.2849C50.8361 68.2872 51.238 68.2849 51.6401 68.2822C51.8949 68.2824 52.1498 68.283 52.4046 68.2838C52.5251 68.283 52.6456 68.2821 52.7698 68.2812C52.9378 68.2832 52.9378 68.2832 53.1092 68.2853C53.2077 68.2857 53.3061 68.286 53.4075 68.2864C53.7517 68.3589 53.869 68.4707 54.0728 68.7741C54.1214 69.0725 54.1214 69.0725 54.1187 69.4191C54.1186 69.5508 54.1186 69.6826 54.1186 69.8183C54.1154 70.0253 54.1154 70.0253 54.1123 70.2364C54.1119 70.3635 54.1115 70.4907 54.1111 70.6217C54.109 71.0968 54.1033 71.5718 54.0981 72.0469C54.0898 73.109 54.0814 74.1712 54.0728 75.2655C51.9375 75.2655 49.8023 75.2655 47.6024 75.2655C47.594 74.2034 47.5857 73.1412 47.5771 72.0469C47.5734 71.7119 47.5697 71.3769 47.5659 71.0318C47.5648 70.7667 47.5637 70.5015 47.5628 70.2364C47.5608 70.0984 47.5587 69.9604 47.5566 69.8183C47.5566 69.6866 47.5565 69.5548 47.5564 69.4191C47.5556 69.3048 47.5546 69.1904 47.5537 69.0725C47.6566 68.4416 48.0083 68.2873 48.566 68.2853Z" fill="black"/>
<path d="M69.4396 32.8547C69.9734 32.8547 70.5073 32.8547 71.0572 32.8547C71.0572 33.1761 71.0572 33.4974 71.0572 33.8285C71.1448 33.8374 71.2324 33.8463 71.3226 33.8555C72.0246 34.0224 72.4669 34.5242 72.877 35.1267C73.1037 35.5789 73.0792 35.7608 73.0792 36.3168C72.5454 36.3168 72.0116 36.3168 71.4616 36.3168C71.3615 36.1026 71.2615 35.8884 71.1583 35.6677C70.8239 35.5484 70.5562 35.5338 70.2042 35.5257C70.0896 35.5216 69.9751 35.5176 69.8571 35.5134C69.5328 35.5321 69.5328 35.5321 69.3002 35.7577C69.1131 35.9881 69.1131 35.9881 69.0858 36.3168C69.1491 36.7233 69.2368 36.8258 69.5407 37.0742C69.8834 37.134 69.8834 37.134 70.261 37.1283C71.2079 37.1665 71.8647 37.3376 72.5232 38.0952C73.0069 38.7051 73.1279 39.2242 73.11 40.0122C73.0257 40.855 72.6674 41.3687 72.0683 41.8984C71.7005 42.1758 71.5192 42.2673 71.0572 42.2673C71.0572 42.5887 71.0572 42.91 71.0572 43.241C70.5234 43.241 69.9896 43.241 69.4396 43.241C69.4396 42.9197 69.4396 42.5984 69.4396 42.2673C69.3416 42.2673 69.2436 42.2673 69.1426 42.2673C68.5719 42.1815 68.1981 41.7292 67.822 41.2936C67.5145 40.8 67.4642 40.3581 67.4176 39.7789C67.9514 39.7789 68.4852 39.7789 69.0352 39.7789C69.1353 39.9932 69.2354 40.2074 69.3385 40.4281C69.6236 40.5806 69.8675 40.5547 70.1852 40.5566C70.3007 40.5581 70.4162 40.5597 70.5352 40.5612C70.841 40.5374 71.008 40.5016 71.2594 40.3199C71.3995 40.0201 71.3795 39.7861 71.3605 39.4543C71.1864 39.1029 71.1864 39.1029 70.855 39.0216C70.6681 39.0116 70.4812 39.0019 70.2942 38.9958C69.3304 38.9601 68.7149 38.8346 68.0432 38.0682C67.5417 37.4016 67.3554 36.8134 67.3836 35.9602C67.4799 35.1314 67.9146 34.633 68.4965 34.1061C68.8242 33.8702 69.0487 33.8285 69.4396 33.8285C69.4396 33.5071 69.4396 33.1858 69.4396 32.8547Z" fill="#020100"/>
<path d="M49.2197 70.0723C50.2873 70.0723 51.3549 70.0723 52.4549 70.0723C52.4549 71.786 52.4549 73.4997 52.4549 75.2654C51.3873 75.2654 50.3196 75.2654 49.2197 75.2654C49.2197 73.5517 49.2197 71.8379 49.2197 70.0723Z" fill="#7ACC7F"/>
</g>
<defs>
<clipPath id="clip0_117_863">
<rect width="49.3827" height="50" fill="white" transform="translate(29 29)"/>
</clipPath>
</defs>
</svg>
