<svg width="24" height="24" viewBox="0 0 24 24" fill="none" xmlns="http://www.w3.org/2000/svg">
<g style="mix-blend-mode:luminosity">
<path d="M20.8847 20.8885V20.8879H20.8892V14.3679C20.8892 11.1783 20.2025 8.72119 16.4736 8.72119C14.6809 8.72119 13.4781 9.70497 12.9869 10.6374H12.9352V9.01897H9.39961V20.8879H13.0812V15.0107C13.0812 13.4634 13.3745 11.967 15.2907 11.967C17.1789 11.967 17.2069 13.733 17.2069 15.1099V20.8885H20.8847Z" fill="#785EA2"/>
<path d="M3.40547 9.021H7.09147V20.8899H3.40547V9.021Z" fill="#785EA2"/>
<path d="M5.24642 3.11182C4.06775 3.11182 3.11153 4.06804 3.11153 5.24671C3.11153 6.42537 4.06775 7.40159 5.24642 7.40159C6.42508 7.40159 7.3813 6.42537 7.3813 5.24671C7.38041 4.06804 6.42419 3.11182 5.24642 3.11182Z" fill="#785EA2"/>
</g>
</svg>
