<svg width="108" height="108" viewBox="0 0 108 108" fill="none" xmlns="http://www.w3.org/2000/svg">
<circle cx="54" cy="54" r="53" fill="white" stroke="#785EA2" stroke-width="2"/>
<g clip-path="url(#clip0_117_925)">
<path d="M57.0322 25.8333C57.2557 25.9398 57.2557 25.9398 57.4294 26.0974C57.5 26.1595 57.5706 26.2215 57.6433 26.2854C57.7615 26.3948 57.7615 26.3948 57.8822 26.5065C58.028 26.6352 58.1738 26.764 58.3195 26.8927C58.6074 27.1484 58.8918 27.4072 59.1767 27.6656C59.3054 27.7819 59.4341 27.8983 59.5628 28.0146C59.9101 28.3284 60.257 28.6426 60.6038 28.9568C60.9674 29.2861 61.3311 29.6151 61.6948 29.9441C62.3048 30.496 62.9144 31.048 63.524 31.6002C64.2292 32.239 64.9348 32.8774 65.6406 33.5157C66.2471 34.0642 66.8534 34.6129 67.4595 35.1617C67.8213 35.4893 68.1832 35.8169 68.5453 36.1443C68.885 36.4515 69.2245 36.7589 69.5638 37.0666C69.6886 37.1796 69.8134 37.2926 69.9384 37.4055C70.1083 37.559 70.278 37.7129 70.4476 37.8669C70.5428 37.9531 70.6379 38.0392 70.736 38.1281C71.0159 38.3971 71.053 38.4773 71.0836 38.8514C71.056 39.2137 71.0222 39.3373 70.7383 39.5847C70.4244 39.6794 70.2227 39.6925 69.8957 39.6918C69.7893 39.6918 69.683 39.6917 69.5735 39.6917C69.4589 39.6912 69.3443 39.6907 69.2263 39.6902C69.1088 39.6901 68.9914 39.69 68.8704 39.6898C68.4947 39.6893 68.1191 39.6881 67.7434 39.6868C67.4889 39.6863 67.2344 39.6859 66.9799 39.6855C66.3557 39.6845 65.7314 39.6829 65.1071 39.6808C65.1083 39.7894 65.1094 39.8979 65.1107 40.0098C65.1215 41.0328 65.1294 42.0558 65.1346 43.0788C65.1374 43.6048 65.1412 44.1307 65.1472 44.6566C65.153 45.1642 65.1561 45.6717 65.1575 46.1792C65.1585 46.3729 65.1604 46.5666 65.1633 46.7602C65.1672 47.0315 65.1677 47.3026 65.1674 47.5738C65.1693 47.6539 65.1712 47.734 65.1732 47.8165C65.1691 48.2339 65.147 48.3859 64.851 48.7257C64.5759 48.9125 64.5759 48.9125 64.3634 48.9125C64.3634 49.4202 64.3634 49.928 64.3634 50.4511C64.6373 50.4452 64.9112 50.4392 65.1935 50.4331C68.8315 50.4094 72.0032 51.7428 74.6694 53.913C74.7752 53.9983 74.7753 53.9983 74.8832 54.0854C77.2082 56.0719 78.6458 59.1492 78.7426 62.0147C78.7458 62.2631 78.7472 62.5116 78.7467 62.76C78.7467 62.8252 78.7465 62.8904 78.7465 62.9576C78.7303 66.4226 77.1837 69.3925 74.4895 71.8168C72.8014 73.2851 70.7443 74.207 68.507 74.7804C68.3193 74.8297 68.3193 74.8297 68.1277 74.88C66.1233 75.3086 63.4369 75.3158 61.4792 74.7099C60.8163 74.5108 60.2249 74.4494 59.5293 74.4503C59.4234 74.4494 59.3175 74.4484 59.2085 74.4474C58.8624 74.4445 58.5164 74.4436 58.1702 74.4427C57.9288 74.4411 57.6873 74.4394 57.4459 74.4375C56.8133 74.4329 56.1806 74.43 55.548 74.4276C54.9012 74.4247 54.2545 74.4202 53.6078 74.4158C52.341 74.4076 51.0742 74.4011 49.8074 74.3958C49.7767 74.4711 49.746 74.5465 49.7144 74.6242C49.5949 74.8766 49.5949 74.8766 49.3824 75.0689C48.6325 75.1346 48.6325 75.1346 48.2667 74.8946C48.1073 74.6842 48.1073 74.6842 48.1073 74.3958C46.6722 74.3972 45.2369 74.4012 43.8017 74.4085C43.1354 74.4118 42.469 74.4142 41.8026 74.4145C41.1598 74.415 40.5171 74.4177 39.8743 74.4221C39.6288 74.4233 39.3832 74.4237 39.1376 74.4233C38.7944 74.4228 38.4513 74.4253 38.1081 74.4285C38.0059 74.4277 37.9037 74.4269 37.7985 74.426C37.5402 74.4301 37.3085 74.4364 37.0575 74.4919C36.8287 74.7152 36.8287 74.7152 36.7388 74.9728C36.5422 75.1507 36.2687 75.0969 36.0062 75.1098C35.6759 75.0494 35.5646 74.9223 35.3576 74.6842C35.3053 74.3786 35.3053 74.3786 35.3065 74.0101C35.3061 73.9422 35.3057 73.8744 35.3054 73.8044C35.3046 73.577 35.307 73.3497 35.3093 73.1223C35.3094 72.9592 35.3094 72.7962 35.3091 72.6332C35.309 72.1906 35.3115 71.7479 35.3144 71.3053C35.3171 70.8428 35.3174 70.3802 35.3179 69.9177C35.3192 69.0418 35.3227 68.1658 35.327 67.2899C35.3317 66.2927 35.3341 65.2955 35.3362 64.2982C35.3406 62.2469 35.3481 60.1955 35.3576 58.1442C35.2893 58.145 35.2211 58.1459 35.1507 58.1468C34.4406 58.1553 33.7305 58.1611 33.0204 58.1653C32.7553 58.1673 32.4903 58.1698 32.2252 58.1732C31.8444 58.1779 31.4636 58.18 31.0827 58.1818C30.9641 58.1837 30.8454 58.1857 30.7232 58.1878C30.5573 58.1878 30.5573 58.1878 30.3881 58.1878C30.2909 58.1887 30.1937 58.1895 30.0935 58.1904C29.7318 58.1263 29.6143 58.0358 29.4077 57.7595C29.3317 57.2838 29.3276 57.0983 29.6246 56.6973C29.7259 56.6015 29.8296 56.5078 29.9351 56.4158C29.9918 56.3633 30.0486 56.3108 30.107 56.2568C30.2972 56.0818 30.4902 55.9098 30.6833 55.7376C30.8204 55.6126 30.9574 55.4874 31.0942 55.3621C31.4659 55.0226 31.8402 54.6856 32.2152 54.349C32.6072 53.9965 32.9972 53.6421 33.3874 53.2879C34.043 52.6936 34.7004 52.1008 35.3588 51.5089C36.1201 50.8245 36.8785 50.1376 37.6354 49.4493C38.3636 48.7873 39.0939 48.1271 39.8251 47.4678C40.1362 47.1871 40.4467 46.9058 40.7565 46.6239C41.1214 46.2921 41.488 45.9621 41.8561 45.6332C41.9909 45.5122 42.1251 45.3907 42.2586 45.2685C42.4409 45.1018 42.6254 44.9374 42.8106 44.7734C42.863 44.7245 42.9154 44.6757 42.9694 44.6253C43.2635 44.3697 43.4185 44.2979 43.8298 44.2602C44.1957 44.2987 44.3106 44.3331 44.568 44.5611C44.6723 44.6526 44.6723 44.6526 44.7788 44.7459C44.8604 44.8198 44.942 44.8937 45.0262 44.9698C45.1372 45.0627 45.2484 45.1553 45.3599 45.2478C45.4768 45.3473 45.5935 45.4469 45.7101 45.5468C45.7667 45.5935 45.8233 45.6402 45.8816 45.6883C46.2798 46.0388 46.3927 46.2974 46.4074 46.7969C46.3724 46.9239 46.3373 47.0508 46.3012 47.1816C46.8622 47.6893 47.4232 48.1971 48.0011 48.7202C48.0537 44.2457 48.0537 44.2457 48.1073 39.6808C46.383 39.6923 46.383 39.6923 44.6586 39.7068C44.442 39.7076 44.2255 39.7084 44.009 39.709C43.8969 39.7105 43.7849 39.7119 43.6696 39.7135C42.6723 39.7138 42.6723 39.7138 42.2637 39.3923C42.0966 39.0899 42.1207 38.8611 42.1575 38.5269C42.3273 38.3065 42.4748 38.1479 42.6842 37.964C42.7409 37.9116 42.7975 37.8592 42.8559 37.8052C43.046 37.6302 43.2386 37.4578 43.4314 37.2852C43.5683 37.1602 43.7051 37.035 43.8418 36.9097C44.2133 36.57 44.5871 36.2325 44.9615 35.8954C45.2738 35.6139 45.5849 35.3312 45.8961 35.0486C46.6299 34.3818 47.3657 33.7168 48.1028 33.0528C48.8633 32.3678 49.6208 31.6801 50.3769 30.9911C51.0261 30.3996 51.6769 29.8097 52.3291 29.2209C52.7187 28.8693 53.1077 28.5171 53.4951 28.1635C53.8594 27.8311 54.2258 27.5007 54.5938 27.1716C54.7286 27.0506 54.8625 26.9288 54.9957 26.8064C55.1778 26.6393 55.3623 26.4748 55.5476 26.3107C55.5997 26.2618 55.6518 26.2128 55.7054 26.1624C56.1486 25.7784 56.4491 25.7674 57.0322 25.8333Z" fill="#FEDF7C"/>
<path d="M73.8526 53.2653C74.1295 53.4767 74.3998 53.6937 74.6691 53.9129C74.7397 53.9699 74.8102 54.0267 74.8829 54.0853C77.2078 56.0719 78.6455 59.1492 78.7423 62.0147C78.7455 62.2631 78.7468 62.5115 78.7464 62.76C78.7463 62.8252 78.7462 62.8903 78.7462 62.9576C78.7299 66.4225 77.1834 69.3924 74.4892 71.8168C72.8011 73.285 70.744 74.2069 68.5067 74.7803C68.3815 74.8132 68.2563 74.846 68.1274 74.8799C66.1659 75.2994 63.6457 75.2802 61.7068 74.7803C61.6012 74.7547 61.4957 74.729 61.3868 74.7026C58.0544 73.7965 55.0423 71.642 53.3132 68.9144C52.1089 66.8773 51.588 64.9465 51.5734 62.6458C51.5726 62.5813 51.5717 62.5168 51.5709 62.4503C51.5583 61.2003 51.766 60.0146 52.2109 58.8293C52.2375 58.7579 52.2642 58.6866 52.2917 58.6131C52.7694 57.3918 53.4809 56.2686 54.3757 55.2592C54.4617 55.1597 54.5477 55.0602 54.6363 54.9576C56.9523 52.3358 60.3359 50.8511 63.9855 50.4744C67.5676 50.1657 71.0899 51.2068 73.8526 53.2653Z" fill="#E3636D"/>
<path d="M56.5013 27.6605C56.8764 27.8054 57.1178 28.0021 57.4049 28.2622C57.5003 28.3481 57.5957 28.434 57.6939 28.5225C57.7988 28.6179 57.9036 28.7134 58.0084 28.8088C58.1194 28.9091 58.2304 29.0094 58.3414 29.1097C58.6427 29.3818 58.9432 29.6546 59.2436 29.9274C59.5577 30.2126 59.8725 30.4973 60.1871 30.7821C60.7152 31.2601 61.2428 31.7384 61.7701 32.217C62.3807 32.7712 62.9918 33.3248 63.6032 33.8781C64.1907 34.4098 64.778 34.9417 65.365 35.4739C65.6153 35.7007 65.8655 35.9274 66.1159 36.154C66.4102 36.4205 66.7043 36.6872 66.9981 36.9541C67.1062 37.0524 67.2146 37.1505 67.3229 37.2485C67.4702 37.3817 67.617 37.5153 67.764 37.6488C67.8464 37.7237 67.929 37.7985 68.014 37.8756C68.1887 38.0461 68.1886 38.0461 68.1886 38.1423C68.0653 38.1436 67.942 38.1451 67.815 38.1465C67.3572 38.1521 66.8994 38.1595 66.4416 38.1675C66.2435 38.1707 66.0454 38.1734 65.8474 38.1756C65.5625 38.1788 65.2777 38.1838 64.9929 38.1892C64.9044 38.1898 64.816 38.1904 64.7249 38.1911C64.6419 38.193 64.559 38.1949 64.4736 38.1969C64.4009 38.1979 64.3282 38.199 64.2533 38.2001C63.945 38.2568 63.828 38.3066 63.6199 38.5269C63.5548 38.8386 63.5631 39.148 63.5667 39.4643C63.5661 39.5605 63.5655 39.6567 63.5649 39.7558C63.5636 40.0744 63.5653 40.393 63.5672 40.7116C63.5672 40.9326 63.567 41.1535 63.5668 41.3745C63.5666 41.8379 63.568 42.3012 63.5704 42.7646C63.5734 43.3593 63.5731 43.954 63.5717 44.5487C63.571 45.0051 63.5719 45.4614 63.5732 45.9178C63.5736 46.1371 63.5737 46.3564 63.5733 46.5757C63.573 46.8819 63.5747 47.1881 63.577 47.4943C63.5766 47.5854 63.5761 47.6765 63.5756 47.7704C63.5766 47.8538 63.5777 47.9371 63.5788 48.023C63.579 48.0954 63.5793 48.1678 63.5795 48.2423C63.6321 48.4888 63.7225 48.5661 63.9387 48.7202C64.079 48.7837 64.2192 48.8472 64.3637 48.9125C64.3637 49.4203 64.3637 49.928 64.3637 50.4512C63.531 50.6665 63.531 50.6665 63.185 50.7085C60.561 51.0509 58.0446 52.0393 56.1062 53.7072C55.8638 53.913 55.8638 53.913 55.5504 54.1407C55.2064 54.3981 54.9343 54.688 54.6619 55.0069C54.6118 55.0654 54.5617 55.1238 54.5101 55.1841C52.1161 58.0343 51.2933 61.4085 51.7964 64.9437C52.3313 67.9031 54.3383 70.8078 56.9898 72.5864C57.765 73.0805 58.5862 73.4836 59.4412 73.8525C59.8096 74.0119 60.1022 74.1716 60.4325 74.3958C56.8912 74.3958 53.35 74.3958 49.7014 74.3958C49.7004 73.3107 49.6995 72.2257 49.6984 71.1077C49.6949 67.6392 49.6894 64.1706 49.6825 60.7021C49.6814 60.1636 49.6804 59.6253 49.6794 59.0868C49.6791 58.9796 49.679 58.8724 49.6787 58.762C49.6754 57.0244 49.6736 55.2869 49.6724 53.5493C49.6711 51.7675 49.6682 49.9857 49.6637 48.204C49.6611 47.1038 49.6596 46.0036 49.6598 44.9034C49.6598 44.1498 49.6583 43.3962 49.6555 42.6426C49.654 42.2073 49.6531 41.772 49.654 41.3367C49.6549 40.9386 49.6538 40.5406 49.6512 40.1425C49.6506 39.998 49.6507 39.8536 49.6516 39.7091C49.6527 39.5136 49.651 39.3181 49.6491 39.1226C49.649 39.0137 49.6488 38.9049 49.6487 38.7927C49.6223 38.5163 49.6224 38.5163 49.3923 38.3478C49.153 38.23 49.0119 38.2008 48.7416 38.1969C48.6586 38.1949 48.5757 38.193 48.4903 38.1911C48.4018 38.1904 48.3133 38.1898 48.2222 38.1892C48.1309 38.1875 48.0395 38.1857 47.9454 38.184C47.6541 38.1788 47.363 38.1755 47.0717 38.1723C46.8741 38.1691 46.6764 38.1658 46.4787 38.1623C45.9946 38.1542 45.5106 38.1478 45.0265 38.1423C45.5599 37.5591 46.1388 37.0264 46.7312 36.4923C46.8381 36.3956 46.9449 36.2988 47.0518 36.2021C47.3399 35.9412 47.6284 35.6807 47.917 35.4202C48.2192 35.1473 48.5211 34.8741 48.8231 34.6009C49.3941 34.0844 49.9653 33.5682 50.5367 33.052C51.1875 32.4641 51.838 31.8758 52.4885 31.2876C53.8257 30.0782 55.1634 28.8692 56.5013 27.6605Z" fill="#B2E49E"/>
<path d="M57.0323 25.8333C57.2557 25.9398 57.2557 25.9398 57.4295 26.0974C57.5001 26.1595 57.5706 26.2215 57.6433 26.2854C57.7616 26.3948 57.7616 26.3948 57.8823 26.5065C58.028 26.6352 58.1738 26.764 58.3196 26.8927C58.6074 27.1484 58.8918 27.4072 59.1767 27.6656C59.3054 27.7819 59.4342 27.8983 59.5629 28.0146C59.9101 28.3284 60.2571 28.6426 60.6039 28.9568C60.9674 29.2861 61.3311 29.6151 61.6949 29.9441C62.3048 30.496 62.9145 31.048 63.524 31.6002C64.2293 32.239 64.9349 32.8774 65.6407 33.5157C66.2472 34.0642 66.8534 34.6129 67.4595 35.1617C67.8214 35.4893 68.1832 35.8169 68.5453 36.1443C68.8851 36.4515 69.2246 36.7589 69.5638 37.0666C69.6886 37.1796 69.8135 37.2926 69.9384 37.4055C70.1084 37.559 70.278 37.7129 70.4476 37.8669C70.5428 37.9531 70.638 38.0392 70.736 38.1281C71.0159 38.3971 71.053 38.4773 71.0837 38.8514C71.056 39.2137 71.0222 39.3373 70.7383 39.5847C70.4245 39.6794 70.2227 39.6925 69.8958 39.6918C69.7894 39.6918 69.683 39.6917 69.5735 39.6917C69.459 39.6912 69.3444 39.6907 69.2264 39.6902C69.1089 39.6901 68.9914 39.69 68.8704 39.6898C68.4948 39.6893 68.1191 39.6881 67.7435 39.6868C67.489 39.6863 67.2345 39.6859 66.98 39.6855C66.3557 39.6845 65.7314 39.6829 65.1072 39.6808C65.1083 39.7894 65.1095 39.8979 65.1108 40.0098C65.1215 41.0328 65.1295 42.0558 65.1347 43.0788C65.1375 43.6048 65.1413 44.1307 65.1472 44.6566C65.153 45.1642 65.1562 45.6717 65.1575 46.1792C65.1585 46.3729 65.1604 46.5666 65.1633 46.7602C65.1672 47.0315 65.1677 47.3026 65.1675 47.5738C65.1703 47.6939 65.1703 47.6939 65.1733 47.8165C65.1692 48.2294 65.1455 48.3865 64.8581 48.7253C64.5759 48.9125 64.5759 48.9125 64.2505 48.9185C63.8788 48.7968 63.7463 48.7221 63.5134 48.4317C63.4487 48.1166 63.4543 47.8046 63.4567 47.4849C63.4558 47.3889 63.455 47.2928 63.454 47.1939C63.4516 46.8762 63.4523 46.5586 63.4533 46.241C63.4527 46.0203 63.4521 45.7998 63.4513 45.5792C63.4501 45.1168 63.4506 44.6544 63.4522 44.192C63.454 43.5989 63.4515 43.0059 63.4478 42.4128C63.4454 41.9573 63.4456 41.5018 63.4465 41.0462C63.4466 40.8275 63.4458 40.6088 63.4443 40.3901C63.4424 40.0845 63.444 39.7792 63.4464 39.4737C63.4445 39.3377 63.4445 39.3377 63.4426 39.199C63.444 39.1157 63.4453 39.0324 63.4467 38.9466C63.4467 38.8744 63.4468 38.8022 63.4469 38.7278C63.5134 38.5269 63.5134 38.5269 64.0447 38.1422C65.3771 38.1105 66.7094 38.0787 68.0821 38.046C64.3305 34.6505 60.5788 31.255 56.7135 27.7566C56.3174 27.9358 56.1203 28.0774 55.8139 28.3554C55.7195 28.4406 55.625 28.5258 55.5277 28.6136C55.4238 28.7083 55.32 28.8029 55.2162 28.8976C55.1063 28.9972 54.9963 29.0967 54.8863 29.1961C54.588 29.4661 54.2903 29.7367 53.9927 30.0073C53.6816 30.2901 53.3698 30.5724 53.0581 30.8548C52.468 31.3894 51.8785 31.9245 51.2892 32.4599C50.6182 33.0693 49.9466 33.6782 49.275 34.2871C47.8935 35.5394 46.5127 36.7925 45.1325 38.046C45.3117 38.0474 45.3117 38.0474 45.4946 38.0488C45.9392 38.0526 46.3837 38.0589 46.8283 38.066C47.0204 38.0687 47.2127 38.0708 47.4048 38.0721C47.6816 38.0742 47.9582 38.0787 48.2348 38.0836C48.3632 38.0838 48.3632 38.0838 48.4942 38.084C48.575 38.0858 48.6558 38.0878 48.739 38.0897C48.8095 38.0906 48.8801 38.0915 48.9527 38.0923C49.2838 38.1684 49.4585 38.3116 49.7011 38.5269C49.7683 38.8053 49.7683 38.8053 49.7693 39.136C49.7711 39.2621 49.7727 39.3882 49.7745 39.5181C49.7737 39.6584 49.7728 39.7986 49.7719 39.9389C49.7729 40.0876 49.7741 40.2364 49.7755 40.3851C49.7787 40.7945 49.7787 41.2038 49.778 41.6132C49.7779 42.0544 49.7808 42.4957 49.7834 42.9369C49.7879 43.8015 49.7896 44.6661 49.7902 45.5308C49.7908 46.2334 49.7925 46.936 49.7949 47.6386C49.7953 47.7385 49.7956 47.8384 49.7959 47.9413C49.7966 48.1442 49.7974 48.3471 49.7981 48.5501C49.8043 50.3455 49.8078 52.141 49.81 53.9365C49.8121 55.6797 49.8164 57.4228 49.8232 59.1659C49.8306 61.0629 49.8367 62.9599 49.8404 64.8568C49.8408 65.059 49.8412 65.2613 49.8416 65.4634C49.8418 65.5629 49.842 65.6624 49.8422 65.765C49.8437 66.4668 49.8461 67.1687 49.8489 67.8706C49.8522 68.7258 49.8541 69.581 49.8539 70.4361C49.8538 70.8727 49.8545 71.3092 49.857 71.7457C49.8592 72.1451 49.8595 72.5444 49.8582 72.9438C49.8581 73.0885 49.8587 73.2332 49.8601 73.3779C49.8619 73.5742 49.8608 73.7705 49.8595 73.9668C49.8597 74.076 49.8599 74.1852 49.8601 74.2976C49.7956 74.653 49.6584 74.8142 49.3824 75.0689C49.1699 75.1294 49.1699 75.1294 48.9574 75.123C48.8873 75.1231 48.8172 75.1232 48.7449 75.1234C48.4345 75.0438 48.3096 74.9099 48.1074 74.6842C48.0546 74.412 48.0546 74.412 48.0551 74.0903C48.0538 73.9062 48.0538 73.9062 48.0525 73.7184C48.0538 73.582 48.055 73.4456 48.0563 73.3091C48.0561 73.1644 48.0558 73.0197 48.0552 72.875C48.0543 72.4768 48.0559 72.0786 48.0581 71.6803C48.06 71.2511 48.0593 70.8219 48.059 70.3926C48.0588 69.6488 48.0601 68.905 48.0625 68.1611C48.0659 67.0856 48.0671 66.0101 48.0676 64.9346C48.0685 63.1898 48.0713 61.445 48.0754 59.7002C48.0793 58.005 48.0823 56.3099 48.0841 54.6148C48.0842 54.5103 48.0843 54.4058 48.0844 54.2982C48.085 53.7742 48.0855 53.2502 48.0861 52.7262C48.0904 48.3778 48.0979 44.0293 48.1074 39.6808C48.0421 39.6815 47.9767 39.6821 47.9093 39.6828C47.2285 39.6892 46.5477 39.6935 45.8669 39.6967C45.6129 39.6981 45.3588 39.7001 45.1048 39.7026C44.7395 39.7061 44.3743 39.7078 44.009 39.709C43.8955 39.7105 43.7821 39.7119 43.6651 39.7135C42.6722 39.7137 42.6722 39.7137 42.2638 39.3923C42.0966 39.0899 42.1208 38.8611 42.1575 38.5269C42.3274 38.3065 42.4749 38.1479 42.6842 37.964C42.7409 37.9116 42.7975 37.8592 42.8559 37.8052C43.0461 37.6302 43.2387 37.4578 43.4314 37.2852C43.5684 37.1602 43.7052 37.035 43.8419 36.9097C44.2134 36.57 44.5871 36.2325 44.9616 35.8954C45.2738 35.6139 45.585 35.3312 45.8961 35.0486C46.63 34.3818 47.3658 33.7168 48.1029 33.0528C48.8633 32.3678 49.6208 31.6801 50.3769 30.9911C51.0261 30.3996 51.677 29.8097 52.3292 29.2209C52.7187 28.8693 53.1077 28.5171 53.4951 28.1635C53.8595 27.8311 54.2259 27.5007 54.5939 27.1716C54.7286 27.0506 54.8626 26.9288 54.9958 26.8064C55.1779 26.6393 55.3623 26.4748 55.5477 26.3107C55.5998 26.2618 55.6519 26.2128 55.7055 26.1624C56.1487 25.7784 56.4492 25.7674 57.0323 25.8333Z" fill="#030302"/>
<path d="M51.5077 32.2762C51.5077 32.3863 51.5077 32.4964 51.5078 32.6098C51.5093 35.2863 51.5139 37.9629 51.5217 40.6393C51.5224 40.8969 51.5232 41.1543 51.5238 41.4119C51.524 41.4759 51.5242 41.5399 51.5244 41.6058C51.5272 42.6424 51.5282 43.679 51.5285 44.7156C51.5288 45.7791 51.5312 46.8427 51.5353 47.9061C51.5376 48.5036 51.5389 49.1009 51.538 49.6984C51.5372 50.2604 51.5389 50.8225 51.5425 51.3845C51.5433 51.5911 51.5433 51.7975 51.5424 52.0041C51.5411 52.2857 51.5431 52.5671 51.546 52.8487C51.5448 52.9308 51.5437 53.0128 51.5425 53.0973C51.5504 53.5155 51.5722 53.673 51.8691 54.0124C52.1578 54.2101 52.2553 54.2657 52.6079 54.2281C53.2117 54.1312 53.5009 53.8019 53.8783 53.3901C54.0167 53.2484 54.1556 53.1072 54.295 52.9664C54.3966 52.8632 54.3966 52.8632 54.5003 52.7579C56.8851 50.4177 60.5351 49.2579 63.9387 48.9125C64.079 48.9125 64.2192 48.9125 64.3637 48.9125C64.3637 49.4202 64.3637 49.928 64.3637 50.4511C63.531 50.6664 63.531 50.6664 63.185 50.7084C60.561 51.0509 58.0446 52.0392 56.1062 53.7071C55.8638 53.913 55.8638 53.913 55.5504 54.1406C55.2064 54.3981 54.9343 54.688 54.6619 55.0068C54.6118 55.0653 54.5617 55.1238 54.5101 55.184C52.1161 58.0343 51.2933 61.4083 51.7964 64.9437C52.3313 67.903 54.3383 70.8077 56.9898 72.5864C57.765 73.0804 58.5862 73.4835 59.4412 73.8524C59.8096 74.0119 60.1022 74.1716 60.4325 74.3958C56.8912 74.3958 53.35 74.3958 49.7014 74.3958C49.7004 73.3107 49.6995 72.2256 49.6984 71.1077C49.6949 67.6391 49.6894 64.1706 49.6825 60.7021C49.6814 60.1636 49.6804 59.6252 49.6794 59.0867C49.6791 58.9796 49.679 58.8724 49.6787 58.7619C49.6754 57.0244 49.6736 55.2868 49.6724 53.5493C49.6711 51.7675 49.6682 49.9857 49.6637 48.2039C49.6611 47.1037 49.6596 46.0035 49.6598 44.9033C49.6598 44.1498 49.6583 43.3962 49.6555 42.6425C49.654 42.2072 49.6531 41.7719 49.654 41.3366C49.6549 40.9385 49.6538 40.5404 49.6512 40.1424C49.6506 39.998 49.6507 39.8535 49.6516 39.7091C49.6527 39.5135 49.651 39.318 49.6491 39.1225C49.649 39.0137 49.6488 38.9048 49.6487 38.7927C49.6223 38.5162 49.6224 38.5162 49.3923 38.3478C49.153 38.2299 49.0119 38.2008 48.7416 38.1968C48.6586 38.1949 48.5757 38.193 48.4903 38.191C48.3576 38.1901 48.3576 38.1901 48.2222 38.1891C48.0852 38.1866 48.0852 38.1866 47.9454 38.1839C47.6541 38.1787 47.363 38.1754 47.0717 38.1722C46.8741 38.169 46.6764 38.1658 46.4787 38.1623C45.9946 38.1541 45.5106 38.1477 45.0265 38.1422C45.6297 37.4757 46.3046 36.8753 46.9775 36.2674C47.105 36.1519 47.2325 36.0365 47.3599 35.921C47.6256 35.6804 47.8915 35.4399 48.1575 35.1996C48.4992 34.8909 48.8404 34.5818 49.1815 34.2725C49.4439 34.0347 49.7066 33.7971 49.9693 33.5596C50.0953 33.4456 50.2212 33.3315 50.3471 33.2174C50.522 33.0587 50.6974 32.9004 50.8728 32.7422C50.925 32.6948 50.9773 32.6472 51.0311 32.5983C51.3893 32.2762 51.3893 32.2762 51.5077 32.2762Z" fill="#93D3A1"/>
<path d="M73.8526 53.2653C74.1295 53.4767 74.3998 53.6937 74.6691 53.9129C74.7397 53.9699 74.8102 54.0267 74.8829 54.0853C77.2078 56.0719 78.6455 59.1492 78.7423 62.0147C78.7455 62.2631 78.7468 62.5115 78.7464 62.76C78.7463 62.8252 78.7462 62.8903 78.7462 62.9576C78.7299 66.4225 77.1834 69.3924 74.4892 71.8168C72.8011 73.285 70.744 74.2069 68.5067 74.7803C68.3815 74.8132 68.2563 74.846 68.1274 74.8799C66.1659 75.2994 63.6457 75.2802 61.7068 74.7803C61.6012 74.7547 61.4957 74.729 61.3868 74.7026C58.0544 73.7965 55.0423 71.642 53.3132 68.9144C52.1089 66.8773 51.588 64.9465 51.5734 62.6458C51.5726 62.5813 51.5717 62.5168 51.5709 62.4503C51.5583 61.2003 51.766 60.0146 52.2109 58.8293C52.2375 58.7579 52.2642 58.6866 52.2917 58.6131C52.7694 57.3918 53.4809 56.2686 54.3757 55.2592C54.4617 55.1597 54.5477 55.0602 54.6363 54.9576C56.9523 52.3358 60.3359 50.8511 63.9855 50.4744C67.5676 50.1657 71.0899 51.2068 73.8526 53.2653ZM61.4147 52.4284C61.3347 52.4531 61.2547 52.4778 61.1724 52.5032C58.0948 53.4967 55.6547 55.5342 54.2296 58.1802C52.9702 60.6026 52.727 63.6723 53.7025 66.2169C54.9243 69.2188 57.1917 71.4419 60.389 72.7916C61.1273 73.0889 61.8737 73.28 62.6631 73.434C62.7417 73.451 62.8202 73.4679 62.9011 73.4853C65.7676 74.0674 68.872 73.4599 71.3551 72.0953C73.8946 70.5987 75.6805 68.5936 76.6148 65.9694C76.6406 65.8971 76.6664 65.8249 76.6929 65.7505C77.6304 62.97 77.1388 60.1411 75.6984 57.5972C74.1739 55.1226 71.841 53.4196 68.9317 52.4705C68.8446 52.44 68.7575 52.4095 68.6678 52.3781C67.5433 52.0029 66.3463 51.9582 65.1599 51.9656C64.9814 51.9645 64.9814 51.9645 64.7992 51.9634C63.6403 51.9658 62.5138 52.0865 61.4147 52.4284Z" fill="#020101"/>
<path d="M44.1762 44.2966C44.3899 44.4033 44.3899 44.4033 44.568 44.5611C44.6723 44.6525 44.6723 44.6525 44.7788 44.7459C44.8604 44.8198 44.942 44.8936 45.0262 44.9698C45.1372 45.0627 45.2484 45.1553 45.3599 45.2477C45.4768 45.3473 45.5935 45.4469 45.7101 45.5467C45.7667 45.5935 45.8233 45.6401 45.8816 45.6883C46.279 46.038 46.3925 46.2982 46.4074 46.7969C46.3012 47.0854 46.3012 47.0854 46.1285 47.1996C45.7702 47.3105 45.5103 47.314 45.1324 47.2777C44.8859 47.1039 44.7049 46.9561 44.5015 46.7488C44.4492 46.6983 44.3968 46.6479 44.3428 46.5959C44.2147 46.472 44.089 46.3462 43.9637 46.2199C43.5883 46.3649 43.3472 46.5618 43.06 46.8223C42.9647 46.9083 42.8693 46.9944 42.7711 47.083C42.6662 47.1786 42.5614 47.2741 42.4566 47.3698C42.3456 47.4703 42.2346 47.5707 42.1235 47.6711C41.8223 47.9436 41.5219 48.2168 41.2214 48.49C40.9073 48.7756 40.5925 49.0605 40.2778 49.3456C39.6822 49.8853 39.087 50.4256 38.492 50.966C37.8146 51.5812 37.1366 52.1959 36.4586 52.8106C35.0638 54.075 33.6698 55.34 32.2764 56.6055C32.4661 56.6069 32.4661 56.6069 32.6598 56.6082C33.1295 56.6121 33.5991 56.6184 34.0688 56.6255C34.272 56.6282 34.4752 56.6303 34.6785 56.6315C34.9708 56.6336 35.2629 56.6381 35.5551 56.6431C35.6459 56.6432 35.7367 56.6433 35.8302 56.6435C35.9153 56.6453 36.0003 56.6472 36.0879 56.6492C36.1625 56.6501 36.237 56.6509 36.3138 56.6518C36.6353 56.7273 36.7558 56.8449 36.9513 57.0863C36.9941 57.3344 37.0109 57.5421 37.0086 57.7901C37.0096 57.8612 37.0106 57.9323 37.0117 58.0055C37.0146 58.2437 37.0144 58.4819 37.0143 58.7201C37.0158 58.8909 37.0174 59.0617 37.0193 59.2324C37.0236 59.6964 37.0253 60.1603 37.0264 60.6242C37.0278 61.1095 37.0315 61.5948 37.0349 62.0801C37.0401 62.8952 37.0437 63.7103 37.0462 64.5254C37.0492 65.4679 37.0548 66.4104 37.0619 67.3528C37.0686 68.2592 37.0735 69.1655 37.0775 70.0719C37.0793 70.4577 37.0817 70.8435 37.0846 71.2294C37.0878 71.6838 37.0896 72.1382 37.0901 72.5925C37.0905 72.7594 37.0915 72.9262 37.093 73.093C37.0951 73.3206 37.0951 73.5482 37.0947 73.7759C37.0957 73.8419 37.0968 73.908 37.0979 73.9761C37.094 74.4253 36.9889 74.7464 36.6325 75.0688C35.8657 75.1257 35.8657 75.1257 35.5593 74.9161C35.2864 74.6024 35.3052 74.4069 35.3065 74.01C35.3061 73.9422 35.3057 73.8743 35.3054 73.8043C35.3046 73.5769 35.307 73.3496 35.3093 73.1222C35.3094 72.9592 35.3094 72.7962 35.3091 72.6332C35.309 72.1905 35.3115 71.7479 35.3144 71.3053C35.3171 70.8427 35.3174 70.3802 35.3179 69.9177C35.3192 69.0417 35.3227 68.1658 35.327 67.2898C35.3317 66.2927 35.3341 65.2954 35.3362 64.2982C35.3406 62.2469 35.3481 60.1955 35.3576 58.1441C35.2893 58.145 35.2211 58.1458 35.1507 58.1467C34.4406 58.1552 33.7305 58.1611 33.0204 58.1653C32.7553 58.1672 32.4903 58.1698 32.2252 58.1732C31.8444 58.1778 31.4636 58.18 31.0827 58.1817C30.9641 58.1836 30.8454 58.1857 30.7232 58.1877C30.5573 58.1877 30.5573 58.1877 30.3881 58.1878C30.2909 58.1886 30.1937 58.1895 30.0935 58.1904C29.7318 58.1262 29.6143 58.0357 29.4077 57.7594C29.3317 57.2838 29.3276 57.0983 29.6246 56.6973C29.7259 56.6015 29.8296 56.5078 29.9351 56.4157C29.9918 56.3633 30.0486 56.3107 30.107 56.2567C30.2972 56.0818 30.4902 55.9098 30.6833 55.7376C30.8204 55.6126 30.9574 55.4874 31.0942 55.3621C31.4659 55.0226 31.8402 54.6856 32.2152 54.349C32.6072 53.9964 32.9972 53.642 33.3874 53.2878C34.043 52.6935 34.7004 52.1007 35.3588 51.5088C36.1201 50.8245 36.8785 50.1376 37.6354 49.4493C38.3636 48.7872 39.0939 48.127 39.8251 47.4677C40.1362 47.1871 40.4467 46.9057 40.7565 46.6239C41.1214 46.2921 41.488 45.962 41.8561 45.6332C41.9909 45.5122 42.1251 45.3906 42.2586 45.2685C42.4409 45.1018 42.6254 44.9374 42.8106 44.7733C42.863 44.7245 42.9154 44.6756 42.9694 44.6253C43.3633 44.2829 43.6409 44.2403 44.1762 44.2966Z" fill="#010000"/>
<path d="M38.7573 50.7396C38.7573 58.5461 38.7573 66.3526 38.7573 74.3957C38.1612 74.3957 37.5652 74.3957 36.9511 74.3957C36.9505 74.1795 36.9499 73.9633 36.9492 73.7406C36.9432 71.707 36.9354 69.6736 36.9261 67.6401C36.9213 66.5946 36.9171 65.549 36.9143 64.5035C36.9119 63.5924 36.9083 62.6814 36.9034 61.7703C36.9009 61.2877 36.8989 60.8051 36.8982 60.3225C36.8976 59.8686 36.8955 59.4146 36.8922 58.9607C36.8913 58.7938 36.8909 58.627 36.8911 58.4601C36.8912 58.2327 36.8894 58.0055 36.8872 57.7782C36.8877 57.7117 36.8882 57.6452 36.8888 57.5767C36.8843 57.3019 36.8775 57.1268 36.6956 56.9013C36.4812 56.7705 36.3477 56.7599 36.0901 56.7563C36.0028 56.7544 35.9157 56.7525 35.8258 56.7505C35.7322 56.7499 35.6385 56.7493 35.542 56.7486C35.4458 56.7469 35.3496 56.7452 35.2504 56.7435C34.943 56.7382 34.6356 56.7349 34.3281 56.7317C34.1197 56.7286 33.9113 56.7252 33.7028 56.7218C33.1919 56.7136 32.6809 56.7072 32.1699 56.7017C32.7796 56.0273 33.4636 55.4207 34.1442 54.8059C34.2741 54.6883 34.4039 54.5706 34.5338 54.453C34.8045 54.2079 35.0753 53.9629 35.3464 53.7181C35.6944 53.4036 36.0421 53.0886 36.3896 52.7735C36.6569 52.5312 36.9245 52.2891 37.1922 52.0472C37.3206 51.931 37.4489 51.8148 37.5771 51.6985C37.7554 51.5369 37.934 51.3756 38.1127 51.2144C38.1659 51.166 38.2192 51.1176 38.2741 51.0678C38.639 50.7396 38.639 50.7396 38.7573 50.7396Z" fill="#FCCE63"/>
<path d="M62.803 55.8843C63.7211 56.3507 64.2161 56.9485 64.5884 57.8357C64.8726 58.7698 64.7113 59.6814 64.2573 60.5482C63.7691 61.2854 63.1744 61.7211 62.2916 62.0207C61.4212 62.1755 60.7849 62.0894 60.0073 61.7021C59.3519 61.2825 58.9146 60.8413 58.6261 60.1636C58.5887 60.0936 58.5513 60.0237 58.5128 59.9517C58.2106 59.1322 58.2804 58.0818 58.6858 57.3087C59.5878 55.931 61.0882 55.1771 62.803 55.8843Z" fill="#040102"/>
<path d="M70.3134 63.914C71.1307 64.403 71.63 65.1262 71.869 65.986C72.0301 66.9816 71.82 67.7696 71.2962 68.65C70.7515 69.2525 70.0967 69.8196 69.2119 69.9144C68.0332 69.9073 67.3645 69.7781 66.4938 69.0418C65.6017 68.1266 65.5721 67.0893 65.6385 65.9334C65.7802 65.1096 66.3529 64.4172 67.0795 63.92C68.0802 63.3414 69.3085 63.3445 70.3134 63.914Z" fill="#030101"/>
<path d="M54.4824 57.7595C54.63 58.0881 54.5492 58.3292 54.4467 58.6615C53.5783 61.5129 54.2932 64.5555 55.8501 67.0951C56.6844 68.3814 57.7445 69.4517 59.0511 70.3569C59.1327 70.4142 59.2143 70.4715 59.2985 70.5304C60.5564 71.3708 61.9978 72.0251 63.5135 72.3764C63.6195 72.4013 63.7256 72.4263 63.8348 72.452C64.7865 72.658 65.685 72.7058 66.6611 72.6949C66.8008 72.6952 66.9405 72.6955 67.0845 72.6958C68.1023 72.6908 69.0649 72.5993 70.0478 72.3583C70.4028 72.2837 70.5151 72.2842 70.8446 72.3764C67.7419 73.7232 64.4428 74.1166 61.1432 73.0677C59.8025 72.6069 58.5534 71.9637 57.4574 71.1262C57.3298 71.0301 57.3298 71.0301 57.1996 70.9321C55.5403 69.6358 54.4743 68.069 53.7387 66.2219C53.7049 66.1431 53.6713 66.0642 53.6366 65.983C53.2263 64.9757 53.1683 63.8956 53.1742 62.8322C53.1748 62.7191 53.1753 62.606 53.1758 62.4895C53.2009 60.7953 53.5865 59.2612 54.4824 57.7595Z" fill="#D84554"/>
<path d="M68.2942 56.221C68.5598 56.4253 68.5598 56.4253 68.7192 56.7018C68.6785 57.2059 68.4688 57.6355 68.2514 58.0942C68.2143 58.1739 68.1773 58.2536 68.1391 58.3358C68.0165 58.5988 67.893 58.8613 67.7696 59.1239C67.6832 59.3089 67.5968 59.4941 67.5105 59.6792C67.3308 60.0647 67.1507 60.45 66.9705 60.8354C66.5898 61.6499 66.2137 62.4662 65.8372 63.2824C65.6014 63.7931 65.3646 64.3034 65.128 64.8138C64.9035 65.2982 64.6804 65.783 64.4585 66.2683C64.322 66.5661 64.1848 66.8637 64.0473 67.1612C63.9841 67.2986 63.9212 67.4361 63.8587 67.5738C63.7735 67.7615 63.687 67.9487 63.6002 68.1358C63.5522 68.2404 63.5043 68.345 63.4549 68.4528C63.2943 68.7331 63.1469 68.9092 62.8755 69.1068C62.234 69.1781 62.234 69.1781 61.9534 68.9825C61.7494 68.7439 61.7491 68.518 61.7614 68.2241C61.8631 67.6896 62.1267 67.2042 62.3726 66.7133C62.5575 66.3437 62.7364 65.9717 62.9166 65.6002C62.9556 65.5202 62.9947 65.4402 63.0349 65.3576C63.485 64.4324 63.9122 63.4986 64.3397 62.5646C64.5649 62.0728 64.791 61.5812 65.0171 61.0896C65.0608 60.9946 65.1045 60.8995 65.1495 60.8016C65.5286 59.9773 65.909 59.1536 66.2928 58.3311C66.3557 58.1962 66.4185 58.0613 66.4811 57.9263C66.5661 57.743 66.6517 57.5599 66.7374 57.3768C66.7845 57.2757 66.8317 57.1747 66.8802 57.0705C67.2306 56.3833 67.4143 56.1386 68.2942 56.221Z" fill="#040102"/>
<path d="M61.9194 57.0864C62.4342 57.3194 62.6972 57.5996 62.9819 58.0481C63.1998 58.6396 63.1396 59.2272 62.8748 59.7989C62.6725 60.1298 62.3984 60.3796 62.0256 60.5483C61.5977 60.5971 61.1594 60.6336 60.7627 60.4612C60.3839 60.1917 60.1551 59.9003 60.0069 59.4905C59.9332 58.8254 59.9314 58.239 60.3256 57.6634C60.805 57.148 61.1795 56.9801 61.9194 57.0864Z" fill="#E1626C"/>
<path d="M69.3705 65.074C69.846 65.3641 70.1327 65.7311 70.3135 66.222C70.4107 66.9406 70.2344 67.5332 69.7557 68.1141C69.4431 68.3994 69.1458 68.4712 68.7198 68.4938C68.359 68.4757 68.1139 68.4328 67.8233 68.2354C67.2416 67.6319 67.1668 67.1223 67.1878 66.3343C67.2698 65.7721 67.5451 65.4268 68.0159 65.068C68.5005 64.9009 68.8833 64.9241 69.3705 65.074Z" fill="#E1626C"/>
<path d="M70.8437 72.3764C70.7067 72.4409 70.5695 72.5049 70.4321 72.5686C70.3556 72.6044 70.2792 72.6401 70.2004 72.6769C69.9938 72.761 69.9938 72.761 69.7812 72.761C69.8875 72.4725 69.8875 72.4725 70.1332 72.3523C70.4364 72.2757 70.5514 72.2973 70.8437 72.3764Z" fill="#C03E4B"/>
</g>
<defs>
<clipPath id="clip0_117_925">
<rect width="50" height="49.3827" fill="white" transform="translate(29 26)"/>
</clipPath>
</defs>
</svg>
