<svg width="108" height="108" viewBox="0 0 108 108" fill="none" xmlns="http://www.w3.org/2000/svg">
<circle cx="54" cy="54" r="53" fill="white" stroke="#7C77DC" stroke-width="2"/>
<g clip-path="url(#clip0_117_1031)">
<path d="M36.4657 72.1351V82.8203C42.5519 83.0887 40.7958 84.1642 51.385 88.9253C52.7337 89.4559 55.8469 90.3249 59.1812 88.7927L59.1878 88.79L79.9909 81.3415C80.6678 81.0301 84.0825 79.1748 82.7356 75.7195C81.161 72.0349 77.109 73.5719 76.7694 73.6824L65.9088 76.6851" fill="#EAC092"/>
<path d="M48.7533 76.6054L60.8483 80.4383C62.9592 81.0386 65.1568 79.8139 65.7571 77.7031C66.3573 75.5923 65.1327 73.3947 62.714 72.4971L51.9843 68.8555C51.9839 68.8547 49.6934 65.1144 44.239 65.1144C40.795 65.1144 37.8258 67.8981 36.4659 70.3348V75.2004" fill="#FEDBAB"/>
<path d="M43.9336 76.4255C43.846 76.4255 43.7571 76.4161 43.6708 76.3985C43.584 76.3816 43.4991 76.3558 43.4174 76.3217C43.3366 76.288 43.2584 76.2462 43.1856 76.1976C43.1115 76.1491 43.0428 76.0925 42.9808 76.0305C42.9188 75.9685 42.8622 75.8998 42.8137 75.8256C42.7638 75.7529 42.7234 75.6747 42.6897 75.5925C42.656 75.5116 42.6291 75.4267 42.6129 75.3405C42.5954 75.2542 42.5859 75.1653 42.5859 75.0777C42.5859 74.9901 42.5954 74.9012 42.6129 74.8149C42.6291 74.7287 42.656 74.6438 42.6897 74.5615C42.7234 74.4807 42.7638 74.4025 42.8137 74.3297C42.8622 74.2556 42.9188 74.1869 42.9808 74.1249C43.0428 74.0629 43.1115 74.0063 43.1856 73.9578C43.2584 73.9093 43.3366 73.8675 43.4174 73.8338C43.4991 73.7997 43.584 73.7739 43.6708 73.757C43.8433 73.722 44.0225 73.722 44.1964 73.757C44.2826 73.7732 44.3675 73.8001 44.4484 73.8338C44.5306 73.8675 44.6088 73.9093 44.6815 73.9578C44.7557 74.0063 44.8244 74.0629 44.8864 74.1249C44.9484 74.1869 45.005 74.2556 45.0535 74.3297C45.102 74.4025 45.1438 74.4807 45.1775 74.5615C45.2112 74.6438 45.2368 74.7287 45.2543 74.8149C45.2718 74.9012 45.2812 74.9901 45.2812 75.0777C45.2804 75.2544 45.2452 75.4293 45.1775 75.5925C45.144 75.6741 45.1025 75.7522 45.0535 75.8256C45.005 75.8998 44.9484 75.9685 44.8864 76.0305C44.8244 76.0925 44.7557 76.1491 44.6815 76.1976C44.6088 76.2461 44.5306 76.288 44.4484 76.3217C44.3675 76.3554 44.2826 76.3824 44.1964 76.3985C44.1101 76.4161 44.0212 76.4255 43.9336 76.4255Z" fill="black"/>
<path d="M31.3604 70.1625H36.4657V84.6417H31.3604V70.1625Z" fill="#EAECF0"/>
<path d="M23.3477 70.1625H31.3608V87.1537H23.3477V70.1625Z" fill="#3688C8"/>
<path d="M83.9912 75.23C83.986 75.2166 83.9806 75.2032 83.9749 75.19C82.7346 72.2875 79.8255 71.2148 76.3828 72.3906L66.9939 74.987C66.4511 73.3432 65.0971 71.9443 63.1826 71.2338C63.1708 71.2294 63.1589 71.2252 63.1469 71.2211L52.8264 67.7183C51.9674 66.608 49.2767 63.7668 44.2388 63.7668C40.718 63.7668 37.6034 66.1821 35.8216 68.8148H23.3477C22.6033 68.8148 22 69.4181 22 70.1624V87.1533C22 87.8976 22.6033 88.5009 23.3477 88.5009H31.3604C32.1047 88.5009 32.7081 87.8976 32.7081 87.1533V85.9897H36.4657C37.2101 85.9897 37.8134 85.3864 37.8134 84.642V84.2542C40.0039 84.4453 40.7243 84.8608 42.7361 86.0208C44.2832 86.913 46.6215 88.2613 50.8324 90.1546C50.852 90.1634 50.8718 90.1717 50.8916 90.1796C51.6998 90.4975 53.2796 90.9969 55.2274 90.9969C56.5832 90.9969 58.1175 90.7547 59.6923 90.0409L80.445 82.6105C80.4819 82.5972 80.5183 82.5824 80.5539 82.566C82.5373 81.6535 85.4928 79.0817 83.9912 75.23ZM30.0128 85.8055H24.6953V71.5099H30.0128V85.8055ZM35.1181 83.2943H32.7081V71.5099H35.1181V83.2943ZM79.477 80.094L58.7336 87.521C58.6947 87.5352 58.6563 87.5509 58.6185 87.5679C55.7295 88.8956 52.9834 88.1008 51.9072 87.6824C47.8397 85.8521 45.6688 84.6003 44.0826 83.6856C41.8773 82.414 40.8146 81.801 37.8134 81.5532V70.6989C39.0908 68.6052 41.5681 66.462 44.2389 66.462C48.819 66.462 50.7598 69.441 50.8361 69.5612C51.0006 69.8289 51.2535 70.0306 51.551 70.1316L62.2615 73.7667C63.9721 74.4087 64.8761 75.8736 64.4606 77.3345C64.3672 77.6666 64.2088 77.9768 63.9947 78.2473C63.7805 78.5177 63.5149 78.743 63.2131 78.9101C62.6108 79.2476 61.8993 79.3328 61.2343 79.147L49.1603 75.3207C48.4503 75.0958 47.6932 75.4888 47.4684 76.1983C47.2435 76.9078 47.6365 77.6652 48.346 77.8902L60.4411 81.723C60.4539 81.7271 60.4667 81.731 60.4796 81.7346C60.9555 81.8704 61.4479 81.9395 61.9428 81.9399C62.8374 81.9399 63.7221 81.712 64.525 81.2645C65.7666 80.5728 66.6644 79.4389 67.0531 78.0717C67.0841 77.9625 67.1116 77.8534 67.1354 77.7442L77.254 74.9411C78.7154 74.4419 80.6338 74.262 81.488 76.2292C82.372 78.5386 80.0743 79.8091 79.477 80.094Z" fill="black"/>
<path d="M54.3311 35.3204L42.3615 23.3508L27.3545 38.3579L52.9986 64.0021L67.1601 49.8406" fill="#26CFAD"/>
<path d="M47.2426 37.3649L47.2449 37.3568C45.7715 37.4575 44.3264 38.0708 43.2 39.1972C40.7263 41.6709 40.7263 45.6816 43.2 48.1553C45.6738 50.6291 49.6844 50.6291 52.1582 48.1553C53.3546 46.9589 53.9723 45.403 54.0115 43.8354" fill="#FFD36C"/>
<path d="M76.5346 42.9331V32.2479C70.4484 31.9795 72.2046 30.904 61.6154 26.1429C60.2666 25.6123 57.1534 24.7434 53.8192 26.2755C53.817 26.2765 53.8148 26.2774 53.8126 26.2782L47.5361 28.5254L54.0122 35.0015" fill="#EAC092"/>
<path d="M27.3545 38.3579L32.4422 33.2703C35.2478 36.0759 35.2478 40.6399 32.4422 43.4456L27.3545 38.3579ZM47.911 58.9144C50.7167 56.1087 55.2806 56.1087 58.0863 58.9144L52.9986 64.0021L47.911 58.9144ZM37.2738 28.4385L42.3615 23.3508L47.4491 28.4385C44.6436 31.2442 40.0795 31.2442 37.2738 28.4385ZM61.2449 46.5339C60.3226 49.0795 60.8803 52.0449 62.9181 54.0826L67.1601 49.8406" fill="#00B192"/>
<path d="M64.2465 38.4627L52.1514 34.6298C50.0405 34.0296 47.8429 35.2542 47.2428 37.365C46.6426 39.4759 47.8672 41.6735 50.2858 42.571L61.02 46.2142L61.0156 46.2127C61.0156 46.2127 63.3058 49.9538 68.7608 49.9538C72.2049 49.9538 75.1741 47.17 76.534 44.7334V39.8678" fill="#FEDBAB"/>
<path d="M69.0664 41.3379C68.8897 41.3371 68.7148 41.3019 68.5516 41.2342C68.47 41.2007 68.3919 41.1592 68.3185 41.1102C68.2443 41.0617 68.1756 41.0051 68.1136 40.9431C68.0516 40.8811 67.995 40.8124 67.9465 40.7382C67.8975 40.6648 67.856 40.5867 67.8225 40.5051C67.7888 40.4242 67.7619 40.3393 67.7457 40.2531C67.7282 40.1668 67.7188 40.0779 67.7188 39.9903C67.7188 39.9027 67.7282 39.8137 67.7457 39.7275C67.7619 39.6412 67.7888 39.5563 67.8225 39.4741C67.8562 39.3933 67.898 39.3151 67.9465 39.2423C67.995 39.1682 68.0516 39.0995 68.1136 39.0375C68.1756 38.9755 68.2443 38.9189 68.3185 38.8704C68.3919 38.8214 68.47 38.7799 68.5516 38.7464C68.6325 38.7127 68.7174 38.6858 68.8036 38.6696C68.9775 38.6346 69.1567 38.6346 69.3305 38.6696C69.4154 38.6858 69.5003 38.7127 69.5826 38.7464C69.6634 38.7801 69.7416 38.8219 69.8144 38.8704C69.8885 38.9189 69.9572 38.9755 70.0192 39.0375C70.0812 39.0995 70.1378 39.1682 70.1863 39.2423C70.2362 39.3151 70.2766 39.3933 70.3103 39.4741C70.3795 39.6374 70.4148 39.813 70.4141 39.9903C70.4141 40.0779 70.406 40.1668 70.3885 40.2531C70.3709 40.3393 70.3453 40.4242 70.3103 40.5051C70.2766 40.5873 70.2362 40.6655 70.1863 40.7382C70.1378 40.8124 70.0812 40.8811 70.0192 40.9431C69.9572 41.0051 69.8885 41.0617 69.8144 41.1102C69.7416 41.1587 69.6634 41.2005 69.5826 41.2342C69.5003 41.2679 69.4154 41.2935 69.3305 41.311C69.2429 41.3285 69.154 41.3379 69.0664 41.3379Z" fill="black"/>
<path d="M76.5343 30.4268H81.6396V44.906H76.5343V30.4268Z" fill="#EAECF0"/>
<path d="M81.6396 27.915H89.6528V44.9063H81.6396V27.915Z" fill="#3688C8"/>
<path d="M89.652 26.5674H81.6393C80.895 26.5674 80.2916 27.1707 80.2916 27.915V29.0786H76.5339C75.7896 29.0786 75.1863 29.682 75.1863 30.4263V30.8141C72.9958 30.6229 72.2753 30.2075 70.2637 29.0475C68.7166 28.1553 66.3783 26.807 62.1673 24.9137C62.1477 24.9048 62.128 24.8965 62.108 24.8887C60.7373 24.3494 57.1448 23.2883 53.3079 25.0271L47.8849 26.9688L43.3138 22.3979C42.7876 21.8716 41.9342 21.8716 41.408 22.3979L26.4007 37.405C25.9153 37.8905 25.8222 38.7324 26.4007 39.311L52.0449 64.9551C52.4552 65.3656 53.4161 65.4897 53.9509 64.9551L67.6518 51.2543C68.008 51.285 68.3777 51.3016 68.7608 51.3016C72.2817 51.3016 75.3961 48.8863 77.1779 46.2538H89.652C90.3963 46.2538 90.9997 45.6505 90.9997 44.9062V27.915C90.9997 27.1707 90.3963 26.5674 89.652 26.5674ZM45.7789 39.0658C46.0277 41.1361 47.5184 42.9814 49.8171 43.8345C49.8289 43.8388 49.8408 43.8431 49.8528 43.8472L52.5475 44.7618C52.3441 45.6802 51.8836 46.5247 51.2057 47.2027C49.2613 49.1468 46.0975 49.1471 44.1534 47.2027C42.209 45.2584 42.209 42.0948 44.1534 40.1504C44.6184 39.6851 45.1708 39.3165 45.7789 39.0658ZM48.4747 33.8036C47.5087 34.3419 46.7507 35.1479 46.2788 36.1231C44.7513 36.4062 43.3456 37.1458 42.2473 38.2444C39.2521 41.2397 39.2521 46.1132 42.2474 49.1085C43.7449 50.6061 45.7121 51.355 47.6794 51.355C49.6466 51.355 51.6139 50.6062 53.1115 49.1085C54.0859 48.1342 54.7685 46.9367 55.1104 45.6316L59.6606 47.1759C59.1484 49.5488 59.673 52.0452 61.0882 54.0061L58.0105 57.0837C55.0325 54.9234 50.9634 54.9234 47.9853 57.0837L34.2728 43.371C35.3252 41.9237 35.8933 40.185 35.8933 38.3579C35.8933 36.5306 35.3253 34.7921 34.2728 33.3447L37.3477 30.2699C38.7951 31.3223 40.5336 31.8905 42.3609 31.8905C44.1882 31.8905 45.9266 31.3223 47.374 30.2699L50.2889 33.1848C49.6517 33.2795 49.0369 33.4892 48.4747 33.8036ZM63.03 52.0641C62.5116 51.2173 62.2154 50.2533 62.169 49.2615C62.9024 49.7913 63.7013 50.2238 64.5457 50.5484L63.03 52.0641ZM42.3608 25.2567L45.4323 28.3282C44.5193 28.8929 43.4637 29.195 42.3608 29.195C41.2577 29.195 40.2022 28.893 39.2892 28.3282L42.3608 25.2567ZM32.3312 35.2863C32.8959 36.1994 33.198 37.255 33.198 38.3579C33.198 39.4608 32.896 40.5164 32.3312 41.4296L29.2596 38.3579L32.3312 35.2863ZM52.9979 62.0962L49.9269 59.0251C51.8019 57.868 54.1937 57.868 56.0688 59.0251L52.9979 62.0962ZM68.7608 48.606C68.2611 48.606 67.7928 48.5704 67.3549 48.5071L67.3497 48.5063C64.4393 48.0835 62.8737 46.4294 62.3577 45.7744C62.3302 45.734 62.2131 45.5808 62.1957 45.5553C62.0333 45.2644 61.7686 45.0443 61.453 44.9377L50.7381 41.301C49.0281 40.6593 48.1243 39.1951 48.5385 37.7347L48.5394 37.7319L48.5403 37.7285C48.6341 37.3974 48.7925 37.0882 49.0064 36.8186C49.2203 36.549 49.4854 36.3244 49.7865 36.1577C50.3887 35.8199 51.1003 35.7348 51.7652 35.9209L63.8393 39.7471C64.549 39.9722 65.3064 39.579 65.5311 38.8695C65.7559 38.1599 65.3631 37.4025 64.6535 37.1776L55.0508 34.1346L54.967 34.0508L54.9644 34.0482L49.9929 29.0767L54.2661 27.5466C54.2805 27.5413 54.2983 27.5347 54.3126 27.5289L54.3267 27.5233C54.345 27.5159 54.3631 27.5081 54.381 27.4998C57.2699 26.1721 60.0159 26.9668 61.0922 27.3854C65.1599 29.2157 67.3309 30.4675 68.9171 31.3822C71.1224 32.6539 72.1851 33.2667 75.1862 33.5146V44.3688C73.9088 46.4628 71.4316 48.606 68.7608 48.606ZM77.8816 31.7739H80.2916V43.5582H77.8816V31.7739ZM88.3044 43.5582H82.9869V29.2627H88.3044V43.5582Z" fill="black"/>
</g>
<defs>
<clipPath id="clip0_117_1031">
<rect width="69" height="69" fill="white" transform="translate(22 22)"/>
</clipPath>
</defs>
</svg>
