<svg width="23" height="22" viewBox="0 0 23 22" fill="none" xmlns="http://www.w3.org/2000/svg">
<path d="M17.0048 13.1275C16.7674 13.3575 16.6584 13.6902 16.7124 14.0165L17.5273 18.5261C17.596 18.9083 17.4347 19.2951 17.1148 19.516C16.8014 19.7452 16.3843 19.7727 16.0424 19.5894L11.9829 17.4721C11.8417 17.3969 11.685 17.3566 11.5246 17.352H11.2762C11.19 17.3648 11.1057 17.3923 11.0287 17.4345L6.96826 19.5619C6.76753 19.6627 6.54022 19.6984 6.31749 19.6627C5.77487 19.56 5.41282 19.0431 5.50173 18.4977L6.31749 13.9881C6.37157 13.6591 6.26249 13.3245 6.0251 13.0908L2.71532 9.88276C2.43851 9.6142 2.34227 9.21091 2.46876 8.84702C2.59158 8.48406 2.90505 8.21916 3.2836 8.15958L7.83902 7.49873C8.18548 7.46298 8.48979 7.25217 8.64561 6.94053L10.6529 2.82507C10.7006 2.73342 10.762 2.64909 10.8362 2.5776L10.9187 2.51344C10.9618 2.46577 11.0113 2.42636 11.0663 2.39428L11.1662 2.35762L11.322 2.29346H11.7079C12.0525 2.3292 12.3559 2.53543 12.5145 2.84341L14.5484 6.94053C14.6951 7.24025 14.9801 7.44832 15.3092 7.49873L19.8646 8.15958C20.2495 8.21458 20.5713 8.48039 20.6987 8.84702C20.8187 9.21457 20.7152 9.61787 20.4329 9.88276L17.0048 13.1275Z" fill="#E8B501"/>
</svg>
