<svg width="108" height="108" viewBox="0 0 108 108" fill="none" xmlns="http://www.w3.org/2000/svg">
<circle cx="54" cy="54" r="53" fill="white" stroke="#785EA2" stroke-width="2"/>
<g clip-path="url(#clip0_117_882)">
<path d="M39.8107 30.3444C39.9252 30.3438 39.9252 30.3438 40.042 30.3432C40.2985 30.3421 40.5549 30.3417 40.8114 30.3413C40.9949 30.3406 41.1786 30.34 41.3622 30.3392C41.9657 30.3371 42.5693 30.336 43.1728 30.335C43.3806 30.3346 43.5883 30.3342 43.7961 30.3337C44.7722 30.3318 45.7482 30.3303 46.7243 30.3295C47.851 30.3285 48.9777 30.3258 50.1044 30.3216C50.9753 30.3185 51.8461 30.317 52.717 30.3167C53.2372 30.3164 53.7573 30.3155 54.2774 30.3129C54.7669 30.3105 55.2563 30.3101 55.7457 30.3111C55.9252 30.3112 56.1046 30.3105 56.284 30.3091C56.5294 30.3073 56.7748 30.308 57.0202 30.3094C57.1574 30.3091 57.2946 30.3089 57.436 30.3086C58.0378 30.3884 58.4297 30.6095 58.8125 31.0781C59.0547 31.5113 59.104 31.841 59.101 32.3309C59.1007 32.4315 59.1003 32.532 59.1 32.6357C59.0991 32.74 59.0982 32.8442 59.0973 32.9517C59.0968 33.0576 59.0964 33.1634 59.0959 33.2725C59.0946 33.5334 59.0928 33.7944 59.0907 34.0553C59.2301 34.0521 59.2301 34.0521 59.3723 34.0488C59.7195 34.0418 60.0666 34.0366 60.4138 34.0327C60.5636 34.0307 60.7135 34.0279 60.8633 34.0243C61.0795 34.0193 61.2956 34.017 61.5119 34.0152C61.6417 34.013 61.7715 34.0109 61.9053 34.0087C62.4628 34.0801 62.7848 34.3338 63.15 34.7354C63.4204 35.1043 63.4475 35.2941 63.4451 35.7436C63.4448 35.8541 63.4444 35.9646 63.4441 36.0785C63.4432 36.1943 63.4423 36.3101 63.4414 36.4294C63.4409 36.5459 63.4404 36.6625 63.4399 36.7827C63.4387 37.0713 63.4369 37.3599 63.4348 37.6485C63.4942 37.6475 63.5536 37.6467 63.6148 37.6457C64.2353 37.6366 64.8558 37.6304 65.4764 37.6259C65.7077 37.6238 65.939 37.6211 66.1703 37.6175C66.5036 37.6125 66.8367 37.6102 67.17 37.6084C67.2728 37.6062 67.3756 37.6041 67.4815 37.6019C68.1352 37.6017 68.5157 37.6883 69.0503 38.0591C69.5659 38.5857 69.7127 39.0492 69.7115 39.7672C69.7117 39.8678 69.7118 39.8678 69.712 39.9705C69.7124 40.1945 69.7112 40.4185 69.7101 40.6424C69.71 40.8033 69.7101 40.9642 69.7102 41.1251C69.7102 41.5614 69.709 41.9977 69.7075 42.434C69.7062 42.8901 69.706 43.3462 69.7058 43.8023C69.7051 44.6658 69.7034 45.5293 69.7013 46.3928C69.6989 47.376 69.6977 48.3591 69.6967 49.3423C69.6944 51.3646 69.6907 53.3868 69.686 55.409C69.7999 55.408 69.7999 55.408 69.9162 55.4069C70.6362 55.4007 71.3562 55.3961 72.0763 55.393C72.4464 55.3915 72.8164 55.3893 73.1865 55.3858C73.6131 55.3817 74.0397 55.3803 74.4663 55.379C74.5976 55.3773 74.7289 55.3757 74.8641 55.3741C76.0074 55.3739 77.0054 55.5257 77.8444 56.333C78.3246 56.9561 78.4144 57.5224 78.3742 58.2836C78.3245 58.5353 78.265 58.7854 78.1972 59.0332C78.1781 59.1039 78.1591 59.1746 78.1395 59.2475C78.076 59.4821 78.0112 59.7164 77.9462 59.9506C77.9002 60.1195 77.8543 60.2884 77.8085 60.4573C77.6843 60.9146 77.5587 61.3714 77.433 61.8283C77.3009 62.3085 77.1701 62.7891 77.0392 63.2696C76.8198 64.074 76.5998 64.8782 76.3791 65.6822C76.0768 66.7841 75.7757 67.8863 75.475 68.9886C75.1465 70.1927 74.8177 71.3968 74.4882 72.6006C74.465 72.6854 74.4418 72.7702 74.4179 72.8575C74.3057 73.2675 74.1931 73.6775 74.08 74.0872C73.8832 74.8004 73.6888 75.514 73.5036 76.2301C73.4713 76.3525 73.4391 76.4748 73.4058 76.6009C73.3477 76.822 73.2908 77.0434 73.2358 77.2653C73.0338 78.0244 72.7243 78.7228 72.0753 79.2202C71.9971 79.2562 71.9188 79.2922 71.8382 79.3293C71.7591 79.3674 71.68 79.4055 71.5985 79.4448C71.2069 79.6067 70.9069 79.6503 70.4842 79.6511C70.3631 79.6515 70.242 79.652 70.1172 79.6524C69.9836 79.6524 69.8499 79.6524 69.7122 79.6524C69.5693 79.6527 69.4264 79.6531 69.2834 79.6535C68.8898 79.6546 68.496 79.6549 68.1024 79.6552C67.6782 79.6556 67.2539 79.6566 66.8296 79.6575C65.8045 79.6595 64.7794 79.6606 63.7544 79.6615C63.2717 79.6619 62.789 79.6625 62.3064 79.663C60.702 79.6648 59.0975 79.6662 57.4931 79.667C57.0767 79.6672 56.6602 79.6674 56.2438 79.6676C56.1404 79.6676 56.0369 79.6677 55.9302 79.6677C54.2536 79.6686 52.577 79.6712 50.9004 79.6745C49.1793 79.6779 47.4582 79.6798 45.7371 79.6801C44.7707 79.6803 43.8043 79.6812 42.8378 79.6838C42.0148 79.6861 41.1917 79.6869 40.3686 79.6859C39.9488 79.6854 39.5289 79.6856 39.1091 79.6876C38.7244 79.6894 38.3397 79.6893 37.955 79.6877C37.7506 79.6874 37.5462 79.689 37.3419 79.6907C36.473 79.6845 35.8254 79.5496 35.1129 79.0582C35.058 79.0036 35.0031 78.9491 34.9465 78.893C34.89 78.8395 34.8335 78.7861 34.7752 78.7309C34.2279 77.9671 34.0788 76.9303 33.8386 76.0421C33.7932 75.8754 33.7477 75.7088 33.7023 75.5422C33.6047 75.1846 33.5075 74.827 33.4104 74.4693C33.2565 73.9019 33.1019 73.3345 32.9473 72.7672C32.7858 72.1744 32.6243 71.5817 32.463 70.9888C32.082 69.5885 31.6997 68.1886 31.3164 66.7889C31.2901 66.6928 31.2638 66.5968 31.2367 66.4978C31.1067 66.0228 30.9766 65.5479 30.8465 65.073C30.6984 64.5321 30.5503 63.9913 30.4022 63.4504C30.3789 63.3651 30.3555 63.2798 30.3314 63.1918C30.2189 62.7809 30.1066 62.37 29.9947 61.959C29.9528 61.8053 29.9109 61.6517 29.8691 61.498C29.849 61.4244 29.829 61.351 29.8084 61.2753C29.6839 60.8192 29.557 60.3638 29.4287 59.9087C29.3983 59.7996 29.3679 59.6905 29.3366 59.5781C29.2825 59.3844 29.2278 59.1909 29.1719 58.9977C28.9399 58.1594 28.9013 57.43 29.3178 56.6409C29.7463 55.9993 30.381 55.6354 31.1489 55.4548C31.4615 55.4051 31.7541 55.3967 32.0708 55.3974C32.1959 55.3974 32.3211 55.3974 32.45 55.3974C32.584 55.3979 32.718 55.3985 32.856 55.399C32.994 55.3991 33.132 55.3993 33.2742 55.3994C33.6398 55.3998 34.0055 55.4008 34.3711 55.402C34.7446 55.403 35.1182 55.4035 35.4919 55.404C36.224 55.4051 36.956 55.4069 37.6881 55.409C37.6877 55.2881 37.6873 55.1672 37.6869 55.0425C37.6777 52.1706 37.6707 49.2987 37.6664 46.4267C37.6659 46.0732 37.6654 45.7195 37.6648 45.3659C37.6647 45.2955 37.6646 45.2251 37.6644 45.1525C37.6627 44.0132 37.6593 42.874 37.6554 41.7346C37.6514 40.5653 37.6491 39.3959 37.6482 38.2265C37.6477 37.5698 37.6464 36.9132 37.6433 36.2565C37.6404 35.6383 37.6395 35.0202 37.6402 34.402C37.6401 34.1752 37.6392 33.9484 37.6376 33.7216C37.6354 33.4117 37.636 33.1019 37.6371 32.7919C37.6359 32.7024 37.6346 32.6129 37.6334 32.5208C37.64 31.8631 37.7912 31.303 38.269 30.8149C38.7779 30.3861 39.1546 30.3465 39.8107 30.3444Z" fill="#010101"/>
<path d="M32.2975 57.2179C32.4103 57.2172 32.4103 57.2172 32.5254 57.2165C32.778 57.2153 33.0306 57.2162 33.2833 57.2172C33.4659 57.2168 33.6486 57.2162 33.8313 57.2155C34.3338 57.214 34.8364 57.2145 35.3389 57.2152C35.8807 57.2157 36.4225 57.2144 36.9642 57.2134C38.0257 57.2116 39.0873 57.2115 40.1489 57.2121C41.0115 57.2125 41.8741 57.2123 42.7367 57.2118C42.8594 57.2117 42.982 57.2116 43.1084 57.2116C43.3576 57.2114 43.6068 57.2112 43.8559 57.2111C46.1938 57.2097 48.5317 57.2102 50.8696 57.2114C53.0095 57.2124 55.1494 57.2111 57.2894 57.2086C59.4855 57.2061 61.6815 57.2051 63.8776 57.2058C65.111 57.2062 66.3445 57.206 67.5779 57.2042C68.6278 57.2026 69.6778 57.2026 70.7278 57.2043C71.2637 57.2052 71.7996 57.2055 72.3355 57.2039C72.8259 57.2025 73.3162 57.2029 73.8065 57.205C73.9841 57.2053 74.1617 57.205 74.3394 57.204C74.5805 57.2026 74.8214 57.2038 75.0625 57.2056C75.1965 57.2056 75.3305 57.2056 75.4686 57.2056C75.915 57.2689 76.1139 57.4034 76.4667 57.6676C76.3964 58.4781 76.1675 59.2471 75.9493 60.0293C75.9062 60.1855 75.8631 60.3418 75.8201 60.4981C75.7273 60.8346 75.6343 61.1711 75.5409 61.5074C75.3922 62.043 75.2442 62.5789 75.0965 63.1148C75.0455 63.3 74.9944 63.4851 74.9434 63.6703C74.9177 63.7634 74.8921 63.8563 74.8657 63.9522C74.7863 64.2397 74.707 64.5272 74.6276 64.8147C74.0442 66.9278 73.4675 69.0426 72.891 71.1574C72.7605 71.6364 72.6298 72.1154 72.4992 72.5943C72.4012 72.9535 72.3033 73.3126 72.2054 73.6717C72.1833 73.7528 72.1612 73.8339 72.1384 73.9174C72.0955 74.0746 72.0527 74.2318 72.0099 74.3889C71.9686 74.5401 71.9272 74.6913 71.8855 74.8424C71.7733 75.2502 71.6662 75.6587 71.5644 76.0691C71.5418 76.1582 71.5191 76.2474 71.4957 76.3393C71.4521 76.511 71.4097 76.6831 71.3688 76.8555C71.2207 77.4312 71.2207 77.4312 70.9607 77.6839C70.581 77.8698 70.2845 77.905 69.8652 77.9056C69.7478 77.906 69.6306 77.9063 69.5097 77.9068C69.3803 77.9067 69.2509 77.9066 69.1176 77.9065C68.9805 77.9068 68.8435 77.9071 68.7023 77.9074C68.321 77.9082 67.9399 77.9084 67.5586 77.9085C67.1478 77.9087 66.737 77.9095 66.3262 77.9101C65.4276 77.9116 64.5289 77.9122 63.6303 77.9126C63.0694 77.9129 62.5086 77.9134 61.9477 77.9138C60.3955 77.915 58.8433 77.9161 57.291 77.9164C57.1917 77.9164 57.0923 77.9165 56.9899 77.9165C56.8902 77.9166 56.7907 77.9166 56.688 77.9166C56.4862 77.9166 56.2843 77.9167 56.0825 77.9168C55.9823 77.9168 55.8822 77.9168 55.7791 77.9168C54.156 77.9172 52.5329 77.919 50.9098 77.9214C49.2443 77.9238 47.5787 77.9251 45.9131 77.9252C44.9776 77.9253 44.0422 77.9259 43.1067 77.9277C42.3102 77.9293 41.5138 77.9299 40.7173 77.929C40.3108 77.9286 39.9043 77.9287 39.4978 77.9301C39.0575 77.9317 38.6172 77.9309 38.1768 77.9298C38.0479 77.9306 37.9189 77.9314 37.7861 77.9323C37.6683 77.9316 37.5504 77.931 37.4289 77.9303C37.3273 77.9303 37.2257 77.9304 37.1209 77.9305C36.7813 77.884 36.584 77.7823 36.3104 77.5841C36.1947 77.3326 36.1148 77.1163 36.0426 76.8537C36.0209 76.7809 35.9993 76.7081 35.9769 76.6331C35.9093 76.4031 35.8446 76.1724 35.7806 75.9415C35.7404 75.7999 35.7003 75.6584 35.6601 75.5168C35.5354 75.0721 35.4162 74.626 35.2972 74.1798C35.2518 74.0108 35.2064 73.8419 35.1608 73.673C35.0641 73.3135 34.9676 72.954 34.8713 72.5944C34.6405 71.733 34.4084 70.8719 34.1764 70.0107C34.123 69.8126 34.0696 69.6145 34.0162 69.4163C33.4451 67.2959 32.866 65.1776 32.2842 63.0598C32.2116 62.7955 32.1391 62.5313 32.0665 62.2669C31.9312 61.7742 31.7958 61.2815 31.6604 60.7888C31.6403 60.7154 31.6201 60.6421 31.5993 60.5664C31.5606 60.4256 31.5219 60.2849 31.4831 60.1442C31.4298 59.9502 31.3768 59.7561 31.3238 59.5621C31.2597 59.333 31.193 59.1045 31.1233 58.877C31.0931 58.7777 31.0629 58.6785 31.0318 58.5762C31.005 58.4916 30.9782 58.407 30.9506 58.3198C30.897 58.0248 30.9046 57.8468 31.0127 57.565C31.4387 57.247 31.7679 57.2184 32.2975 57.2179Z" fill="#84D9FD"/>
<path d="M48.4946 39.4965C54.8582 39.4965 61.2217 39.4965 67.7781 39.4965C67.7781 44.7815 67.7781 50.0665 67.7781 55.5117C61.3796 55.5117 54.9811 55.5117 48.3887 55.5117C48.3887 53.2608 48.391 51.0108 48.4118 48.7601C48.4139 48.5192 48.416 48.2784 48.4181 48.0375C48.4258 47.1667 48.4337 46.296 48.4416 45.4252C48.4591 43.4687 48.4766 41.5122 48.4946 39.4965Z" fill="#E4E7EC"/>
<path d="M39.7008 32.2073C45.4699 32.2073 51.2391 32.2073 57.1831 32.2073C57.1831 32.8171 57.1831 33.427 57.1831 34.0552C56.929 34.0555 56.929 34.0555 56.6699 34.0557C55.0735 34.0574 53.4771 34.0618 51.8808 34.0688C51.06 34.0724 50.2393 34.075 49.4187 34.0753C48.703 34.0756 47.9875 34.0778 47.272 34.082C46.8933 34.0842 46.5146 34.0855 46.136 34.0846C45.7126 34.0837 45.2893 34.0868 44.866 34.0902C44.7412 34.0893 44.6165 34.0884 44.488 34.0875C43.8513 34.0961 43.3858 34.1524 42.8468 34.4911C42.3174 35.0228 42.1809 35.5171 42.1887 36.2402C42.1875 36.3644 42.1875 36.3644 42.1862 36.491C42.1841 36.7669 42.1849 37.0427 42.1858 37.3186C42.1849 37.5169 42.1838 37.7153 42.1825 37.9136C42.1795 38.451 42.1792 38.9884 42.1793 39.5259C42.179 40.0879 42.1762 40.65 42.1738 41.212C42.1695 42.2758 42.1674 43.3397 42.1659 44.4035C42.1643 45.6148 42.1602 46.8261 42.1559 48.0375C42.1472 50.5289 42.1416 53.0202 42.1377 55.5116C41.2985 55.5116 40.4594 55.5116 39.5948 55.5116C39.5917 53.3023 39.5894 51.0929 39.5882 48.8835C39.5882 48.8019 39.5881 48.7203 39.588 48.6362C39.5851 43.1588 39.6195 37.6844 39.7008 32.2073Z" fill="#E4E7EC"/>
<path d="M61.5274 35.8005C61.5274 36.4104 61.5274 37.0202 61.5274 37.6484C61.2801 37.6486 61.2801 37.6486 61.0277 37.6489C59.4719 37.6506 57.9162 37.655 56.3604 37.662C55.5606 37.6655 54.7608 37.6681 53.961 37.6685C53.2635 37.6688 52.5661 37.6709 51.8686 37.6752C51.4996 37.6774 51.1307 37.6787 50.7617 37.6778C50.3488 37.6769 49.9359 37.68 49.523 37.6834C49.4021 37.6825 49.281 37.6817 49.1563 37.6807C48.3741 37.6915 47.7587 37.8104 47.1177 38.2644C46.5121 38.9075 46.633 39.7585 46.6361 40.5819C46.6352 40.7449 46.6341 40.9078 46.6328 41.0707C46.6298 41.5117 46.6295 41.9526 46.6296 42.3935C46.6292 42.8549 46.6265 43.3162 46.6241 43.7775C46.6198 44.6505 46.6176 45.5234 46.6162 46.3963C46.6145 47.3905 46.6104 48.3846 46.6062 49.3786C46.5975 51.423 46.5918 53.4673 46.588 55.5117C45.7488 55.5117 44.9097 55.5117 44.0451 55.5117C44.0451 49.0409 44.0451 42.5701 44.0451 35.9032C46.556 35.8862 49.0669 35.8693 51.6539 35.8519C52.4432 35.8465 53.2324 35.8411 54.0456 35.8356C55.0185 35.8291 55.0185 35.8291 55.4756 35.8261C55.7911 35.8239 56.1066 35.8218 56.4221 35.8196C58.1238 35.808 59.8256 35.7975 61.5274 35.8005Z" fill="#83D8FD"/>
<path d="M39.7472 63.1462C39.933 63.145 39.933 63.145 40.1224 63.1438C40.4657 63.142 40.809 63.1426 41.1523 63.1442C41.5227 63.1454 41.893 63.1436 42.2634 63.1422C42.9888 63.1399 43.7141 63.1404 44.4396 63.1419C45.0291 63.1431 45.6186 63.1432 46.2081 63.1426C46.3339 63.1425 46.3339 63.1425 46.4622 63.1424C46.6327 63.1423 46.803 63.1421 46.9734 63.1419C48.5714 63.1405 50.1695 63.1421 51.7675 63.1449C53.139 63.1472 54.5103 63.1468 55.8818 63.1444C57.4741 63.1417 59.0663 63.1406 60.6586 63.1422C60.8284 63.1423 60.9982 63.1425 61.1679 63.1426C61.2932 63.1428 61.2932 63.1428 61.421 63.1429C62.0099 63.1433 62.5987 63.1426 63.1876 63.1414C63.9051 63.1399 64.6227 63.1404 65.3402 63.1431C65.7064 63.1444 66.0725 63.1449 66.4387 63.1433C66.8354 63.1418 67.232 63.1436 67.6288 63.1462C67.7448 63.145 67.8608 63.1439 67.9803 63.1427C68.7559 63.1525 68.7559 63.1525 69.1761 63.4492C69.4296 63.8111 69.4416 64.0144 69.3691 64.4433C69.1712 64.6861 69.0173 64.8191 68.7333 64.9566C68.5687 64.9664 68.4035 64.9697 68.2385 64.9698C68.1336 64.9702 68.0286 64.9705 67.9204 64.9708C67.7462 64.9706 67.7462 64.9706 67.5684 64.9704C67.3843 64.9707 67.3843 64.9707 67.1964 64.971C66.8546 64.9716 66.5128 64.9717 66.1711 64.9715C65.8028 64.9715 65.4346 64.9721 65.0664 64.9726C64.3446 64.9734 63.6228 64.9737 62.901 64.9738C62.3145 64.9738 61.728 64.974 61.1414 64.9744C59.4797 64.9752 57.8179 64.9757 56.1562 64.9757C56.0666 64.9757 55.9769 64.9757 55.8845 64.9756C55.7499 64.9756 55.7499 64.9756 55.6125 64.9756C54.1575 64.9756 52.7026 64.9765 51.2477 64.978C49.7548 64.9795 48.262 64.9802 46.7693 64.9801C45.9307 64.98 45.0922 64.9804 44.2536 64.9815C43.5397 64.9824 42.8257 64.9826 42.1118 64.9819C41.7474 64.9816 41.383 64.9816 41.0186 64.9825C40.6239 64.9833 40.2292 64.9828 39.8345 64.982C39.661 64.9828 39.661 64.9828 39.4839 64.9836C39.3256 64.9829 39.3256 64.9829 39.1641 64.9821C39.0274 64.9822 39.0274 64.9822 38.888 64.9822C38.6148 64.9537 38.4493 64.8953 38.2188 64.7513C37.9539 64.3663 37.9501 64.1806 38.0069 63.7247C38.4613 63.0723 39.0064 63.1389 39.7472 63.1462Z" fill="black"/>
<path d="M42.782 70.1149C42.879 70.1139 42.9759 70.1131 43.0759 70.1122C43.4011 70.1099 43.7261 70.1122 44.0512 70.1143C44.2843 70.1136 44.5173 70.1127 44.7503 70.1115C45.3835 70.1092 46.0165 70.1107 46.6496 70.113C47.3117 70.1149 47.9738 70.1138 48.6359 70.1131C49.8191 70.1125 51.0023 70.1147 52.1855 70.1184C53.2582 70.1215 54.3308 70.1218 55.4034 70.1198C56.7822 70.1173 58.1608 70.1174 59.5396 70.1197C60.0661 70.1205 60.5927 70.1203 61.1192 70.1193C61.7391 70.1182 62.359 70.1196 62.9788 70.1231C63.2066 70.1239 63.4343 70.1239 63.6619 70.1229C63.9724 70.1217 64.2827 70.1237 64.5932 70.1265C64.7288 70.1249 64.7288 70.1249 64.8673 70.1233C65.3245 70.1309 65.5024 70.1533 65.8756 70.4339C66.0842 70.7057 66.0842 70.7057 66.1437 71.0137C66.0711 71.3893 65.9329 71.5631 65.6603 71.835C65.3099 72.0047 64.9188 71.9528 64.5335 71.9528C64.3898 71.9533 64.3897 71.9533 64.243 71.9539C63.9199 71.955 63.5968 71.9554 63.2735 71.9558C63.0427 71.9565 62.8118 71.9572 62.5808 71.9578C61.9521 71.9596 61.3234 71.9607 60.6946 71.9615C60.3022 71.9621 59.9097 71.9627 59.5172 71.9634C58.2901 71.9653 57.063 71.9668 55.8359 71.9676C55.6946 71.9677 55.5533 71.9678 55.412 71.968C55.3069 71.968 55.3069 71.968 55.1996 71.9681C54.1347 71.9689 53.0696 71.9711 52.0047 71.9743C50.7685 71.9779 49.5323 71.9801 48.2961 71.9804C47.6416 71.9807 46.987 71.9816 46.3324 71.9842C45.7168 71.9866 45.1012 71.987 44.4856 71.986C44.2594 71.9859 44.0332 71.9865 43.8071 71.988C43.4987 71.9897 43.1904 71.9891 42.8821 71.9877C42.7473 71.9894 42.7473 71.9894 42.6098 71.9911C42.1906 71.9867 41.9756 71.9664 41.6096 71.7509C41.3095 71.4349 41.2759 71.2349 41.2911 70.8083C41.6992 70.1606 42.0263 70.1028 42.782 70.1149Z" fill="black"/>
<path d="M56.9185 50.1085C57.0192 50.1077 57.1198 50.107 57.2235 50.1062C57.5558 50.1045 57.8879 50.1065 58.2201 50.1087C58.4511 50.1086 58.6822 50.1083 58.9132 50.108C59.3971 50.1077 59.8809 50.1092 60.3649 50.112C60.9855 50.1155 61.6059 50.1149 62.2265 50.113C62.7034 50.1119 63.1803 50.1128 63.6572 50.1143C63.8861 50.1148 64.1149 50.1148 64.3438 50.1141C64.6634 50.1136 64.9829 50.1157 65.3025 50.1185C65.3972 50.1179 65.4919 50.1172 65.5895 50.1165C66.2302 50.1261 66.2302 50.1261 66.5658 50.3692C66.779 50.6676 66.779 50.8571 66.7614 51.2099C66.697 51.5077 66.5427 51.6396 66.2953 51.8159C65.939 51.9885 65.5358 51.9355 65.1438 51.9367C65.0464 51.9374 64.9491 51.938 64.8488 51.9387C64.5257 51.9408 64.2026 51.942 63.8795 51.943C63.7142 51.9436 63.7142 51.9436 63.5456 51.9443C62.9624 51.9464 62.3793 51.9479 61.7961 51.9488C61.1932 51.95 60.5904 51.9535 59.9876 51.9575C59.5245 51.9603 59.0614 51.9611 58.5982 51.9615C58.376 51.962 58.1537 51.9632 57.9315 51.9651C57.6205 51.9676 57.3097 51.9675 56.9987 51.9668C56.9067 51.9681 56.8149 51.9694 56.7202 51.9708C56.2877 51.9671 56.0718 51.9515 55.6976 51.7228C55.4833 51.5029 55.4064 51.3996 55.3689 51.1037C55.3577 51.0371 55.3465 50.9705 55.335 50.9019C55.51 50.103 56.2371 50.0998 56.9185 50.1085Z" fill="#030303"/>
<path d="M57.5823 42.9238C57.6735 42.9232 57.7647 42.9226 57.8587 42.9221C58.1589 42.9208 58.459 42.9233 58.7592 42.9259C58.9683 42.9261 59.1776 42.9261 59.3869 42.9259C59.8248 42.9261 60.2627 42.928 60.7006 42.9313C61.2617 42.9354 61.8226 42.9358 62.3837 42.935C62.8155 42.9347 63.2474 42.9359 63.6792 42.9377C63.8861 42.9384 64.0929 42.9388 64.2998 42.9387C64.5889 42.9388 64.878 42.9411 65.1671 42.9438C65.2524 42.9435 65.3376 42.9432 65.4254 42.9429C65.9087 42.95 66.2293 43.0014 66.6125 43.2949C66.7783 43.6162 66.7923 43.9736 66.7185 44.3216C66.5621 44.5367 66.5621 44.5367 66.2946 44.7322C65.9704 44.7732 65.6843 44.7894 65.3601 44.7869C65.2658 44.7879 65.1716 44.7887 65.0744 44.7897C64.7628 44.7919 64.4513 44.7913 64.1396 44.7903C63.9229 44.7909 63.7063 44.7915 63.4896 44.7922C63.0354 44.7934 62.5813 44.7929 62.1271 44.7914C61.5451 44.7896 60.9633 44.792 60.3813 44.7956C59.9338 44.7979 59.4864 44.7977 59.0389 44.7969C58.8243 44.7968 58.6098 44.7975 58.3953 44.799C58.0951 44.8008 57.7953 44.7993 57.4951 44.797C57.4066 44.7982 57.318 44.7994 57.2267 44.8006C56.7748 44.7935 56.5973 44.7697 56.2274 44.4939C56.0172 44.2188 56.0172 44.2188 55.9443 43.8595C56.024 43.4663 56.1349 43.3357 56.4568 43.0928C56.8175 42.898 57.178 42.9173 57.5823 42.9238Z" fill="#020202"/>
<path d="M55.4882 40.9337C55.8808 41.145 55.9951 41.2737 56.1306 41.6908C56.1183 42.3789 55.5475 42.8682 55.0975 43.3655C54.7093 43.7992 54.3251 44.2347 53.9519 44.6809C53.5729 45.1322 53.1885 45.5785 52.7997 46.0219C52.7454 46.0844 52.6911 46.1468 52.6351 46.2112C52.0577 46.8665 52.0577 46.8665 51.5282 46.9331C51.0486 46.8769 50.9056 46.716 50.6144 46.3748C50.4488 46.2016 50.2833 46.0283 50.1177 45.8551C49.4403 45.139 49.4403 45.139 49.4622 44.6295C49.5725 44.2628 49.6498 44.1233 49.9786 43.9109C50.4478 43.8276 50.6732 43.8093 51.0696 44.0725C51.2804 44.2511 51.4802 44.4338 51.6739 44.6295C51.697 44.5753 51.7201 44.521 51.7439 44.4652C51.9386 44.1274 52.1987 43.8527 52.462 43.5644C52.9726 42.9982 53.4598 42.4197 53.9262 41.8186C54.3614 41.2677 54.7274 40.8108 55.4882 40.9337Z" fill="#020203"/>
<path d="M55.1837 47.4206C55.6711 47.5197 55.8407 47.6227 56.1241 48.0173C56.1655 48.3674 56.1657 48.5647 55.9796 48.8711C55.8774 48.9853 55.8774 48.9853 55.7731 49.1017C55.6958 49.1899 55.6185 49.278 55.5388 49.3688C55.4522 49.4649 55.3656 49.561 55.2764 49.6599C55.1333 49.8232 54.9908 49.987 54.8483 50.1508C54.6994 50.3218 54.5499 50.4924 54.4003 50.6629C54.1373 50.9634 53.8783 51.267 53.6209 51.572C53.5448 51.6621 53.4688 51.7523 53.3904 51.8451C53.2261 52.0417 53.0631 52.2394 52.9012 52.4378C52.8175 52.5396 52.7337 52.6413 52.6475 52.7462C52.5725 52.8384 52.4975 52.9307 52.4203 53.0257C52.2021 53.2549 52.0872 53.3724 51.7799 53.4584C51.2944 53.4568 51.0926 53.4013 50.7221 53.0907C50.6226 52.9817 50.5249 52.8711 50.4291 52.7591C50.3795 52.7042 50.3299 52.6494 50.2788 52.5928C50.1407 52.4387 50.0066 52.2814 49.8728 52.1238C49.81 52.0525 49.7472 51.9812 49.6824 51.9077C49.4526 51.557 49.4749 51.1879 49.5549 50.7892C49.8214 50.4778 49.9886 50.3964 50.3959 50.3208C50.924 50.4148 51.1938 50.7345 51.5681 51.0972C52.4412 50.1126 52.4412 50.1126 53.3082 49.1229C53.4058 49.0109 53.5038 48.8992 53.6021 48.7878C53.8124 48.5492 54.0173 48.3095 54.2128 48.0594C54.6967 47.4558 54.6967 47.4558 55.1837 47.4206Z" fill="#020202"/>
</g>
<defs>
<clipPath id="clip0_117_882">
<rect width="49.3827" height="50" fill="white" transform="translate(29 30)"/>
</clipPath>
</defs>
</svg>
