<svg width="108" height="108" viewBox="0 0 108 108" fill="none" xmlns="http://www.w3.org/2000/svg">
<circle cx="54" cy="54" r="53" fill="white" stroke="#785EA2" stroke-width="2"/>
<g clip-path="url(#clip0_117_842)">
<mask id="mask0_117_842" style="mask-type:luminance" maskUnits="userSpaceOnUse" x="29" y="29" width="50" height="50">
<path d="M79 29H29V79H79V29Z" fill="white"/>
</mask>
<g mask="url(#mask0_117_842)">
<mask id="mask1_117_842" style="mask-type:luminance" maskUnits="userSpaceOnUse" x="29" y="29" width="50" height="50">
<path d="M79 29H29V79H79V29Z" fill="white"/>
</mask>
<g mask="url(#mask1_117_842)">
<path d="M55.9531 30.1719C55.9531 29.5247 56.4777 29 57.125 29H63.5702C64.2175 29 64.7421 29.5247 64.7421 30.1719V64.2539C64.7421 66.8429 62.6436 68.9414 60.0546 68.9414H57.125C56.4777 68.9414 55.9531 68.4167 55.9531 67.7696V30.1719Z" fill="#338DEF"/>
<path d="M47.1484 39.97C47.1484 39.3228 47.6731 38.7981 48.3203 38.7981H55.9375V68.3689C55.9375 70.5262 54.1886 72.2752 52.0313 72.2752H47.1484V39.97Z" fill="#54A0FF"/>
<path d="M38.3594 49.5566C38.3594 48.9095 38.884 48.3848 39.5312 48.3848H47.1486V71.6211C47.1486 73.8863 45.3121 75.7225 43.0469 75.7225H38.3594V49.5566Z" fill="#8AC2FF"/>
<path d="M29.5703 59.1596C29.5703 58.5123 30.095 57.9877 30.7422 57.9877H38.3594V75.9044C38.3594 76.5517 37.8347 77.0762 37.1875 77.0762H29.5703V59.1596Z" fill="#ACD6FC"/>
<path fill-rule="evenodd" clip-rule="evenodd" d="M78.9971 51.8815C79.0244 51.5919 78.7946 51.343 78.5039 51.3472L68.2588 51.4947C67.8364 51.5007 67.6204 52.0036 67.9069 52.314L70.5779 55.208C70.3623 55.4372 65.2831 60.8244 61.5202 63.7378C57.4886 66.8586 55.0092 68.3798 50.4411 70.6442C46.8575 72.4205 44.7555 73.2655 40.9448 74.4811C38.5253 75.253 37.143 75.6173 34.6619 76.1597C32.7094 76.5863 29.626 77.0709 29.626 77.0709C29.626 77.0709 28.9545 77.1667 29.0025 77.6465C29.0504 78.1261 29.626 78.0782 29.626 78.0782L34.9017 77.6465C34.9017 77.6465 38.9877 77.1282 41.5682 76.5913C45.5556 75.7617 47.7702 75.1205 51.5923 73.7136C56.7492 71.8155 59.5627 70.4365 64.2539 67.5747C68.4989 64.9848 74.4319 60.0673 74.7886 59.7711L77.1842 62.3669C77.4706 62.6773 77.9892 62.5023 78.0292 62.0817L78.9971 51.8815Z" fill="#FFAC06"/>
</g>
</g>
</g>
<defs>
<clipPath id="clip0_117_842">
<rect width="50" height="50" fill="white" transform="translate(29 29)"/>
</clipPath>
</defs>
</svg>
