<svg width="24" height="24" viewBox="0 0 24 24" fill="none" xmlns="http://www.w3.org/2000/svg">
<g style="mix-blend-mode:luminosity" clip-path="url(#clip0_1_22)">
<rect width="22.2222" height="22.2222" transform="translate(0.888866 0.889063)" fill="white" fill-opacity="0.5"/>
<path d="M22.6532 6.66547C22.3971 5.7135 21.6465 4.96311 20.6947 4.70676C18.9557 4.23086 11.9998 4.23086 11.9998 4.23086C11.9998 4.23086 5.04399 4.23086 3.305 4.68862C2.37151 4.9448 1.60264 5.71367 1.34646 6.66547C0.888866 8.40429 0.888866 12.0104 0.888866 12.0104C0.888866 12.0104 0.888866 15.6347 1.34646 17.3554C1.60281 18.3072 2.3532 19.0578 3.30517 19.3141C5.0623 19.79 11.9999 19.79 11.9999 19.79C11.9999 19.79 18.9557 19.79 20.6947 19.3323C21.6467 19.0761 22.3971 18.3255 22.6534 17.3737C23.111 15.6347 23.111 12.0287 23.111 12.0287C23.111 12.0287 23.1293 8.40429 22.6532 6.66547Z" fill="#785EA2"/>
<path d="M9.78437 15.3428L15.5686 12.0113L9.78437 8.67983V15.3428Z" fill="white"/>
</g>
<defs>
<clipPath id="clip0_1_22">
<rect width="22.2222" height="22.2222" fill="white" transform="translate(0.888866 0.889063)"/>
</clipPath>
</defs>
</svg>
